<svg width="99" height="99" viewBox="0 0 99 99" fill="none" xmlns="http://www.w3.org/2000/svg">
<path d="M60.0953 38.9046H98.0502V7.27553H56.9324V5.69407C56.9324 3.07835 54.8037 0.949707 52.188 0.949707C49.5723 0.949707 47.4436 3.07835 47.4436 5.69407V56.3006H40.3998L29.3297 68.9523H0V94.2556H27.8115L32.5558 98.9999H45.0715H63.2582H65.6304C68.6826 98.9999 71.1655 96.517 71.1655 93.4648C71.1655 91.915 70.5218 90.517 69.4923 89.5112C70.5218 88.5054 71.1655 87.1074 71.1655 85.5575C71.1655 84.0077 70.5218 82.6097 69.4923 81.6039C70.5218 80.5981 71.1655 79.2001 71.1655 77.6503C71.1655 76.1004 70.5218 74.7024 69.4923 73.6966C70.5218 72.6908 71.1655 71.2928 71.1655 69.743C71.1655 66.6908 68.6826 64.2079 65.6304 64.2079H61.9124C62.2587 63.4868 62.4675 62.6881 62.4675 61.8357C62.4675 58.7835 59.9846 56.3006 56.9324 56.3006V10.4384H94.8873V35.7417H60.0953V38.9046ZM50.6066 5.69407C50.6066 4.82269 51.3166 4.11262 52.188 4.11262C53.0594 4.11262 53.7695 4.82269 53.7695 5.69407V7.27553H50.6066V5.69407ZM50.6066 10.4384H53.7695V56.3006H50.6066V10.4384ZM65.6304 95.837H63.2582H45.0715C43.7636 95.837 42.6993 94.7727 42.6993 93.4648C42.6993 92.157 43.7636 91.0926 45.0715 91.0926H65.6304C66.9382 91.0926 68.0026 92.157 68.0026 93.4648C68.0026 94.7727 66.9382 95.837 65.6304 95.837ZM65.6304 87.9297H45.0715C43.7636 87.9297 42.6993 86.8654 42.6993 85.5575C42.6993 84.2497 43.7636 83.1854 45.0715 83.1854H65.6304C66.9382 83.1854 68.0026 84.2497 68.0026 85.5575C68.0026 86.8654 66.9382 87.9297 65.6304 87.9297ZM65.6304 80.0225H45.0715C43.7636 80.0225 42.6993 78.9581 42.6993 77.6503C42.6993 76.3424 43.7636 75.2781 45.0715 75.2781H65.6304C66.9382 75.2781 68.0026 76.3424 68.0026 77.6503C68.0026 78.9581 66.9382 80.0225 65.6304 80.0225ZM65.6304 67.3708C66.9382 67.3708 68.0026 68.4351 68.0026 69.743C68.0026 71.0509 66.9382 72.1152 65.6304 72.1152H45.0715C44.3139 72.1152 43.6434 71.7341 43.2053 71.16L46.5723 67.3708H56.9324H65.6304ZM59.3046 61.8357C59.3046 63.1436 58.2402 64.2079 56.9324 64.2079H45.1521L32.0292 78.9708L34.3935 81.0725L41.0799 73.5496C41.1257 73.597 41.1748 73.6413 41.2222 73.6871C40.1848 74.6945 39.5364 76.0957 39.5364 77.6503C39.5364 79.2001 40.18 80.5981 41.2096 81.6039C40.18 82.6097 39.5364 84.0077 39.5364 85.5575C39.5364 87.1074 40.18 88.5054 41.2096 89.5112C40.18 90.517 39.5364 91.915 39.5364 93.4648C39.5364 94.3172 39.7467 95.1159 40.0915 95.837H33.8653L29.1209 91.0926H3.16291V72.1152H30.7656L41.8358 59.4635H56.9324C58.2402 59.4635 59.3046 60.5279 59.3046 61.8357Z" fill="#FFCA03"/>
<path d="M85.3986 23.09C85.3986 17.857 81.1429 13.6013 75.9099 13.6013C70.6768 13.6013 66.4211 17.857 66.4211 23.09C66.4211 28.3231 70.6768 32.5788 75.9099 32.5788C81.1429 32.5788 85.3986 28.3231 85.3986 23.09ZM75.9099 16.7642C79.3986 16.7642 82.2357 19.6014 82.2357 23.09C82.2357 24.2603 81.8957 25.342 81.339 26.283L72.7169 17.6609C73.6579 17.1042 74.7396 16.7642 75.9099 16.7642ZM69.5841 23.09C69.5841 21.9198 69.9241 20.8381 70.4807 19.8971L79.1028 28.5192C78.1619 29.0759 77.0801 29.4159 75.9099 29.4159C72.4212 29.4159 69.5841 26.5787 69.5841 23.09Z" fill="#FFCA03"/>
<path d="M7.59415 39.4328C4.73646 36.2414 3.16291 32.1217 3.16291 27.8344C3.16291 18.2429 10.9674 10.4384 20.5589 10.4384C23.6159 10.4384 26.6206 11.2418 29.2506 12.7616L30.8336 10.0241C27.7245 8.22597 24.171 7.27551 20.5589 7.27551C9.22304 7.27551 0 16.4986 0 27.8344C0 32.903 1.85979 37.7707 5.23778 41.5425L7.59415 39.4328Z" fill="#FFCA03"/>
<path d="M37.9549 27.8344C37.9549 37.426 30.1505 45.2304 20.5589 45.2304C16.8884 45.2304 13.3791 44.1013 10.4107 41.9663L8.5636 44.533C12.0728 47.0586 16.221 48.3933 20.5589 48.3933C31.8948 48.3933 41.1178 39.1703 41.1178 27.8344C41.1178 21.9941 38.6191 16.4084 34.2654 12.5101L32.1557 14.8665C35.8405 18.1654 37.9549 22.8924 37.9549 27.8344Z" fill="#FFCA03"/>
<path d="M23.7218 35.7417H17.396C15.6517 35.7417 14.2331 34.3231 14.2331 32.5788H11.0702C11.0702 36.0675 13.9073 38.9046 17.396 38.9046H18.9775V42.0675H22.1404V38.9046H23.7218C27.2105 38.9046 30.0476 36.0675 30.0476 32.5788C30.0476 29.0901 27.2105 26.253 23.7218 26.253H17.396C15.6517 26.253 14.2331 24.8344 14.2331 23.09C14.2331 21.3457 15.6517 19.9271 17.396 19.9271H23.7218C25.4662 19.9271 26.8847 21.3457 26.8847 23.09H30.0476C30.0476 19.6014 27.2105 16.7642 23.7218 16.7642H22.1404V13.6013H18.9775V16.7642H17.396C13.9073 16.7642 11.0702 19.6014 11.0702 23.09C11.0702 26.5787 13.9073 29.4159 17.396 29.4159H23.7218C25.4662 29.4159 26.8847 30.8344 26.8847 32.5788C26.8847 34.3231 25.4662 35.7417 23.7218 35.7417Z" fill="#FFCA03"/>
<path d="M22.1403 54.7192H18.9774V57.8821H22.1403V54.7192Z" fill="#FFCA03"/>
<path d="M31.6291 54.7192H28.4662V57.8821H31.6291V54.7192Z" fill="#FFCA03"/>
<path d="M12.6517 54.7192H9.48877V57.8821H12.6517V54.7192Z" fill="#FFCA03"/>
</svg>
