<svg width="96" height="68" viewBox="0 0 96 68" fill="none" xmlns="http://www.w3.org/2000/svg">
<path d="M95.8662 36.8172C95.5221 34.3321 92.9606 32.3441 88.1625 30.8913C84.282 29.7252 79.3692 29.0179 74.0167 28.9032V8.50657C74.0167 8.08602 73.8829 7.68459 73.6153 7.35962C72.9845 5.14217 70.4229 3.34528 65.9881 2.00717C61.687 0.707288 56.0669 0 50.1601 0C44.2724 0 38.7097 0.707288 34.5042 2.00717C31.0442 3.07766 26.8961 5.06571 26.8961 8.48745C26.8961 8.69773 26.9152 8.908 26.9534 9.11828L27.1637 17.8351C14.7575 15.4456 2.7718 23.6081 0.401434 36.0334C0.133811 37.4289 0 38.8626 0 40.2963C0 52.9128 10.2652 63.178 22.8817 63.178C28.1386 63.178 33.2234 61.362 37.3142 58.055C40.908 58.8961 45.1135 59.3548 49.5675 59.3931C50.5424 64.6882 62.0119 67.1159 72.7168 67.1159C78.6045 67.1159 84.1481 66.3895 88.3919 65.0705C91.871 64 96 61.9928 96 58.5711V37.5627C96 37.3142 95.9618 37.0466 95.8662 36.8172ZM35.6511 5.6583C39.5125 4.47312 44.6738 3.80406 50.1792 3.80406C55.6464 3.80406 60.9988 4.47312 64.8984 5.6583C69.0466 6.91995 69.945 8.21983 69.945 8.48745C69.945 8.75508 69.0466 10.0741 64.8793 11.3166C60.9988 12.4827 55.6464 13.1708 50.1792 13.1708C44.9032 13.1708 39.8949 12.5591 36.0908 11.4504C31.9809 10.2652 30.8339 8.94624 30.7384 8.52569C30.7384 8.48745 30.7383 8.46834 30.7192 8.46834C30.7383 8.20072 31.6177 6.90084 35.6511 5.6583ZM70.1935 13.2664V18.1601C70.0215 18.4277 69.9259 18.7527 69.945 19.0777C69.945 19.3262 69.0466 20.6452 64.8793 21.9068C60.9988 23.0729 55.6272 23.7611 50.1601 23.7611C45.4385 23.7611 40.8124 23.264 37.1422 22.3274C37.0848 22.3082 37.0466 22.3082 36.9892 22.2891C35.1732 20.8554 33.1661 19.7276 31.006 18.9056L30.8722 13.5149C32.1912 14.184 33.5675 14.7192 35.0012 15.1016C39.1493 16.3059 44.5209 16.9558 50.1601 16.9558C56.0669 16.9558 61.687 16.2485 65.9689 14.9486C67.4409 14.5472 68.8554 13.9737 70.1935 13.2664ZM35.7085 54.3847C27.9283 61.4767 15.8662 60.9032 8.79331 53.1231C1.72043 45.3429 2.27479 33.2808 10.055 26.2079C13.5723 23.0155 18.141 21.2378 22.8817 21.2378C24.7933 21.2378 26.7049 21.5245 28.54 22.0789C35.1541 24.1625 40.1434 29.6487 41.5771 36.4349C41.8256 37.6965 41.9594 38.9964 41.9594 40.2772C41.9594 45.6679 39.6846 50.7909 35.7085 54.3847ZM40.5639 54.8053C42.1123 52.9128 43.3548 50.7909 44.2342 48.5161C45.859 48.6499 47.5794 48.7455 49.3381 48.7646V49.1087L49.4337 55.589C46.4707 55.5508 43.5078 55.2832 40.5639 54.8053ZM45.6487 38.0215C46.7766 38.098 47.9426 38.1362 49.1278 38.1553C49.1278 38.1935 49.147 38.2509 49.147 38.2891L49.2616 44.9223C47.9044 44.9032 46.5854 44.8459 45.3047 44.7503C45.5914 43.2784 45.7443 41.7682 45.7443 40.2772C45.7634 39.5317 45.7252 38.7861 45.6487 38.0215ZM50.3513 34.3513C50.2939 34.3513 50.2366 34.3513 50.1792 34.3513C48.3441 34.3513 46.5663 34.2748 44.9223 34.1601C44.1959 31.5986 43.049 29.19 41.5006 27.049C44.368 27.4122 47.2545 27.6033 50.1601 27.6033C56.0669 27.6033 61.687 26.8961 65.9881 25.5962C67.46 25.1374 68.8554 24.583 70.1935 23.8757V28.9415C61.9737 29.1708 53.4863 30.8913 50.3513 34.3513ZM52.9128 37.2951C53.1039 36.7599 54.4994 35.5173 58.4182 34.4086C62.1458 33.3572 67.0012 32.7837 72.1051 32.7837H72.3536C77.8208 32.7837 83.1732 33.4146 87.0729 34.5998C91.1063 35.8232 92.0621 37.0466 92.1195 37.3716V37.3907C92.1004 37.6774 91.1446 38.9964 86.9008 40.2581C82.9821 41.4241 77.8208 42.055 72.3536 42.055C67.1924 42.055 62.2604 41.4624 58.4755 40.411C54.8244 39.3787 53.3524 38.2127 52.9892 37.6201C52.9701 37.5054 52.951 37.3907 52.9128 37.2951ZM92.1768 58.5711C92.1768 58.8387 91.3166 60.1577 87.264 61.4193C83.3835 62.6237 78.2222 63.2927 72.7168 63.2927C67.1923 63.2927 62.0311 62.6428 58.2079 61.4767C54.1553 60.2342 53.3333 58.9534 53.3333 58.6667C53.3333 58.6476 53.3333 58.6476 53.3333 58.6284L53.2378 53.1039C57.7873 55.417 65.3763 56.4683 72.3345 56.4683C78.2413 56.4683 83.8232 55.7611 88.1051 54.4612C89.5197 54.0406 90.8769 53.4671 92.1768 52.779V58.5711ZM92.0048 47.9809C92.0048 48.2485 91.1254 49.5484 86.9964 50.81C83.0777 51.9952 77.8781 52.6452 72.3345 52.6452C61.8399 52.6452 54.7288 50.2939 53.1613 48.4397L53.1231 46.7957L53.0466 42.4182C54.4421 43.1254 55.8949 43.6798 57.405 44.0812C61.5149 45.2282 66.81 45.8781 72.3154 45.8781C78.1266 45.8781 83.6702 45.19 87.9331 43.9283C89.405 43.5078 90.8196 42.9534 92.1577 42.2461V47.1589H92.1768C92.1768 47.4074 92.0048 47.6941 92.0048 47.9809Z" fill="#FFCA03"/>
<path d="M32.4205 50.5041C32.0382 49.51 30.9486 49.0321 29.9545 49.3953C29.9545 49.3762 29.9545 49.3762 29.9545 49.3762C26.3416 50.7526 22.2699 49.8732 19.5555 47.1397C19.0011 46.6426 18.5423 46.05 18.1983 45.4001H28.0238C29.0752 45.4001 29.9354 44.5399 29.9354 43.4885C29.9354 42.4371 29.0752 41.5769 28.0238 41.5769H16.8028C16.6881 40.8888 16.669 40.1815 16.7455 39.4742H29.0179C30.0692 39.4742 30.9294 38.614 30.9294 37.5626C30.9294 36.5112 30.0692 35.651 29.0179 35.651H17.8733C18.3321 34.829 18.8864 34.0835 19.5364 33.3953C22.2699 30.6809 26.3416 29.8015 29.9354 31.197C30.9294 31.5793 32.019 31.0823 32.4014 30.1074C32.7837 29.1134 32.2867 28.0238 31.3118 27.6415C26.3034 25.7107 20.626 26.915 16.8219 30.7191C15.4073 32.1146 14.3368 33.7968 13.6678 35.6701H10.9533C9.90196 35.6701 9.04175 36.5303 9.04175 37.5817C9.04175 38.6331 9.90196 39.4933 10.9533 39.4933H12.8649C12.8267 40.2006 12.8267 40.8888 12.9032 41.596H10.9533C9.90196 41.596 9.04175 42.4563 9.04175 43.5076C9.04175 44.559 9.90196 45.4192 10.9533 45.4192H13.8781C14.528 47.0823 15.5412 48.6116 16.8219 49.8732C20.6069 53.6773 26.2843 54.9007 31.3118 52.97C32.3058 52.5877 32.7837 51.4981 32.4205 50.5041Z" fill="#FFCA03"/>
</svg>
