<svg width="97" height="96" viewBox="0 0 97 96" fill="none" xmlns="http://www.w3.org/2000/svg">
<path d="M48.027 5.13394e-07C28.817 -0.00279949 11.4554 11.4478 3.8944 29.1072L3.296 29.3056L3.528 30.0016C-6.4272 54.5548 5.4066 82.5294 29.9598 92.4846C35.6944 94.8098 41.8246 96.0034 48.0128 96C74.5224 96.004 96.016 74.5168 96.02 48.0072C96.024 21.4976 74.5368 0.00380051 48.027 5.13394e-07ZM85.6776 72.2008L83.2128 69.7376V64C83.2156 63.7524 83.1608 63.5076 83.0528 63.2848L76.8128 50.8224V44.8C76.8128 44.2652 76.5458 43.7656 76.1008 43.4688L71.3008 40.2688C70.9246 40.0176 70.4596 39.9374 70.0208 40.048L64.1424 41.5168L54.2688 37.28L52.9104 27.7632L56.6752 24H64.7568L67.4768 28.088C67.7224 28.4556 68.1094 28.7054 68.5456 28.7776L78.1456 30.3776C78.4028 30.4208 78.6664 30.3998 78.9136 30.3168L87.7552 27.3696C95.171 41.6006 94.3778 58.7168 85.6776 72.2008ZM79.0784 15.7664L76.4768 17.5008L69.224 16.0496L64.5184 14.4832C64.2304 14.3854 63.9204 14.373 63.6256 14.448L57.6768 15.9344L55.0688 15.0656L57.0016 11.2H62.4128C62.661 11.2002 62.9058 11.1428 63.128 11.032L68.664 8.264C72.4764 10.254 75.9836 12.7804 79.0784 15.7664ZM30.488 6.7728L34.328 9.3328C34.5168 9.4584 34.73 9.5424 34.9536 9.5792L42.7072 10.872L41.9504 13.136L37.9104 14.4848C37.5486 14.6052 37.2416 14.8508 37.0448 15.1776L32.4496 22.8352L25.0688 27.264L14.1888 28.8176C13.4002 28.929 12.8138 29.6036 12.8128 30.4V35.2C12.8128 35.6244 12.9816 36.0312 13.2816 36.3312L16.0128 39.0624V41.8112L9.3568 37.3728L6.9424 30.1296C11.536 19.6336 19.9554 11.2816 30.488 6.7728ZM25.9328 59.232L18.7008 57.784L16.0128 52.4224V48.6624L21.9744 42.7008L24.1808 47.1152C24.4518 47.6576 25.0064 48.0002 25.6128 48H35.9072L40.2416 55.224C40.5308 55.7054 41.0512 55.9998 41.6128 56H46.0608L44.9408 61.6112L38.8832 67.6688C38.5826 67.9686 38.4134 68.3754 38.4128 68.8V72.8L32.6528 77.12C32.25 77.4222 32.0128 77.8964 32.0128 78.4V84.1792L30.0224 83.52L27.2128 76.4928V60.8C27.213 60.0396 26.6778 59.384 25.9328 59.232ZM21.1232 83.8282C6.0374 72.5104 -0.342403 52.9552 5.1664 34.9184L6.496 38.9056C6.608 39.243 6.8292 39.5336 7.1248 39.7312L15.1008 45.048L13.2816 46.8688C12.9816 47.1688 12.8128 47.5756 12.8128 48V52.8C12.8126 53.0482 12.87 53.293 12.9808 53.5152L16.1808 59.9152C16.4024 60.3572 16.8158 60.672 17.3008 60.768L24.0208 62.1104V76.8C24.0206 77.0032 24.0592 77.2048 24.1344 77.3936L27.3344 85.3936C27.5096 85.8306 27.8684 86.1684 28.3152 86.3168L33.1152 87.9168C33.2756 87.9712 33.4436 87.9992 33.6128 88C34.4964 88 35.2128 87.2836 35.2128 86.4V79.2L40.9728 74.88C41.3756 74.5778 41.6128 74.1036 41.6128 73.6V69.4624L47.544 63.5312C47.767 63.3078 47.919 63.0232 47.9808 62.7136L49.5808 54.7136C49.754 53.847 49.192 53.0042 48.3254 52.831C48.2224 52.8104 48.1178 52.8 48.0128 52.8H42.5184L38.184 45.576C37.8948 45.0946 37.3744 44.8002 36.8128 44.8H26.6016L23.8528 39.2848C23.6226 38.8244 23.185 38.5028 22.6768 38.4208C22.1688 38.333 21.6502 38.5006 21.2896 38.8688L19.2128 40.9376V38.4C19.2128 37.9756 19.044 37.5688 18.744 37.2688L16.0128 34.5376V31.7872L25.84 30.384C26.051 30.3534 26.254 30.281 26.4368 30.1712L34.4368 25.3712C34.6612 25.2364 34.8492 25.0484 34.984 24.824L39.48 17.3312L43.7184 15.9168C44.197 15.7598 44.5726 15.3844 44.7296 14.9056L46.3296 10.1056C46.6068 9.2666 46.1514 8.3616 45.3124 8.0844C45.235 8.0588 45.1556 8.0392 45.0752 8.0256L35.8144 6.4816L34.1872 5.3968C44.2558 2.1196 55.161 2.5252 64.9584 6.5408L62.0352 8H56.0128C55.4034 7.9966 54.8452 8.3398 54.5728 8.8848L51.3728 15.2848C50.9786 16.0756 51.3 17.0364 52.0908 17.4306C52.1582 17.4642 52.2278 17.493 52.2992 17.5168L57.0992 19.1168C57.3872 19.2146 57.6972 19.227 57.992 19.152L63.9408 17.6656L68.2992 19.1168C68.3616 19.1392 68.4258 19.1564 68.4912 19.168L76.4912 20.768C76.9072 20.8528 77.34 20.7676 77.6928 20.5312L81.3344 18.1024C83.1266 20.0986 84.7372 22.2506 86.1472 24.5328L78.2752 27.1568L69.752 25.736L66.936 21.512C66.6408 21.0694 66.1448 20.8026 65.6128 20.8H56.0128C55.5884 20.8 55.1816 20.9688 54.8816 21.2688L50.0816 26.0688C49.7252 26.425 49.5574 26.9284 49.6288 27.4272L51.2288 38.6272C51.3094 39.181 51.6734 39.6524 52.1888 39.8704L63.3888 44.6704C63.7096 44.8094 64.0676 44.838 64.4064 44.752L70.12 43.3232L73.6128 45.656V51.2C73.61 51.4476 73.6648 51.6924 73.7728 51.9152L80.0128 64.3776V70.4C80.0128 70.8244 80.1816 71.2312 80.4816 71.5312L83.8288 74.88C68.9842 94.6666 40.9098 98.673 21.1232 83.8282Z" fill="#FFCA03"/>
</svg>
