<svg xmlns="http://www.w3.org/2000/svg" width="22" height="22" fill="none">
  <g fill="#7E7E7E" clip-path="url(#clip0)">
    <path d="M17.4 13.6c-.5-.4-1-.7-1.6-.7-.6 0-1.1.3-1.6.7l-1.4 1.5-.4-.2-.5-.2a16 16 0 0 1-5-5.5l1-1 .4-.5c1-1 1-2.2 0-3.2L7.1 3.3A19.3 19.3 0 0 1 5.8 2c-.5-.5-1-.7-1.6-.7-.6 0-1.1.2-1.6.7L1 3.6c-.6.6-.9 1.3-1 2.1 0 1.4.3 2.6.6 3.5a21.8 21.8 0 0 0 10.8 11.6 11.3 11.3 0 0 0 4.4 1.2c1.1 0 2-.4 2.7-1.2l.8-.8.6-.6c.5-.5.7-1 .7-1.6 0-.6-.2-1.1-.7-1.6l-2.5-2.6zm1.6 5l-.5.5-1 1c-.4.4-1 .7-1.7.7h-.2a10 10 0 0 1-3.6-1.1 20.6 20.6 0 0 1-10.2-11c-.4-1.1-.6-2-.5-2.9 0-.5.2-1 .6-1.4L3.5 3l.7-.4c.3 0 .5.2.7.4l.8.8.5.5 1.3 1.2c.4.5.4 1 0 1.5l-.4.4-1.2 1v.1c-.4.4-.4.8-.3 1v.1c.4.8.8 1.6 1.5 2.5a17 17 0 0 0 4.2 3.7l.5.3.5.3.5.1c.4 0 .6-.2.7-.3l1.6-1.6c.2-.1.4-.3.7-.3.3 0 .5.1.7.3l2.5 2.6c.5.4.5 1 0 1.4zM11.9 5.2C13 5.4 14.2 6 15 7a6 6 0 0 1 1.6 3.2c.1.3.4.5.7.5.4 0 .6-.4.6-.7A7.2 7.2 0 0 0 12 4c-.3 0-.7.2-.7.5 0 .4.1.7.5.7zM22 9.7A11.8 11.8 0 0 0 12.3 0a.6.6 0 1 0-.2 1.3 10.5 10.5 0 0 1 8.6 8.6c0 .3.3.5.6.5h.2c.3 0 .5-.4.5-.7z"/>
  </g>
  <defs>
    <clipPath id="clip0">
      <path fill="#fff" d="M0 0h22v22H0z"/>
    </clipPath>
  </defs>
</svg>