<svg width="24" height="24" viewBox="0 0 24 24" fill="none" xmlns="http://www.w3.org/2000/svg">
<path d="M0.5 12C0.5 5.64873 5.64873 0.5 12 0.5C18.3513 0.5 23.5 5.64873 23.5 12C23.5 18.3513 18.3513 23.5 12 23.5C5.64873 23.5 0.5 18.3513 0.5 12Z" stroke="#7E7E7E"/>
<path fill-rule="evenodd" clip-rule="evenodd" d="M12.6278 15.5381C12.6278 15.5381 12.8588 15.5129 12.9772 15.3881C13.0855 15.2738 13.0817 15.0581 13.0817 15.0581C13.0817 15.0581 13.0673 14.0509 13.5437 13.9022C14.0133 13.7559 14.6162 14.8762 15.256 15.307C15.7393 15.6327 16.1062 15.5614 16.1062 15.5614L17.8159 15.5381C17.8159 15.5381 18.7099 15.484 18.2861 14.7939C18.251 14.7373 18.0388 14.2832 17.0152 13.3503C15.9428 12.3739 16.0867 12.5318 17.3777 10.8425C18.164 9.81375 18.4783 9.1857 18.38 8.91715C18.2867 8.66028 17.7082 8.72849 17.7082 8.72849L15.7837 8.74017C15.7837 8.74017 15.641 8.72112 15.5352 8.78318C15.4319 8.84402 15.3649 8.98598 15.3649 8.98598C15.3649 8.98598 15.0607 9.78179 14.6543 10.459C13.7973 11.8872 13.4548 11.9627 13.3146 11.8743C12.9884 11.6672 13.0698 11.0434 13.0698 10.6003C13.0698 9.21581 13.2839 8.63877 12.6535 8.48944C12.4444 8.43966 12.2904 8.40709 11.7551 8.40156C11.0683 8.3948 10.4874 8.40402 10.1581 8.56195C9.93895 8.66704 9.76992 8.90179 9.87322 8.91531C10.0003 8.9319 10.2883 8.99151 10.441 9.19553C10.6382 9.45916 10.6314 10.0503 10.6314 10.0503C10.6314 10.0503 10.7447 11.6801 10.3665 11.8822C10.1074 12.0211 9.75176 11.7378 8.98736 10.4418C8.59608 9.7781 8.30058 9.04436 8.30058 9.04436C8.30058 9.04436 8.24361 8.90732 8.14157 8.83357C8.01823 8.74447 7.84607 8.71681 7.84607 8.71681L6.01738 8.72849C6.01738 8.72849 5.74255 8.73586 5.64175 8.85324C5.55223 8.95709 5.63487 9.17279 5.63487 9.17279C5.63487 9.17279 7.06664 12.4611 8.68811 14.1185C10.175 15.6376 11.8628 15.5381 11.8628 15.5381H12.6278Z" fill="#7E7E7E"/>
</svg>
