<svg xmlns="http://www.w3.org/2000/svg" width="1803" height="1723" fill="none">
  <path fill="#31C8FF" fill-opacity=".5" d="M719.9 1663.7l2.6.3c20.4 2 42 6.8 63.8 13.1 21.9 6.3 44 14 66 21.5a3247.9 3247.9 0 0 0 41.6 14.2c7.3 2.3 15.5 5 24 6.7a86.7 86.7 0 0 0 26.4 2c6.4-.5 12.8-2.1 19-4.2 6.1-2 12.2-4.6 18.2-7 3-1.4 6-2.6 9.1-3.9 15.1-6.2 30.9-11.8 48-17.2 17-5.4 35.5-10.5 55.8-15.4l1.3-.4a318 318 0 0 0 57.8-17.9 102 102 0 0 0 15-8.6c4.5-3 8.4-6.4 11.8-10 3.3-3.6 6.2-7.5 9-11.3 2.6-3.5 5.2-7 8.2-10.4 3-3.3 6.4-6.4 10.5-8.9 21.5-13.5 52.5-5.5 82.5 2.3l7.3 1.9c14.2 3.6 27.5 6.6 39.4 6.7 12 0 22.4-2.7 30.8-10.5a37 37 0 0 0 8.3-11.3 53 53 0 0 0 5-23.2c0-8.5-1-17.5-2-26.8-1-9-2-18-2.2-27.2a87.7 87.7 0 0 1 5.2-31.7c.5-1.5 1.2-3 2-4.5 9.9-20.9 28.8-32.2 48.8-44.2 6.8-4 13.8-8.2 20.4-12.8 6.7-4.6 13-9.6 18.7-15.5 9-9.6 16.9-21.4 24.4-32.8 10-15 20.2-30.6 33.8-41.6a67.8 67.8 0 0 1 8.4-6c14.5-9 31-14 47.1-18.7 12-3.5 23.5-7 34-11.9a75 75 0 0 0 31.3-25.9c1-1.7 2.1-3.5 3-5.4a79.8 79.8 0 0 0 7.7-27.5c1-9.7 1.1-19.9 1.1-30.3 0-7.7 0-15.5.6-23.2a182.8 182.8 0 0 1 4.9-31.5c3.9-15.2 10.5-30.5 20-46.1a297.9 297.9 0 0 1 36.8-47.8c5.8-6.2 11.8-12.3 17.6-18.2l.3-.2c19.5-19.8 38-38.4 50-62.6a80.8 80.8 0 0 0 6.8-21.8 118 118 0 0 0 .5-24 176.3 176.3 0 0 0-11-44.5 588.6 588.6 0 0 0-19.2-44.3 2981 2981 0 0 1-11.4-24.9 470 470 0 0 1-17.2-44.2c-4.4-13.5-7.5-26-9.5-38-3.1-18.3-4-36.8-4.7-54.7v-.4c-.4-7.9-.7-15.5-1.2-23a303.5 303.5 0 0 0-4.5-36c-.9-4.1-1.8-8-2.8-11.3a353.3 353.3 0 0 0-26.1-63.4 574.3 574.3 0 0 0-49.6-77.7l-13.6-18.7-6.8-9.5-6.4-8.9-6.3-8.9a1785.8 1785.8 0 0 0-80.6-106.7 2913 2913 0 0 0-37-45.3c-2.8-3.5-6-7-8.6-10.6-25.5-30.9-51.9-62.9-85.8-86.5-9.3-6.5-19.1-12-29-17-10-5-20-9.4-29.8-13.8a484 484 0 0 1-42.8-20.7 322.2 322.2 0 0 1-36.8-24.9c-12-9.2-23.9-19.2-36.3-30l-.6-.4c-14-12.1-28.5-24.5-43.7-35.2a170.5 170.5 0 0 0-48.8-24.8 165 165 0 0 0-35-6.2c-12-1-24.4-1-37.4-1-7.4.1-14.8 0-22-.1-7.4-.1-14.7-.4-22-.6-13-.3-26.3-.7-39.5-.7-13.3 0-26.6.4-39.7 1.5l-20 1.9-6.5.5c-44 4-85.5 7.8-129.4 9.5a5944 5944 0 0 1-59 1.8l-22 .7c-7 .2-14.3.4-21.6 1.3-7.3.8-14.6 2.4-21.3 5.2a72.3 72.3 0 0 0-14.8 8.8c-4.6 3.4-9 7.2-13.1 11A349 349 0 0 1 613 54.8a143.8 143.8 0 0 1-57.8 23.6c-21 4.3-43.4 5.8-65.4 7.3l-4.9.4a5864.6 5864.6 0 0 0-29.4 2.1 284 284 0 0 0-42 6.5c-13.1 3-25.2 7.1-36 12-13.6 6-25.1 13.4-34.7 22a99 99 0 0 0-27.5 40.5l-4.1 11.2c-2.8 7.7-5.7 15.7-9.6 23.2a122.7 122.7 0 0 1-41.8 44c-17.3 11.8-37.1 21.3-56.6 30.6l-.4.2c-11 5.3-22.3 10.7-33.1 16.5a330 330 0 0 0-32.7 19.8 164.2 164.2 0 0 0-23.3 19.4 101.3 101.3 0 0 0-29.4 56.6 128 128 0 0 0-1.3 27.8c.5 9.6 1.7 19.7 3.2 30.7l.2 1.6c1.3 9.5 2.5 19 3.3 28.7.7 9.6.8 19.1-.1 28.5-3.9 36.5-24.2 66.8-43.9 96l-4.1 6.2-4.2 6.3a362.7 362.7 0 0 0-16 27c-9.8 18.3-16 34.6-18.7 49.3a78.1 78.1 0 0 0 2.1 40c7.2 21.2 24.5 35.4 41.1 49 16.6 13.6 33.7 27.6 41.9 48.8l.2.4-.5.3c-28.1 14.4-27.2 16.5-12 51.5l1.1 2.6 2.6 5.7c4.2 9.4 8.7 19.7 13.1 30.7a458.7 458.7 0 0 1 14 40l1.5 5.3c6.7 24.3 11 49.8 14 75.7 3.2 26 5.1 52.3 7 78.1l.8 10.5.9 11 .8 9.8a697 697 0 0 0 12.2 86.7c5.4 25.9 12.4 49 21 70.2 12.1 29.8 28 55.6 47.1 76.4a178 178 0 0 0 65.1 46 341 341 0 0 0 23.5 8c7.7 2.6 15.3 5 22.4 7.8A93 93 0 0 1 362 1474c3.9 4 7.5 8.5 11.1 13 3.6 4.5 7 9.2 10.4 13.7a1179.1 1179.1 0 0 0 40 52.3 1050.5 1050.5 0 0 0 82.4 88.4c4.6 4.2 9 8 13.2 11.5 11.7 9.7 22.5 17.1 32.9 22.4a93 93 0 0 0 30.1 9.8c21.7 3 41-3.7 59.8-10 9-3.1 18.2-6.3 27.6-8.4 7.7-1.7 15.8-2.9 24.2-3.4 8.4-.5 17.2-.3 26.2.4zm193.2-974c-5.7-.6-11.3-.3-16.8.4-5.4.6-10.6 1.7-15.3 2.8a321.2 321.2 0 0 0-34.6 10 57.5 57.5 0 0 0-19.9 10.2c-4.6 4-7 8.5-7.4 13.6a19 19 0 0 0 2.8 11.4c2.8 4.6 7 8 10 10 2.3 1.5 4.7 2.9 7.3 4.3 5.3 3.2 10.9 6.4 15.8 11 4.5 4.3 7.5 10 10.3 15.4 2.1 4 4.3 8.2 7 11.8 3.3 4.2 7.7 7 12.5 8.4a25.1 25.1 0 0 0 15.2-.6 10.7 10.7 0 0 0 5.3-4c3.6-4.5 9-7.8 14.9-10.2 5.9-2.5 12.3-4.2 18-5.6l3.3-.9c8-2.1 14.3-5 18.8-8.4a21 21 0 0 0 8.2-12.4c2.2-10.6-1.4-24.8-9.4-37.4a66 66 0 0 0-31.1-26.6 51.3 51.3 0 0 0-15-3.3zm-23.7 111.2a25.5 25.5 0 0 1-17.9-9.6 52.6 52.6 0 0 1-3.8-5.8c-1.2-2-2.3-4.1-3.3-6.2-1.4-2.6-2.9-5.4-4.5-8-1.6-2.6-3.5-5-5.7-7.1-2.4-2.3-5-4.2-7.6-6a150.4 150.4 0 0 0-11.7-7l-3.5-2.2c-3.2-2-7.6-5.6-10.5-10.4a20 20 0 0 1-3-12c.5-5.3 3-10 7.8-14.2a58.7 58.7 0 0 1 20.4-10.6c5-1.7 10.6-3.4 16.4-5.2 5.9-1.7 12-3.4 18.3-4.8 6.8-1.6 14.8-3 23-3.4 8-.4 16.5.4 24.4 3.4h.1a71.6 71.6 0 0 1 32.4 28.3 51.4 51.4 0 0 1 8.8 37c-1 5.1-3.9 9.4-8.5 13a54 54 0 0 1-19.2 8.7l-3.3.8c-5.6 1.5-12 3.1-17.8 5.5-5.8 2.4-11.1 5.6-14.6 10a11.1 11.1 0 0 1-5.7 4.3 26.3 26.3 0 0 1-11 1.5zm48.2-162c-5.5-.4-10.7-.5-15.5-.2a75.1 75.1 0 0 0-21.5 4.2l-8 2.8-2.5.9c-2.7.9-6 2-9.5 2.9a60.3 60.3 0 0 1-17.5 2.1h-2.3l-2.3.1-3.5.2h-.4c-3.4.4-6.6 1.1-9.7 2.2a121 121 0 0 0-9 3.6l-5.2 2.2a68.6 68.6 0 0 1-12 3.8l-6.8 1.5c-9.2 2.2-17.8 4.1-26 8.8-4.8 2.7-9 6-13.4 9.4l-4 3a159.7 159.7 0 0 1-12.6 8.6l-7.8 5c-2.5 1.8-5 3.6-7.1 5.6-4.4 4-7.7 8.5-10 13.4a36.3 36.3 0 0 0 5 38.4 66 66 0 0 0 26.9 20l4 1.8 3 1.1 2.9 1 4.8 2a85 85 0 0 1 29.2 18.5 169.5 169.5 0 0 1 14.1 16.1l4.9 5.8a141.4 141.4 0 0 0 29.3 26.7c1.4 1 2.9 1.8 4.5 2.8 4 2.6 8.5 5.2 13 7.6a89 89 0 0 0 13.5 6 43 43 0 0 0 16.4 2.7c4.4-.4 7.8-2 10.2-4.8a51.3 51.3 0 0 0 4.9-6.3l3.1-4.4a46.6 46.6 0 0 1 18.4-13.5c7.2-3.2 15-5.3 22.8-7.5 6-1.6 11.7-3.2 17-5.1l4-2 3.7-2.5 6.1-4.1a533.9 533.9 0 0 1 13-8.5l2.7-1.6c5-3 10.3-6.3 14.6-10.1 3-2.6 5.3-5.5 7-8.5 1.8-3 2.9-6 3.3-9.2 1-7.5-1.1-13.9-3.3-20.6a415.1 415.1 0 0 1-3-10 73.3 73.3 0 0 1-1.7-12.5l-.6-9.8v-.1l-.3-6c0-2-.2-3.8-.4-5.7-.3-3-.7-6.4-1.4-10a46.8 46.8 0 0 0-9.5-21.9 35.5 35.5 0 0 0-12.7-10.3l-4.3-1.8-1.6-.7c-1.7-.8-3.6-1.5-5.5-2.5a33.3 33.3 0 0 1-10.4-8.4 96.8 96.8 0 0 1-4-5c-2.5-3.5-4.9-6.7-8.4-9.4-6.1-4.8-14.3-6-20.3-6.8a126.1 126.1 0 0 0-8.3-1zM898 870.6a45.8 45.8 0 0 1-12.2-2.7 90 90 0 0 1-13.7-6c-4.5-2.5-9-5.1-13-7.6l-4.6-2.9-3.7-2.5a135.8 135.8 0 0 1-21.1-19c-3.2-3.4-6.3-7.2-9.6-11.2-4.4-5.4-9-11-14-16.1a73.5 73.5 0 0 0-24-16.3 112.9 112.9 0 0 0-9.7-3.8c-2-.7-4-1.4-5.8-2.2a137.6 137.6 0 0 1-8-3.5 67.5 67.5 0 0 1-23.4-18.7 37.2 37.2 0 0 1-5.2-39.4c2.3-5 5.8-9.7 10.3-13.8a70 70 0 0 1 7.2-5.6c2.5-1.8 5.2-3.4 7.7-5l4.3-2.8a168.3 168.3 0 0 0 8.3-5.8l4-3v-.1c4.5-3.5 8.7-6.7 13.5-9.5a95.2 95.2 0 0 1 26.4-8.8c4.4-1 9-2 13.5-3.4 3.4-1 6.8-2.6 10.2-4 3-1.4 6-2.7 9.2-3.7 3.2-1.1 6.5-2 9.9-2.2h.5a101.6 101.6 0 0 1 8-.4h.1c2 0 4.2 0 6.4-.2 3.6-.2 7.4-1 10.9-1.8 3.5-1 6.7-2 9.3-3l2.5-.8a280 280 0 0 1 16.1-5.1c5.2-1.3 11-2 17.3-2.2a131.3 131.3 0 0 1 30.8 3.4 29.9 29.9 0 0 1 15.2 9.5l4 5c1.2 1.7 2.4 3.4 3.8 5a29.5 29.5 0 0 0 10.1 8.2c1.9 1 3.7 1.8 5.4 2.5l1.6.6c1.4.6 2.9 1.2 4.4 2a36.6 36.6 0 0 1 13 10.6 47.8 47.8 0 0 1 9.8 22.3c.7 3.6 1 7 1.4 10l.4 5.9.3 5.9a335.1 335.1 0 0 0 1.3 16.6 68.5 68.5 0 0 0 4 15.6 45.7 45.7 0 0 1 3.3 21 26 26 0 0 1-3.4 9.6c-1.8 3.1-4.2 6-7.3 8.8-2.2 2-4.6 3.7-7.1 5.4-2.5 1.7-5.1 3.3-7.7 4.8l-2.6 1.6-6.8 4.3-6.2 4.2-6.1 4.1c-2.5 1.8-5 3.4-8 4.6-5.3 2-11 3.5-17 5.2-15.3 4.2-31.2 8.6-40.6 20.6l-3.2 4.3a160.6 160.6 0 0 1-4.9 6.5c-1.7 2-3.8 3.4-6.4 4.2-2.6.8-5.6 1.1-9 .8zm-6 38.8a69 69 0 0 1 29.1 10.3 195.3 195.3 0 0 1 32.4 24.9l.3.3c14.9 13.1 30.3 26.6 48.7 28 1.8.2 3.6 0 5.4-.2 1.9-.3 3.7-.8 5.6-1.3l.6-.1a95.2 95.2 0 0 0 32.3-14.4c7.3-5.3 12.5-12 13.6-19.6 1-6.8-1.6-13.2-4.4-19.8-1.4-3.6-3-7.3-3.9-11a50 50 0 0 1 12.4-46.1c3.7-4 8-7.3 12.7-10.2 4.5-2.9 9.4-5.4 14.1-7.9 4.5-2.3 9-4.8 13.3-7.4A56.9 56.9 0 0 0 1123 817c4-6.6 5.9-13.6 5.1-20.5-1.8-15.9-14.7-25-28.3-34.6-11.5-8.1-23.4-16.5-28.8-29.4-2-4.7-3-10-3-15.7-.1-5.6.8-11.6 2.7-17.6 5.8-18 18-32 29.8-45.5l.4-.5 4.5-5.2c11.4-13.2 18-23.9 21.8-32.7a59.2 59.2 0 0 0 5-22 50.5 50.5 0 0 0-14-35.6 36.7 36.7 0 0 0-10.6-7.8 26.9 26.9 0 0 0-11.6-2.5c-9.2 0-17 4.8-24.7 9.3l-3.2 1.9-3.2 1.8a45 45 0 0 1-19 5.6 23 23 0 0 1-15-4.6c-10.8-8.3-10.4-21.4-10-35.4.2-11.6.6-23.7-6-32.8a27 27 0 0 0-20.7-10.9 81 81 0 0 0-33.7 6.3c-12.1 4.4-23.9 9.1-34 15.1-10 6-18.2 13.5-23.4 23.4a98.3 98.3 0 0 0-6.4 17v.1c-1.9 6.1-3.8 12.5-7 18.3a33.4 33.4 0 0 1-15.6 14.4 20 20 0 0 1-17.6-.1 36 36 0 0 1-9.4-8c-2-2.2-4-4.4-6.3-6.1a51 51 0 0 0-6.2-3.9c-13.6-6.7-21.6 5-29.3 16.3-4.3 6.2-8.4 12.1-13.2 14.5a55.6 55.6 0 0 1-13.2 4.5 144 144 0 0 1-13.2 2c-15.4 1.8-30 3.5-40.6 23.7-5.3 10-7.5 21.6-9.6 32.8-1.2 6.4-2.5 12.8-4.3 19a69 69 0 0 1-7.6 18 67.3 67.3 0 0 1-16 17c-6.2 4.8-13 9-19.7 13.1-7.2 4.5-14.7 9-21.2 14.4a86.4 86.4 0 0 0-25.5 34.2 74 74 0 0 0 11.4 77.8 73.2 73.2 0 0 0 39.4 24.4 59.3 59.3 0 0 0 10.3 1.3l4.1.2c5.5.1 11.2.4 16.7 2 6.6 2.1 12.2 6 17.4 10.7 5.1 4.8 9.8 10.4 14.3 15.9l1.5 1.8c7.4 8.9 19.3 21.3 33.7 29.8a61 61 0 0 0 33 9.5c15.3-.6 28.4-8.5 41.2-16.2 7.5-4.5 15.4-9.3 23.6-12.4a51 51 0 0 1 22.7-4l1.5.2zm110.2 64.6a56.3 56.3 0 0 1-26-9.8c-8-5.2-15.7-12-23.1-18.5l-.5-.4-5.2-4.5c-8.8-7.6-18-15-27.4-20.5a65.7 65.7 0 0 0-29.6-10 59.7 59.7 0 0 0-22.3 3.8 98 98 0 0 0-12 5.8c-3.9 2-7.7 4.4-11.5 6.7-12.8 7.7-26 15.7-41.7 16.3a54 54 0 0 1-6-.2c-11-.9-21.4-5.4-30.6-11.3-13.2-8.5-24-19.9-31-28.3l-1.4-1.7c-9-11-18.3-22.2-31.2-26.2-2.7-.8-5.4-1.3-8.2-1.6-2.8-.3-5.5-.4-8.3-.4l-4-.2a78.8 78.8 0 0 1-10.6-1.3c-2-.5-4.2-1-6.3-1.7a74.3 74.3 0 0 1-33.5-23.2A75.1 75.1 0 0 1 620 768a87.1 87.1 0 0 1 25.8-34.7c3.3-2.7 6.8-5.2 10.4-7.5l11-7c13.2-8 27-16.5 35.2-29.8a68 68 0 0 0 7.6-17.6c1.8-6.2 3-12.6 4.2-18.9 2.2-11.3 4.4-23 9.8-33.1A40.4 40.4 0 0 1 743 600c7-3.3 14.6-4.2 22.5-5.1 4.3-.5 8.7-1 13-2 4.4-.9 8.8-2.2 13-4.4 2.3-1 4.5-3 6.5-5.6 2.1-2.5 4.2-5.5 6.3-8.5 3.8-5.6 7.8-11.5 12.7-15.2a16 16 0 0 1 18-1.5 35.6 35.6 0 0 1 6.4 4c2.4 1.8 4.4 4 6.4 6.2 2.7 3 5.5 6 9.1 7.8a19 19 0 0 0 16.8 0 32.3 32.3 0 0 0 15-13.8c3-5.7 5-12 6.9-18.1.8-2.9 1.7-5.9 2.8-8.8 1-2.9 2.2-5.8 3.6-8.5a61.6 61.6 0 0 1 23.8-23.7c10.2-6.1 22-10.8 34.2-15.4h.1c13.6-5 25-7 34.3-6.2a28 28 0 0 1 21.2 11.3c6.9 9.4 6.5 21.6 6.2 33.4-.2 6.9-.3 13.5.8 19.5 1.2 5.9 3.6 11.1 8.8 15 4.5 3.5 9.6 4.6 14.5 4.5a44 44 0 0 0 18.4-5.6c2.1-1.1 4.2-2.3 6.2-3.6h.1c3.9-2.3 7.9-4.7 12-6.5 4.2-1.7 8.6-3 13.3-3 4.1 0 8.2.8 12 2.6 4 1.8 7.7 4.5 11 8a51.4 51.4 0 0 1 14.3 36.5c-.4 11-4 21-9 30.3-5 9.2-11.6 17.5-18 25l-5 5.7c-11.7 13.5-23.8 27.4-29.6 45.2a56.6 56.6 0 0 0-2.7 17.2c0 5.5 1 10.7 3 15.3 5.3 12.6 17 20.9 28.4 29 7 4.8 13.6 9.6 18.9 15.1 5.2 5.6 9 12 9.9 20.1.8 7.1-1 14.4-5.2 21.1a57.8 57.8 0 0 1-19 18.3c-4.4 2.7-9 5-13.4 7.4-9.5 5-19.2 10-26.6 17.9a49 49 0 0 0-10.4 50.6 195 195 0 0 0 2.1 5.4 39.5 39.5 0 0 1 4.5 20.3c-1.1 8-6.4 14.8-13.9 20.3a96.6 96.6 0 0 1-32.8 14.6l-.6.2c-4 1-7.6 1.9-11.4 1.6h-.2zM727 1086.3c8.9.7 17.8 2.7 26.9 6a157 157 0 0 1 36 18.4l9 6.2c11.7 8.4 25 17.9 38.7 25.1a108.5 108.5 0 0 0 33.8 12.2c10.4 1.6 20 .8 29.3-2.4a76 76 0 0 0 23.7-14c7.3-6 14-13 20.5-19.8 9.7-10 19.7-20.5 31.4-27.9a168.4 168.4 0 0 1 36.5-16l5.8-2a498 498 0 0 0 87.2-40.6 596.1 596.1 0 0 0 57.7-39.5 705.1 705.1 0 0 0 90-83c2.4-2.6 4.7-5.2 6.6-7.9 2-2.7 3.6-5.4 4.8-8.4a25.5 25.5 0 0 0 0-17.7c-2.9-8.3-9-14.8-12.5-18-2-1.9-4.2-3.7-6.3-5.5l-.1-.1a317.2 317.2 0 0 1-10-9 47 47 0 0 1-5.9-7.3 33.7 33.7 0 0 1-3.6-7.4c-6-17.5 2.8-36.5 12.2-56.7 4.4-9.4 8.9-19 11.8-28.4a55.2 55.2 0 0 0 2.1-27.9c-3.3-15.5-15.5-26.9-27.4-37.8-10.9-10-22.2-20.5-26.1-34.2a37 37 0 0 1-1.5-12c.1-3.3.6-6.6 1.6-10.2 1-3.5 2.4-7.3 4.2-11.3l4.4-8.5 4.8-8.3a127 127 0 0 0 12.4-24.8 58.2 58.2 0 0 0 2.7-16.7c0-8.6-2-17.4-6-26.2-4.1-8.9-10.1-17.9-18.1-26.8l-8.7-9.4-.5-.7c-7.5-8-15.2-16.1-21.4-24.8a71.1 71.1 0 0 1-13.8-33.2 78 78 0 0 1-.4-8.5l.2-8.3c.3-7.3.6-14.2-1.1-20.4a25.9 25.9 0 0 0-6.7-11.4 29.4 29.4 0 0 0-11.3-6.4 65.6 65.6 0 0 0-16.9-2.8 106.4 106.4 0 0 0-15.4.4c-4.1.5-8.1 1.2-12 1.8h-.4c-5 1-10 1.8-14.8 2.2a51.6 51.6 0 0 1-27.2-4c-4-1.8-8.1-4-12.2-7a136 136 0 0 1-24-22c-8-9.1-15.7-19.8-23.3-32-5.5 6-11.3 12.5-17.7 18.5-6.5 6-13.4 11.6-21.2 15.9-9 4.9-17.8 7-25.3 7.2-9 .1-16.4-2.5-21-6.4a28 28 0 0 1-3.8-4.3c-1.2-1.5-2.3-3-3.3-4.6-1.8-2.6-3.6-5.3-5.9-7.5a17.6 17.6 0 0 0-4.2-3.1 27.4 27.4 0 0 0-17-2.2c-6.2 1-12.5 3.7-17.8 7.8-11.7 9-12 15-12.2 23.4l-.3 4.9a59.2 59.2 0 0 1-1.3 8.3 128.8 128.8 0 0 1-42.4 67 128.3 128.3 0 0 1-24.2 16.5A483.7 483.7 0 0 1 749 466l-16.8 7.2-19 8.3a418 418 0 0 0-33.6 17 150.6 150.6 0 0 0-28 19.5 76.7 76.7 0 0 0-16.8 21.3 80 80 0 0 0-6.7 19c-1.5 6.4-2.4 13.1-3.4 20a167.2 167.2 0 0 1-7.4 34.4c-4.2 11.5-10.3 22-17.4 32.1-7 10-15 19.6-22.8 29l-3.9 4.6-3.8 4.7-4.8 5.9-5.2 6.6a851.5 851.5 0 0 0-27.8 37.1c-9.5 13.5-19 28-27.5 43.3-8 14.4-15.6 30.4-22.8 48a709 709 0 0 0-20.7 58.7c-5 16.4-10.7 34.9-6.3 51.5a49.7 49.7 0 0 0 22.9 29.3c11 7.1 24.3 12.1 37.4 17 12.3 4.7 25 9.4 35.6 15.7 4.1 2.5 7.7 5 10.8 7.8a53.5 53.5 0 0 1 12.7 16.4c1.5 2.9 2.8 6 4 9.4 1.2 3.4 2.3 7 3.3 10.5s1.8 7 2.7 10.6c5 20 9.7 38.8 26.9 47.3 19 9.3 40.2 3 62.7-3.7l7-2a419.3 419.3 0 0 1 17.4-4.5 112 112 0 0 1 29.3-1.7zm149.2 69.5a80 80 0 0 1-18.6-4c-6.5-2-13.3-5-20.5-8.8a239 239 0 0 1-20.2-12.2 676 676 0 0 1-18.7-13 324.2 324.2 0 0 0-16.7-11.1 138.3 138.3 0 0 0-42.4-17.6 101 101 0 0 0-51.3 2.4l-14.2 4c-22.7 6.8-44.2 13.2-63.5 3.7-17.6-8.7-22.4-27.8-27.4-48a366.6 366.6 0 0 0-6-21 77.7 77.7 0 0 0-8.5-16.8c-2.2-3-4.8-6-7.9-8.6-3-2.7-6.6-5.2-10.6-7.6-5.3-3.2-11.1-6-17.1-8.5-6-2.5-12.2-4.8-18.3-7.1-13.3-5-26.8-10-37.8-17.2a50.5 50.5 0 0 1-23.3-30 61.6 61.6 0 0 1-.3-26.2c1.5-8.8 4.2-17.6 6.7-25.8 6.6-21.5 13.5-41 20.7-58.7a443.2 443.2 0 0 1 50.4-91.6 853.8 853.8 0 0 1 37.8-49.7l4-4.6 3.8-4.7c7.8-9.4 15.7-18.8 22.7-28.8s13.1-20.6 17.2-32c4.2-11.5 5.9-23 7.4-34.1 1-7 2-13.7 3.5-20.2a81 81 0 0 1 6.8-19.2c4-7.7 9.5-14.8 17-21.6a150 150 0 0 1 28.1-19.7 456.8 456.8 0 0 1 15-8.1 652.1 652.1 0 0 1 37.8-17.1l.2-.2a749 749 0 0 0 33.1-14.8 216.5 216.5 0 0 0 20.2-11.2 124.3 124.3 0 0 0 27.7-23.6 124.2 124.2 0 0 0 30-61.6l.2-4.8c.2-4.4.3-8 1.9-11.9 1.6-3.8 4.7-7.7 10.7-12.4 5.5-4.2 12-7 18.4-8 6.4-1 12.6-.3 17.6 2.3a18.7 18.7 0 0 1 4.5 3.3c2.3 2.3 4.2 5 6 7.7l3.2 4.6c1.1 1.4 2.4 2.8 3.8 4a30.2 30.2 0 0 0 20.3 6.2c7.3-.2 15.8-2.3 24.7-7.1 7.8-4.2 14.8-9.8 21.2-16 6.5-6 12.4-12.6 18-18.7l.4-.6.4.7a241 241 0 0 0 23.2 32.2c8 9 16 16.5 24.1 22.2 4 2.8 8 5 12 6.8a51.8 51.8 0 0 0 26.7 3.9c4.9-.4 9.7-1.3 14.7-2.1h.3c4-.7 8-1.4 12.2-1.9a86 86 0 0 1 32.9 2.5c4.8 1.6 8.6 3.8 11.6 6.7a24.3 24.3 0 0 1 6.9 11.8c1.8 6.4 1.5 13.4 1.2 20.8l-.2 8.2a81.2 81.2 0 0 0 1.2 13.8 69.8 69.8 0 0 0 12.8 27.4c6.2 8.5 13.8 16.6 21.2 24.6l4.8 5 4.5 5c8 9.1 14.2 18.2 18.2 27.2a64 64 0 0 1 5.5 35.2 59 59 0 0 1-2 8.4 83.3 83.3 0 0 1-5.5 12.8c-2.2 4.1-4.6 8.2-7 12.3-3.2 5.4-6.5 11-9.2 16.7-1.8 4-3.2 7.6-4.1 11a43.2 43.2 0 0 0-1.4 16c.3 2 .7 3.9 1.2 5.7 3.8 13.4 14.5 23.3 25.8 33.7 12 11 24.4 22.5 27.8 38.4 2 9.2.7 18.8-2.2 28.3-2.9 9.6-7.4 19.2-11.8 28.7-9.3 20-18.1 38.8-12.2 55.8.9 2.5 2 4.9 3.5 7.2a48.3 48.3 0 0 0 10.6 11.7l5 4.4a148.6 148.6 0 0 1 6.5 5.6 48 48 0 0 1 12.8 18.5 26.5 26.5 0 0 1 0 18.4c-1.2 3-2.9 5.9-4.9 8.6-2 2.7-4.3 5.3-6.6 8a660.7 660.7 0 0 1-34 34.8 710.8 710.8 0 0 1-56.3 48.4c-19 14.7-38.3 28-57.7 39.6a469.7 469.7 0 0 1-87.5 40.7l-5.7 2c-6.1 2-12.3 4.2-18.4 6.7-6.1 2.5-12.1 5.4-18 9.1-5.7 3.7-11 8.1-16.2 12.9-5.2 4.7-10 9.8-14.9 14.9-13.2 13.8-27 28-44.7 34a59.8 59.8 0 0 1-24.8 3zm-218.6-12.5l2.3.2 2.4.3a95.6 95.6 0 0 1 26.7 7.5c5 2.3 10 4.8 14.8 7.6 4.8 2.8 9.7 5.8 14.7 9l6.8 4.1c7 4.3 13.5 7.9 19.5 10.7a104.2 104.2 0 0 0 26 8.6l2.8.6c3.7.7 7.6 1.4 12 2.6 11.6 3 24.4 9.7 36.7 16.1l11.4 5.9c12.1 6 22 8.8 30 9.9a55.4 55.4 0 0 0 41.4-10.4c6.8-4.8 13-10.6 19.3-16.3 4-3.6 8-7.3 12-10.7a149 149 0 0 1 28-18.1c9.7-5 19.8-9.2 30.1-13.3l5.7-2.2 5-2 11-4 11-4 10-3.5a1028.5 1028.5 0 0 0 15-5.7 31 31 0 0 0 4.3-2.3c1.8-1.2 3.2-2.8 4.4-4.4 1.5-1.7 2.9-3.4 4.9-4.4l9.6-5.4 9.9-6.1c4.3-2.7 8.8-5.5 13.3-8.1a204 204 0 0 1 14.1-7.6c14.7-7 30.3-13.2 45.3-19.2 14.2-5.6 28.8-11.4 42.8-18a232.5 232.5 0 0 0 43.1-26 144.9 144.9 0 0 0 43.4-52.3l5.2-9.2a234.7 234.7 0 0 1 25.8-36l6.6-8.1c2.5-3.2 5-6.4 7.1-9.7 2.1-3.3 3.9-6.6 5-10.2a30.6 30.6 0 0 0-.5-19.9c-1.4-4-3.7-8-6.8-11.7-3-3.8-6.8-7.5-11.4-11-3.2-2.5-6.6-4.9-9.8-7.2-10.5-7.3-21.3-15-26.7-26a36 36 0 0 1-3.5-16.4c.1-5.1 1.3-10.1 3.1-14.9 1.8-4.8 4.1-9.3 6.5-13.7l6-10.2 6.1-10v-.1c4-6.5 8.3-13.3 12-20 3.3-6 6.5-12.5 8.6-19.4 2.1-6.8 3-14 1.7-21.2-1.2-6-4-11.3-7.6-16-3.6-4.8-8-9-12.1-12.9-2-1.9-4-3.8-6.2-5.6l-.1-.2c-6.4-5.7-12.9-11.6-18.6-17.9a79.3 79.3 0 0 1-14-20.3 54.7 54.7 0 0 1-4.8-24.5c.5-12.5 5-24.7 9.5-36.5a144 144 0 0 0 8.6-28.7 68.5 68.5 0 0 0 .7-10.8c-.4-31.7-28.2-56.5-50.6-76.4l-.5-.4c-18.5-16.5-39.4-35-43.3-60.6-1.2-7.9-.8-16.3-.4-24.5.3-7.3.7-14.4 0-21a38.5 38.5 0 0 0-6.3-18.3 32 32 0 0 0-14.7-11.2c-7.5-3-15.8-3.8-22.8-3.7a205.4 205.4 0 0 0-11.4.5l-4.6.4c-9 1-18.4 2-27.6.7a79.6 79.6 0 0 1-42.9-21.2 202.5 202.5 0 0 1-31.7-38.9l-10.9 8.6-.6.5c-11 8.7-22.2 17.8-34.7 25a115.4 115.4 0 0 1-14.9 7.2c-6.8 2.7-13.5 4-19.5 4.1-6 .1-11.3-1-15.4-3.4a63.9 63.9 0 0 1-11.3-9.3 177.5 177.5 0 0 0-6.8-6.2 50 50 0 0 0-8.9-5.7 80.8 80.8 0 0 0-20-7 32.8 32.8 0 0 0-10.8 0l-3.5 1c-13.5 5.6-15.8 11-19.1 19.4l-2.1 5a239.9 239.9 0 0 1-18 29.8c-8.4 12.3-19.1 24.7-32.3 37.4a530.6 530.6 0 0 1-75.2 58.3 725.9 725.9 0 0 1-32.2 19.5l-4.3 2.4-8 4.5a346.8 346.8 0 0 0-38.5 24.5 129 129 0 0 0-30 30.4c-10 15-14.5 31-19.4 48l-4.3 14.6a218 218 0 0 1-24.8 53.7c-8 13.1-17.8 26.6-29.4 41l-3.3 4-3.2 4c-3.7 4.4-7.5 9-11.2 13.7a203 203 0 0 0-26.6 45.6 612.4 612.4 0 0 0-12.6 33.3l-3 8.4-3.1 8.4c-4.1 10.9-8.5 21.7-13 32.5-4.6 10.8-9.3 21.4-14 31.8a3079 3079 0 0 0-18.6 43.3c-3.6 9-7.2 18.5-9.7 28.3a78.2 78.2 0 0 0-2.2 29.5 54.2 54.2 0 0 0 10.8 26.2c6 7.8 14.3 14.7 25.5 21.3 4 2.3 8 4.5 12.2 6.6l12.6 6c19.9 9.4 40.4 19.1 51.5 36.6a65 65 0 0 1 2.9 5c5.5 11 7.7 24.5 9.8 37.6 1.2 7.6 2.5 15 4.3 22a60 60 0 0 0 8 18.7 41 41 0 0 0 22.3 16.4 95 95 0 0 0 27.7 4c9.3 0 18.7-.8 28-1.6 12-1 24.5-2.2 36.5-1.1zm209 84.5c-6.4-.6-12.5-2-18-4a126.3 126.3 0 0 1-21-9.2l-5.8-3c-6.1-3.2-12.4-6.5-18.5-9.3a115 115 0 0 0-29.9-9.4l-2.9-.5a189 189 0 0 1-9.6-2.2 106 106 0 0 1-16.5-6.5 212 212 0 0 1-19.6-10.7l-6.9-4.3c-10-6.2-19.4-12-29.3-16.4a100.1 100.1 0 0 0-26.5-7.5c-13.3-1.7-27.3-.5-40.9.7-9.3.8-18.8 1.6-28.2 1.5-9.4 0-18.8-1-27.9-4a43.6 43.6 0 0 1-23-16.8c-7.5-11.1-9.9-25.7-12.3-41.2-1-6.4-2.2-13-3.6-19.3a80.6 80.6 0 0 0-9-22.8c-11-17.3-31.3-26.9-51-36.1-8.5-4-17.2-8.1-25-12.7a88.2 88.2 0 0 1-25.7-21.7c-6.1-8-9.7-16.7-11.1-26.6-1.4-9.8-.2-20 2.2-29.9 2.5-9.8 6.2-19.5 9.8-28.5l9.2-21.8 9.5-21.5c9.2-21 18.8-42.6 26.8-64.3l6.1-16.6v-.1c7.9-22 16-44.6 29-64.8a310 310 0 0 1 21.6-28.3l3.3-4 3.3-4a389.7 389.7 0 0 0 29.2-40.8 245.8 245.8 0 0 0 24.8-53.4l4.3-14.6c4.9-17 9.5-33 19.6-48.3a130.2 130.2 0 0 1 30.1-30.6c12-9 25.3-17 38.6-24.6l5.9-3.3 6.4-3.7a755.3 755.3 0 0 0 32.2-19.3c9.8-6.3 18.9-12.5 27.7-19 18.4-13.5 34.1-26.5 47.3-39.2a238.1 238.1 0 0 0 39.7-48.8c2.6-4 5.2-8.2 7.6-12.6 2.2-4 3.6-7.4 4.9-10.5 1.6-4.2 3-7.7 5.8-11a34.8 34.8 0 0 1 17.6-10l3.5-.4c2.5-.2 5 0 7.6.3a81 81 0 0 1 20.4 7 50.3 50.3 0 0 1 12.6 9.1l3.3 3a124 124 0 0 0 5.4 5 28.3 28.3 0 0 0 20.6 7.5c5.9 0 12.4-1.4 19.1-4a91.6 91.6 0 0 0 14.8-7.1c6.2-3.6 12.1-7.7 17.8-12 5.8-4.2 11.3-8.6 16.8-13l6-4.8 6-4.6.4-.4.3.5a204 204 0 0 0 31.6 39 79 79 0 0 0 42.5 21.1c4.6.6 9.2.7 13.8.5 4.6-.2 9.2-.7 13.6-1.1h.2l4.5-.5a317.1 317.1 0 0 1 11.4-.5c7.1 0 15.6.7 23.3 3.8a33 33 0 0 1 15 11.6c4 5.6 5.8 12 6.5 18.9.8 6.8.4 14 0 21-.3 8.2-.7 16.5.5 24.3 3.8 25.2 23.7 42.9 43 60l.4.4c11.3 10 23.9 21.3 33.8 34a72.4 72.4 0 0 1 17 48.7l-.6 5.4c-.7 4.9-2 9.8-3.5 14.6-1.5 4.9-3.3 9.7-5.1 14.4a242 242 0 0 0-6.2 17.8c-1.7 6-3 12.2-3.2 18.4a53 53 0 0 0 4.7 24c6.6 14.5 19.7 26.4 32.3 37.8l6.3 5.8c4.2 3.9 8.6 8.2 12.3 13a40.3 40.3 0 0 1 7.7 16.5c1.4 7.4.5 14.7-1.6 21.7s-5.4 13.6-8.8 19.7c-1.9 3.3-3.8 6.7-5.9 10l-6 10c-4.2 6.7-8.4 13.5-12.1 20.2-2.4 4.4-4.7 8.9-6.5 13.5-1.7 4.7-2.9 9.6-3 14.6a34.2 34.2 0 0 0 3.4 16c5.2 10.7 16 18.2 26.3 25.5l5 3.5 4.9 3.7c4.6 3.6 8.5 7.4 11.6 11.2 3.1 4 5.4 8 7 12a32.2 32.2 0 0 1-4.7 31c-2.1 3.4-4.6 6.6-7.2 9.9l-6.5 8.1-10.5 13.2c-3.3 4.4-6.6 8.8-9.5 13.2-4 6.3-7.6 12.6-11 18.6-2 3.7-4.1 7.4-6.3 11a144.4 144.4 0 0 1-37.3 41.6 234.2 234.2 0 0 1-43.3 26.2c-7 3.3-14.2 6.4-21.4 9.3l-21.5 8.7c-7.5 3-15.2 6-22.7 9.2-7.6 3.1-15.2 6.4-22.5 10a196 196 0 0 0-14 7.5 481 481 0 0 0-13.3 8.1l-10 6.1c-3.2 2-6.4 3.8-9.6 5.5-1 .4-1.7 1-2.4 1.8-.8.7-1.4 1.5-2.1 2.3l-2.1 2.4a16 16 0 0 1-2.6 2.2 78 78 0 0 1-9.5 4.5l-19.9 7.1-.2.1c-7.2 2.6-14.6 5.2-21.8 8l-5.1 2-5.7 2.1c-10.2 4-20.3 8.3-30 13.2-9.8 5-19.1 10.8-27.9 18-4 3.4-8 7-11.8 10.6-12.6 11.7-25.5 23.6-41.7 26.6a63 63 0 0 1-16.8.8zm-82.5-3.2c8 .6 16.4 3.6 24.9 7.8a238 238 0 0 1 25.7 15.2c7.8 5 15.9 10 24.6 13.7a62.5 62.5 0 0 0 27.8 5.2c9.3-.6 17.5-4.2 25.3-9.2 7.7-5.1 15-11.7 22-18.2 6-5.4 12.1-11 18.4-15.6 19.3-14.2 42-19.7 64-25l6-1.4a535.6 535.6 0 0 0 71.2-22.8c1.9-.8 3.9-1.7 5.7-2.7 1.9-1 3.6-2.1 5-3.5 2.7-2.4 4.1-5.4 5.5-8.3.8-1.7 1.6-3.5 2.6-5 4-6 9.4-12 16.6-17.8 7.2-6 16-11.8 26.8-17.7 9.3-5.2 19.1-9.5 29.2-13.3 10-3.8 20.2-7 30.3-10.3a1172 1172 0 0 0 17-5.7c5.8-2 11.5-4 17-6.2 18-7 33.8-16.1 46.4-26.5a91 91 0 0 0 26.8-34c3-7.4 4.8-14.7 6.4-21.8l3-11.8c1.2-4 2.5-8.1 4.3-12.2 2.5-5.7 5.7-11.2 9.4-16.7 3.6-5.5 7.7-10.8 11.6-16.1l4-5.4c2.5-3.4 5-6.8 7.1-10.3 2.1-3.5 3.9-7.1 5-10.8a33.1 33.1 0 0 0-7.5-33c-3.3-4-7.4-7.8-12.3-11.5-1.8-1.4-3.7-2.7-5.7-4l-5.7-4c-11-7.3-22.2-14.8-28-25.4a32.8 32.8 0 0 1-3.9-17.3c.3-5.4 2-10.6 4.3-15.4 2.3-4.9 5.3-9.4 8-13.5a428 428 0 0 1 14.5-19.8l.1-.1c4.8-6.4 9.8-13 14.3-19.6 4.4-6.3 8.5-13 11.3-19.8 2.7-6.9 4-14 2.7-21.4-1.1-6.5-4.2-12.1-8.5-17.2-4.2-5.1-9.6-9.8-15.2-14.4h-.1c-17.6-14.5-35.8-29.5-44.3-49.5a64.2 64.2 0 0 1-5-27.9c.4-12.6 3.8-25.2 7-37.4 1.8-6.3 3.5-12.6 4.8-19a95.6 95.6 0 0 0 2-25c-.2-2-.4-4.1-.8-6.2a86 86 0 0 0-20-40.7c-10.1-12.2-22.7-23.5-35-34.5l-.5-.5-8.5-7.6a244.1 244.1 0 0 1-27-27.7 80.8 80.8 0 0 1-16.2-31.3c-1.9-7.6-2.4-15.8-3-23.6-.4-6.5-.9-13-2.1-19.4a41.7 41.7 0 0 0-21.8-31.9 74.3 74.3 0 0 0-16.5-6.6l-4.7-1.3-4.8-1.2-6.5-.7-1.2-.1-11-1.3c-3.7-.5-7.4-1.2-11.1-2.2-33.5-8.7-57-32-75.9-50.7l-1-1c-5.5 2.9-11 6.1-16.6 9.5-5.6 3.5-11.3 7.1-17 10.9l-8.6 5.5a774.3 774.3 0 0 1-16.4 10l-7.2 4a80.3 80.3 0 0 1-19.4 7.1c-6 1.3-11.4 1.4-15.6.3a54 54 0 0 1-11-4.5c-3.5-1.8-7-4-10.4-6.2l-5.7-3.3-5.9-3.3a4936.5 4936.5 0 0 1-9.4-5.3l-2.2-1.4a41.3 41.3 0 0 0-12.3-5.8l-3.3-.5a13 13 0 0 0-3.6.1c-13.8 2.7-18.5 8.2-25.6 16.5a281.4 281.4 0 0 1-12.4 13.7l-6.4 6.6-3.7 3.9-3.4 3.6a353 353 0 0 1-25.6 24.1c-9.1 8-18.7 15.7-28.6 23.8l-.7.5c-10.8 8.8-22 18-32.5 27.2l-13.7 12.2c-7 6.3-13.8 12.4-20.8 18.3a354.4 354.4 0 0 1-41 30.3l-7.2 4.7c-21.3 13.8-43.3 28-59.3 45.9a152 152 0 0 0-21.1 31 442 442 0 0 0-16 34.8l-.2.7-3.5 8.3-2.8 6.6c-12 27.7-24.2 56.3-42.8 81.2-3.4 4.7-7.2 9.3-10.8 13.8l-9.7 12.1a150.3 150.3 0 0 0-22.4 43 454.6 454.6 0 0 0-9 31.6 1132.4 1132.4 0 0 1-7.3 26.5c-4 13.2-9.2 26-14.8 38.8-5.5 12.7-11.5 25.1-17.5 37.4l-8.8 18.4c-2.9 6.2-5.8 12.4-8.5 18.6-3.7 8.5-7.6 18.3-10.4 28.6a94.7 94.7 0 0 0-3.7 31.5 65.3 65.3 0 0 0 9.1 29.1 85 85 0 0 0 22.9 24.3c8.4 6.2 18.2 11.6 27.8 16.8 18.8 10.4 38.4 21 48.4 39a82.2 82.2 0 0 1 2.7 5.4c4.6 10.9 6.3 23.6 8 35.9 1.1 8.7 2.3 17.2 4.4 25 2 7.7 5.1 14.6 10.1 20.3a41 41 0 0 0 10.8 8.7c4.1 2.3 8.9 4.1 14.4 5.5 7.9 2 15.8 3.3 23.7 4.5l23.6 2.7c20.4 2.2 39.7 4.2 58.2 10.8a139.8 139.8 0 0 1 36.6 19.6c3 2 6 4.3 9 6.5h.1c6.4 4.7 13 9.4 19.8 13.8a110 110 0 0 0 21.7 10.6 47.1 47.1 0 0 0 29.7 2.3l2-.4a47.4 47.4 0 0 1 14.3-1.8h1.3l1.4.2zm95 42.9a70 70 0 0 1-23.7-6.7c-7.4-3.5-14.5-7.9-21.3-12.3-9-6-18-11.6-27-15.9-9-4.2-17.6-7-25.7-7-2.7-.1-5.1 0-7.4.4-2.4.3-4.6.8-6.7 1.2l-2 .4a90.2 90.2 0 0 1-10.6 1.3c-5.8.1-12.5-1.2-19.6-3.6-7-2.5-14.6-6-22-10.7-7-4.4-13.5-9.2-19.9-13.8-6.2-4.5-12-8.8-18-12.6a138.7 138.7 0 0 0-27.3-13.4 248.2 248.2 0 0 0-58-10.7c-7.8-.8-15.7-1.7-23.6-2.8-8-1.1-16-2.5-23.9-4.5a57.7 57.7 0 0 1-14.7-5.6 42 42 0 0 1-11-8.9 50.6 50.6 0 0 1-10.4-20.7c-2-7.8-3.2-16.3-4.4-25.1-1.6-12.3-3.3-25-8-35.6a53.4 53.4 0 0 0-2.5-5.3c-10-17.8-29.3-28.4-48-38.6l-14.4-8c-4.7-2.9-9.3-5.8-13.6-9a85.9 85.9 0 0 1-23.1-24.5 66 66 0 0 1-9.2-29.6c-.8-10.6.9-21.5 3.7-31.8 2.8-10.4 6.7-20.3 10.4-28.8 2.8-6.2 5.6-12.5 8.6-18.7l8.8-18.4c11.8-24.5 24-49.8 32.2-76 2.7-8.8 5-17.8 7.3-26.5 2.7-10.5 5.5-21.3 9-31.7a150.6 150.6 0 0 1 22.6-43.2c3.1-4.2 6.4-8.2 9.6-12.1 3.6-4.5 7.4-9.1 10.9-13.8 18.4-24.9 30.7-53.4 42.5-81l2.9-6.6 3.8-9c10.5-24.9 19.5-46.4 37.2-66.2 8-9 17.6-17 27.8-24.6 10.2-7.5 21.1-14.5 31.8-21.5l7.2-4.6 7.1-4.7a475 475 0 0 0 12-8.3c7.7-5.6 14.8-11.3 21.7-17.2 7-6 13.8-12 20.8-18.3l1.3-1.2a1398 1398 0 0 1 28.9-25L768 343c9.9-8.1 19.5-16 28.6-23.8a355 355 0 0 0 25.5-24l3.4-3.7 4.5-4.6 12.2-12.8a146 146 0 0 0 3-3.4l2.8-3.2c3.6-4.3 6.6-7.8 10.5-10.6 3.9-2.9 8.6-5 15.7-6.3a14 14 0 0 1 4-.2c1.2.1 2.4.3 3.4.6 4.7 1 8.3 3.3 12.6 6l2.1 1.2c2.9 1.8 6 3.4 9.2 5.2l.4.3c3.9 2 7.8 4.2 11.5 6.5a82 82 0 0 0 21.1 10.6c4 1 9.3.9 15.2-.4 6-1.3 12.5-3.7 19-7a174 174 0 0 0 14.9-8.5l8.7-5.5 8.5-5.5a406.3 406.3 0 0 1 34.1-20.6l.3-.1 1.6 1.5c9.4 9.3 20 19.8 32.3 29a125 125 0 0 0 43 21.5c3.7 1 7.4 1.6 11 2.1 3.7.6 7.4 1 11 1.3l3.9.4 3.9.4a218.8 218.8 0 0 1 9.6 2.5c5 1.5 11 3.5 16.8 6.8A43 43 0 0 1 1188 313c7 11.1 7.9 24.6 8.8 37.7.3 4 .5 8 1 11.8a80 80 0 0 0 18 42.5c7.4 9.5 16.7 18.4 26.8 27.6l8.9 8h.1c24.8 22.3 50.5 45.3 55.4 76a81.5 81.5 0 0 1 1 12.3c0 12.7-3.6 25.7-7 38.2-1.6 6.1-3.3 12.3-4.6 18.5a104 104 0 0 0-2.4 18.8 67.8 67.8 0 0 0 5 27.3 87.2 87.2 0 0 0 18.4 26.6c7.8 8 16.7 15.3 25.5 22.5 5.8 4.7 11.2 9.4 15.5 14.7 4.4 5.2 7.5 10.9 8.7 17.6 1.3 7.6 0 14.9-2.8 21.9-2.8 7-7 13.7-11.4 20.1-4.6 6.6-9.6 13.3-14.4 19.8-4.9 6.5-9.9 13.2-14.4 19.8-2.8 4-5.7 8.4-8 13.2-2.3 4.7-4 9.8-4.2 15.1a30.3 30.3 0 0 0 3.8 16.6c2.8 5.2 6.9 9.6 11.6 13.6 4.8 4 10.3 7.8 16 11.6a394.5 394.5 0 0 1 11.5 8c5 3.7 9.2 7.6 12.5 11.6 3.3 4 5.7 8.1 7.3 12.4a33.3 33.3 0 0 1 .4 21.6c-1.2 3.8-3 7.4-5.2 11-2.1 3.5-4.6 7-7.1 10.5l-4 5.3c-4 5.3-8 10.7-11.6 16-3.6 5.5-6.9 11-9.3 16.6-3.5 8.2-5.4 16.1-7.2 23.8l-2.7 10.9a97 97 0 0 1-3.8 11 92.3 92.3 0 0 1-27.1 34.4 170 170 0 0 1-46.6 26.8c-5.6 2.2-11.3 4.3-17 6.2l-17.2 5.7a335 335 0 0 0-59.3 23.5 180.8 180.8 0 0 0-26.6 17.6 78 78 0 0 0-16.4 17.5c-1 1.6-1.7 3.2-2.5 5l-2.3 4.4a19.8 19.8 0 0 1-8.6 7.9l-6 2.7c-7.2 3-15 6-23.5 9a557 557 0 0 1-53.5 15.2h-.3c-11.4 2.8-22.5 5.5-33.2 9.3a114.7 114.7 0 0 0-30.3 15.5c-6.3 4.7-12.4 10.2-18.3 15.6-14.4 13-29.2 26.6-48 27.7a55.3 55.3 0 0 1-8-.1zm-91.4 22.3a64.8 64.8 0 0 1 18.5 5.3 94.3 94.3 0 0 1 15.4 9.3 134 134 0 0 1 15.4 13.1l5.4 5.4.3.3c15.6 15.7 31.7 31.9 53 34.6 25.3 3.2 44.2-14 64-32.3h.1a444 444 0 0 1 14.7-13.1c5-4.2 10.1-8.1 15.5-11.4 12.8-8 27-12.2 41.8-14.7 14.8-2.4 30.1-3 45.2-3.7a1077.4 1077.4 0 0 0 29-1.6 254.3 254.3 0 0 0 20-2.6 276.5 276.5 0 0 0 73-22.9c2.8-1.3 5.5-2.6 8-4.3 2.5-1.6 4.7-3.6 6.4-6 1.8-2.5 3-5.4 3.6-8.5.7-3 1-6.2 1.4-9.3l.3-3 .4-3.1a77 77 0 0 1 11.6-29.7c6-9.3 14-17.6 23.2-24.2 10.8-7.7 23-12.8 35.8-16.6 12.8-3.7 26.2-6.2 39.3-8.5 10.3-2 20.8-3.8 30.9-6.3a115 115 0 0 0 52.6-27.2c14.2-13.6 20.8-29.3 20.6-42.8 0-4.5-.7-9-1.7-13.4s-2.3-8.7-3.5-13c-3-10-6-20.4-5-31.2 1.2-15 10.1-28.9 18.8-42.2l2.4-3.8c2.5-3.8 5-7.8 7.1-11.8 2.2-4 4-8.2 5.3-12.3a34.4 34.4 0 0 0-.3-23.2 40.8 40.8 0 0 0-8-13 78.2 78.2 0 0 0-14.2-12.4 205.8 205.8 0 0 0-15.3-9.7c-6.2-3.7-12.2-7.4-17.5-11.4-5.3-4-9.9-8.2-13.1-13a29.4 29.4 0 0 1-4.8-19c.6-5.9 3-11 6.3-15.9 3.4-4.8 7.7-9.2 12.3-13.6 6.4-6.3 13-12.6 19.5-18.7l10.1-9.7 10-9.5c6.4-6.3 12.6-12.9 16.8-20 4.3-7 6.6-14.5 5.5-22.7-2.2-16.8-18.5-27.8-32.9-37.5-20-13.6-33-25.6-41.5-36a88.9 88.9 0 0 1-20.7-61.4c0-6.2.5-12.5 1.2-18.8.7-6.3 1.5-12.6 2.4-18.8 1.4-10 2.9-20.3 3.4-30.5a113.1 113.1 0 0 0-4-38l-2.8-7.7c-12-29-38.5-51-64.1-72.5l-.2-.2c-10.2-8.4-20.7-17.1-30-26.2a247.8 247.8 0 0 1-24.7-27.1 167.5 167.5 0 0 1-23.8-41.5l-5.7-14.6c-3.3-8.4-6.6-17-10.5-25.3-2.3-4.8-4.7-9.4-7.2-13.8-2.4-4.4-5-8.7-7.4-12.8l-4.3-7.3-2.6-4.5-2.6-4.6a200.1 200.1 0 0 0-24.3-16.2c-14.5-8.8-28.9-16-42.7-21.5a185 185 0 0 0-39.3-11.3 133.1 133.1 0 0 0-31.1 8.4 161.5 161.5 0 0 0-45.5 27.9 225 225 0 0 1-19.9 15 71.8 71.8 0 0 1-15 7.8 49.4 49.4 0 0 1-40.4-5 36.7 36.7 0 0 1-13.3-13.8l-2-3.7-3-5.4c-1-1.7-2.2-3.3-3.6-4.8-1.1-1-2.3-2-3.5-2.7-1.2-.8-2.4-1.4-3.8-1.8a48 48 0 0 0-23.5 0c-8.3 1.7-16.7 4.8-24.6 8a417.6 417.6 0 0 0-31 14.2c-20.2 9.8-39.8 19.9-57.6 31.5-17.9 11.7-34 25-47.2 41.6-8 10-14.8 20.8-21.3 31.3-4 6.4-8 12.9-12.3 19.2a180.8 180.8 0 0 1-19.6 24l-6 5.7a233.1 233.1 0 0 1-28.2 21.1c-9.9 6.6-20.2 12.6-30.3 18.6l-.4.2c-8.9 5.2-18 10.6-26.7 16.1-12.1 7.9-25 16.8-36.8 28a142.9 142.9 0 0 0-30.7 40.7c-7.5 15.2-12 32-16.2 48.3-5.2 20-10.6 40.4-21.6 58-2.2 3.4-4.6 6.8-7 10-2.5 3.3-5 6.4-7.6 9.5-3.1 3.9-6.3 7.8-9.3 11.9-3 4-5.8 8.3-8.2 12.7-10.8 20.1-12.6 43.6-14.3 66.4-1 12.5-1.9 25.4-4.3 37.8-6.4 32.3-23 61.3-38.9 89.4l-10.1 18c-3.3 6.1-6.6 12.2-9.6 18.3v.1c-5.7 11.4-10.1 22.7-13.3 33.7a142 142 0 0 0-5.6 31.6c-.7 13.2.8 25.5 4.5 36.6a84.3 84.3 0 0 0 17.4 30.1c9.1 10.2 21 18.5 32.4 26.6 17.5 12.2 35.6 24.9 43.7 44.3a62.9 62.9 0 0 1 2.2 6.2c3.2 10.8 4 22.7 4.8 34.3.7 10.8 1.4 21.4 3.9 30.6a38.7 38.7 0 0 0 15 22.8c8.6 6 19.3 7.4 29.7 8.8l1.8.2c22.2 3 44.1 9.2 65.1 18.4a267.3 267.3 0 0 1 74.7 49.2c4.8 4.4 9.6 9 14.3 14l3.8 4 3.8 4c5.2 5.5 10.5 11.1 16.2 16.4 5.6 5.3 11.5 10.3 18 14.5 9 5.8 18.6 9.5 27.7 10.9 9.2 1.3 17.8.4 24.8-3 2.5-1.2 4.8-2.7 6.8-4.3 2.1-1.6 4-3.3 5.8-4.8l2-1.8c5.2-4.7 10.5-9.5 17.5-12.2a33.5 33.5 0 0 1 15.6-2.2zm110 69.3l-1-.1-1.1-.2c-21.7-2.7-38-19-53.7-34.8l-5.7-5.7a102.8 102.8 0 0 0-33.7-23.6 40.8 40.8 0 0 0-30-1.7 39.6 39.6 0 0 0-9.2 5.2 119 119 0 0 0-8 6.8l-2 1.8a90 90 0 0 1-5.8 4.9 43.3 43.3 0 0 1-7 4.3c-7.2 3.5-16 4.5-25.3 3.2a71.9 71.9 0 0 1-28.2-11c-6.6-4.3-12.6-9.3-18.2-14.7-5.7-5.3-11-11-16.3-16.5v-.1l-7.6-8a312.5 312.5 0 0 0-29-26.5c-18.6-15-38.7-27.1-59.6-36.3-21-9.2-42.7-15.4-64.9-18.3l-1.7-.3a66.1 66.1 0 0 1-30.2-9c-16.6-11.6-18-32.2-19.4-54.1-.4-5.8-.8-11.6-1.5-17.4a99.6 99.6 0 0 0-5.4-22.7 70.9 70.9 0 0 0-18.1-24.6c-7.6-7.1-16.5-13.3-25.2-19.4-11.5-8-23.4-16.4-32.6-26.7-8-9-14-19.2-17.7-30.4a101 101 0 0 1-4.5-37.1 143 143 0 0 1 5.7-31.7 206 206 0 0 1 13.2-34A1318.8 1318.8 0 0 1 374 844c16-28 32.5-57 38.8-89.1 2.4-12.3 3.4-25.2 4.3-37.6 1-11.5 1.8-23.1 3.8-34.4 2-11.4 5.2-22.3 10.7-32.5 4.8-9 11.3-17 17.6-24.8l7.5-9.4a135.2 135.2 0 0 0 19.9-37.9c3.3-9.8 6-19.8 8.6-29.7 4.3-16.4 8.7-33.3 16.3-48.5 8.1-16.5 19-29.9 30.9-41.1a249.7 249.7 0 0 1 37-28c8.6-5.6 17.8-11 26.6-16.2l.4-.3c10.1-5.9 20.4-12 30.3-18.4a233.8 233.8 0 0 0 34-26.8 149 149 0 0 0 19.5-23.9c4.3-6.2 8.3-12.7 12.2-19h.1c6.6-10.6 13.3-21.5 21.3-31.5a199 199 0 0 1 47.4-41.7c18-11.8 37.6-21.8 57.7-31.7a678.8 678.8 0 0 1 31.2-14.2c8-3.2 16.5-6.3 24.8-8a48.7 48.7 0 0 1 24 0 20.2 20.2 0 0 1 7.7 4.8c3 3 4.9 6.6 6.8 10.4a36.2 36.2 0 0 0 14.8 17 49.8 49.8 0 0 0 39.6 5c4-1.3 9.2-4.1 15-8a211 211 0 0 0 19.6-14.6 197.2 197.2 0 0 1 15.2-11.6c9.9-6.7 20.2-12.3 30.6-16.5a134 134 0 0 1 31.4-8.5h.2c12.3 2 25.7 5.8 39.5 11.3a297.5 297.5 0 0 1 55 29.2c4.2 2.7 8.3 5.6 12.5 8.8.6.5 2.2 3.9 2.7 4.8 1 1.5 1.8 3 2.7 4.6l2 3.6 2.2 3.7c5 8.3 10.1 17 14.7 26.7 4 8.2 7.2 16.9 10.4 25.2l.1.2c3.7 9.6 7.5 19.5 12.2 28.8 4.6 9 10.3 18 17.1 27 7 8.9 15.1 17.8 24.6 27 9.3 9 19.8 17.7 30 26.1l.2.2c25.7 21.5 52.3 43.6 64.4 73a98 98 0 0 1 4.8 15.4c2.3 10 2.6 20.3 2.1 30.6s-2 20.6-3.4 30.7c-.9 6.1-1.8 12.4-2.5 18.7-.6 6.2-1.1 12.5-1.2 18.7 0 6.6.4 12.8 1.3 18.6 1 5.8 2.4 11.2 4.3 16.4 5.3 14.1 14.5 26.2 24.9 36.5a218.9 218.9 0 0 0 31.3 25c14.6 9.8 31 21 33.4 38.3a35.2 35.2 0 0 1-5.6 23.3 104 104 0 0 1-17.1 20.2l-10 9.6-19.7 18.9c-3.3 3-6.6 6.2-9.9 9.5a97.8 97.8 0 0 0-12 13.4 32.2 32.2 0 0 0-6.2 15.5 27.1 27.1 0 0 0 4.6 18.1c3.1 4.8 7.6 9 12.9 13a226 226 0 0 0 17.4 11.2 411.2 411.2 0 0 1 15.3 9.7c6 4.2 10.8 8.4 14.5 12.7a42 42 0 0 1 8 13.2 35 35 0 0 1 2.3 11.7c0 4-.6 8-1.8 12.2a69.6 69.6 0 0 1-5.4 12.5c-2.2 4-4.7 8-7.2 11.9l-2.4 3.8c-8.6 13.2-17.4 26.9-18.7 41.7-.5 5.3 0 10.5 1 15.7 1 5.1 2.5 10.1 4 15.1 2.5 8.6 5.2 17.5 5.3 26.7.1 8.3-1.9 16.4-5.8 24.1-3.9 7.8-9.8 15-17.6 21.7a112.2 112.2 0 0 1-23 15.1c-8.6 4.3-18 7.7-27.7 10.1-5 1.3-10.2 2.4-15.4 3.4l-15.5 3c-26.1 4.7-53.2 9.6-74.7 24.8a88.7 88.7 0 0 0-22.8 24 76 76 0 0 0-12.2 35.2v.1a37 37 0 0 1-5.2 18.3 25.9 25.9 0 0 1-6.8 6.3 63.8 63.8 0 0 1-8 4.4 266 266 0 0 1-73.3 23 285 285 0 0 1-20.2 2.5c-9.5.9-19.4 1.3-29 1.7-15 .6-30.3 1.3-45 3.7a113 113 0 0 0-41.4 14.5c-5.4 3.3-10.5 7.2-15.4 11.3-5 4.2-9.9 8.7-14.7 13-9.7 9-19.3 17.7-29.4 24a54 54 0 0 1-33.4 8.9zm-231 60a22.8 22.8 0 0 1 3.2.4 47 47 0 0 1 7 1.6c8.3 2.8 17.3 8 26.8 14.4 9.4 6.5 19.2 14.3 29.2 22.4a178.9 178.9 0 0 0 32.4 22 57 57 0 0 0 35 6.1c10-1.6 18.5-6.5 27.6-11.6l2.8-1.6a505.8 505.8 0 0 1 67.3-32 273 273 0 0 1 58.6-15.6c22.7-3.3 46.3-3.1 69.4-1.1 23 2 45.8 5.7 66.7 9.6l3.3.6c7 1.3 14.2 2.7 21.4 3.7 7.2 1 14.5 1.8 21.7 1.8a109 109 0 0 0 23.5-2.3c14.6-3.3 27.5-10 38.7-18a166.6 166.6 0 0 0 35-35 280.5 280.5 0 0 0 21.1-32.6c2-3.9 4-8 5.5-12.4 3.2-8.8 4.8-18.5 6.4-27.9l2-11.2c2.4-12.2 6.6-23.9 12.4-34.4a102.8 102.8 0 0 1 74.9-53.5c16.1-3.1 32.8-3.3 48.9-3.4l8-.1c21.7-.3 39.4-3.3 53.4-8.9 14-5.6 24.3-14 31-25a44 44 0 0 0 5.4-13.3c2.8-11.3 1.5-23 .3-35.5a119.8 119.8 0 0 1 2.7-52.9c2.3-8.6 5.1-17 8-25.2l3.5-10.5 3.3-10.6a121 121 0 0 0 3.6-16.6c.7-5.1.9-9.9.6-14.5a91.8 91.8 0 0 0-3.6-20.3c-1.8-6.2-4-11.8-6.1-17.2-2.6-6.6-5-12.8-6.4-19.1a42 42 0 0 1 4-30 50 50 0 0 1 10.9-13.3c4.5-4.1 9.7-8 15.4-12 8.8-6.3 16.8-12 24.4-17.9a381 381 0 0 0 21.8-17.6c3.6-3.3 6.8-6.3 9.5-9.3 2.8-3 5.2-5.8 7.4-8.8 3.4-4.8 5.8-9.4 7.1-13.9 1.4-4.4 1.6-8.6.8-12.7-.7-3-2-5.5-3.4-7.8a38.6 38.6 0 0 0-4.5-5.6 76 76 0 0 0-16.4-12.6c-6-3.7-12.6-6.9-19-10l-2.6-1.3a224 224 0 0 1-15.7-8.4 130.2 130.2 0 0 1-38.3-35.5 109 109 0 0 1-14.2-27.7c-10.5-31-5.5-61.4-3.6-72.9l2-11.1 2-11.1c4.1-21.2 8.4-43 7.3-64.3a156.1 156.1 0 0 0-1-13 150 150 0 0 0-11.7-44.1 113.7 113.7 0 0 0-23.5-34.3c-16.5-16.7-37.7-27.6-58.2-38.2l-.6-.3-7.7-4c-38.8-20.3-70.6-50.2-98.7-84.5-28-34.3-52.5-73-76.5-111.1l-9.8-15.6a410.6 410.6 0 0 0-21-30c-7.7-7.1-15.2-12.8-22.8-17.1a80.2 80.2 0 0 0-23.3-8.8c-15.7-3.3-31.4-1.5-46.5.3l-6.1.6-6.2.7c-8.7.8-17.3.8-25.7.3-8.4-.4-16.6-1.2-24.7-2h-.1a215 215 0 0 0-49.8-1.1 191.4 191.4 0 0 0-75.2 27.1 373 373 0 0 1-17.6 10.7 110 110 0 0 1-17 8 65 65 0 0 1-20.8 3.6 55.4 55.4 0 0 1-25.6-6 34.3 34.3 0 0 1-8-6l-2.5-2.7c-2.4-2.5-4.9-5-8-7-9-5.9-22.6-6.7-37-5.5-14.4 1.3-29.7 4.7-41.8 7.4l-1.1.2-9 2c-23.5 4.7-44 11-61.9 19-17.8 7.8-33 17.4-45.7 28.6-5.7 5-10.8 10.4-15.9 16.1-5 5.7-9.9 11.6-14.9 17.7l-9.8 11.9a353.8 353.8 0 0 1-43.7 43c-11.6 9.9-23.5 19.2-35.3 28.4a882.2 882.2 0 0 0-43.5 35.3 290 290 0 0 0-38.6 40.6 736.8 736.8 0 0 1-19.7 24.6c-6.6 8-13.2 15.6-19.7 23.1-9 10.6-18 20.9-26.6 31.5a535.2 535.2 0 0 0-32.4 44.3c-6.3 9.8-11.2 19-15.1 28-3.9 9-6.6 17.7-8.4 26.5a164 164 0 0 0-2 42 540 540 0 0 0 5 43l1 7.2 3 23.9a252 252 0 0 1-3.6 82.2 272 272 0 0 1-18 54.8c-4.2 9.6-9 19.1-13.8 28.4-3.1 6-6.3 12.2-9.3 18.5a295 295 0 0 0-8.4 18.8v.1c-8.5 21.3-12.5 43-12 62.7A91.2 91.2 0 0 0 254 1016c2.5 3.4 5.2 6.5 8 9.6l9.2 9 4.5 4.5a246 246 0 0 1 10.5 11.2c9.5 11 17.8 23 24.5 35.4a173.2 173.2 0 0 1 19 54.8 131.5 131.5 0 0 1 1.2 30.9c-.2 5-.6 10-.9 14.9-.8 11.8-1.6 24-1 35.7.6 8.6 2.3 19 6.7 28.7a47.2 47.2 0 0 0 32.4 27.7 69.5 69.5 0 0 0 21.4 1.6c5.6-.3 11-.8 16.3-1.3 7.7-.7 15.2-1.4 22.6-1.6 7.4-.2 14.8 0 22.4 1.4 11 1.8 21.6 6.2 31.5 11.5 9.8 5.3 18.7 11.6 26.5 17.3a470 470 0 0 1 25.5 20.3 347.5 347.5 0 0 1 31 30c3 3.2 5.8 6.4 8.3 9.3l3.5 3.8c3.3 3.8 6.6 7.6 10 11.2 3.4 3.8 6.9 7.4 10.4 10.8 7.5 7.4 15.4 13.5 23 18a59.5 59.5 0 0 0 21 8.4c2.5.4 4.7.5 6.9.5s4.3-.2 6.5-.4a122.5 122.5 0 0 1 11.8-.1zm121 68.5c-10-.8-19.3-4.4-28.5-9.7-9.2-5.2-18-12-27-19.2-9.9-8-19.7-15.8-29-22.3a111.3 111.3 0 0 0-30-15.2l-3.5-.7a62 62 0 0 0-14.7-.2c-4.5.3-8.6.6-13.6 0-6.4-1-13.7-4-21.4-8.6a129 129 0 0 1-23.3-18.2c-7-7-13.9-14.6-20.4-22l-3.5-4a715.4 715.4 0 0 0-17.8-19.2 342.4 342.4 0 0 0-21.4-19.9 458.6 458.6 0 0 0-25.5-20.2c-7.6-5.7-16.6-12-26.3-17.3-9.8-5.2-20.3-9.5-31.2-11.4-7.5-1.2-14.8-1.5-22.2-1.3-7.4.2-14.8.9-22.4 1.6l-8.2.7c-2.7.2-5.5.5-8.3.6-8 .5-15.2 0-21.7-1.7a47.7 47.7 0 0 1-33-28.2 82.2 82.2 0 0 1-6.8-29.1c-.3-6-.3-12 0-18 .1-6 .5-12 1-17.9.6-10.3 1.3-20 1-29.4a126 126 0 0 0-5-33 172.8 172.8 0 0 0-15.2-37.6 202.5 202.5 0 0 0-27.4-38.5l-3-3.3-4.5-4.6-4.5-4.4-9.1-9c-3-3.2-5.7-6.3-8.1-9.8a92.3 92.3 0 0 1-15-51.1c-.5-20 3.5-41.8 12.1-63.2a305 305 0 0 1 8.5-19c3-6.3 6.1-12.4 9.2-18.5 4.7-9.2 9.6-18.8 13.9-28.3 8-18 13.9-36.2 17.7-54.6a251.1 251.1 0 0 0 3.6-82c-.8-8.3-1.9-16.4-3-23.8l-1-7c-2-14.4-4.1-28.9-5-43.2a165 165 0 0 1 2.2-42.3c1.7-8.9 4.5-17.7 8.4-26.7a199 199 0 0 1 18.5-33.2 421 421 0 0 1 3.8-5.6c16.6-24.1 33.8-44 52-65.3 6.5-7.5 13-15.1 19.6-23 6.6-8 13.2-16.1 19.7-24.6 22.8-29.8 53-53.4 82.3-76.2 23.6-18.3 47.9-37.2 68.4-59.4 7.1-7.7 13.7-15.6 20-23.4l.3-.3c5-6.1 9.9-12 15-17.7 5-5.7 10.2-11.1 15.9-16.2a176 176 0 0 1 46-28.8c17.9-8 38.5-14.3 62-19.1l9.2-2 1-.2c24.4-5.4 61.3-13.6 79.6-1.8 1.6 1 3 2.3 4.4 3.5a82 82 0 0 1 3.8 3.8 62 62 0 0 0 5.3 5 33 33 0 0 0 10.7 6.1 54.4 54.4 0 0 0 19.3 3.2c6.8 0 13.8-1.2 20.4-3.5 5.2-1.8 11-4.7 17-8 5.9-3.3 11.8-7 17.4-10.6 11-7.1 23.2-13 35.9-17.6a194 194 0 0 1 39.8-9.7c8.2-1.1 16.4-1.3 24.7-1 8.3.4 16.7 1.3 25.4 2.1 8 .8 16.3 1.6 24.7 2a183 183 0 0 0 31.6-1l6.2-.6c7.6-.9 15.3-1.8 23.1-2 7.9-.3 15.8 0 23.7 1.7a81 81 0 0 1 23.6 9c7.7 4.3 15.4 10 23 17.2 3.3 4 6.6 8.5 10.1 13.5s7.2 10.4 11.1 16.7l9.8 15.6c24 38 48.4 76.7 76.4 111 28 34.2 59.8 64 98.4 84.2l7.7 4 .6.4a451.1 451.1 0 0 1 30.7 16.8 150 150 0 0 1 27.8 21.5c9.8 9.9 17.7 21.4 23.7 34.6a151.3 151.3 0 0 1 12.4 51.1l.4 6.4c1 21.4-3.2 43.4-7.3 64.6-1.3 7.3-2.8 14.8-4 22.2-1 5.7-2.7 16.1-2.9 29-.1 12.8 1.2 28 6.4 43.4 3.3 9.6 8 18.8 14 27.4a128.9 128.9 0 0 0 53.7 43.6l2.5 1.2c13 6.3 26.4 12.9 35.8 22.9a39 39 0 0 1 4.6 5.7 24.4 24.4 0 0 1 2.8 21.4 47.6 47.6 0 0 1-7.4 14.3c-2.1 3-4.5 5.8-7.4 8.9-2.8 3-6 6-9.6 9.3-7 6.2-14.2 11.9-21.8 17.7-7.6 5.8-15.7 11.6-24.5 17.9-5.6 4-10.8 7.8-15.2 11.9a48.7 48.7 0 0 0-12.9 18c-.6 1.6-1.2 3.4-1.6 5.3-3.4 13.4 1 24.8 6.2 38 4.2 10.6 8.9 22.8 9.8 37.7.3 4.7 0 9.5-.6 14.7a122 122 0 0 1-3.7 16.8c-2 7-4.4 14.1-6.8 21v.1c-2.8 8.3-5.7 16.6-8 25.1a117.3 117.3 0 0 0-3.9 39.5c.3 4.4.8 8.8 1.2 13 1.3 12.6 2.6 24.4-.2 36a50.4 50.4 0 0 1-5.5 13.5 62.5 62.5 0 0 1-31.5 25.5c-14.1 5.7-32 8.7-53.9 9h-8c-8 .1-16.2.2-24.4.7-8.1.4-16.3 1.2-24.3 2.8-10.5 2-20.2 5.3-29 9.6-9 4.3-17 9.7-24.2 16.2a102.5 102.5 0 0 0-21 27.1 120.4 120.4 0 0 0-13.3 39.7l-1 5.6c-1.5 9.4-3.2 19.2-6.3 28a94.3 94.3 0 0 1-5.6 12.6c-2 3.8-4.3 7.5-6.4 11a366.7 366.7 0 0 1-14.8 21.8 168.4 168.4 0 0 1-35.3 35.2 107.9 107.9 0 0 1-50.5 20c-4 .4-8 .6-12.3.5-7.3 0-14.6-.8-21.8-1.8-7.3-1-14.5-2.4-21.5-3.8l-3.3-.6c-20.9-3.9-43.5-7.6-66.6-9.5-23-2-46.5-2.2-69.1 1a272.5 272.5 0 0 0-58.4 15.6 505.6 505.6 0 0 0-67.2 32l-2.7 1.5c-4.4 2.5-8.9 5-13.5 7.2a58 58 0 0 1-21 5.3c-2.1 0-4.2 0-6.3-.2zm-420.5-139.4c8.7.7 17.2 3.5 25.4 7.3 8.2 3.9 16.2 8.8 23.9 13.8 8.9 5.8 17.7 11.5 26.2 17.5A296 296 0 0 1 477 1415a198.2 198.2 0 0 1 19.3 22.5 625.5 625.5 0 0 1 21.7 32.8l10.3 17 4.7 8a1275 1275 0 0 0 15.3 24.6 303 303 0 0 0 11.6 16.4l2.4 3.2 2.7 3.4c7.3 9.2 15.7 17.9 24.5 25.6 8.8 7.6 18 14.3 27 19.4a97.5 97.5 0 0 0 39 13 68.6 68.6 0 0 0 35.8-6.2c9.4-4.3 17.8-10.9 26-17.2l5.6-4.3 5.8-4.3a201.8 201.8 0 0 1 91.5-34c31-4.1 61.2-2.6 85.6-.4a858 858 0 0 1 89.7 13.3 959.6 959.6 0 0 1 91.2 23.2l4 1.2a238.3 238.3 0 0 0 56.8 12.6 101 101 0 0 0 31-3.4c17.4-5 33.7-16.3 47.6-32.3a180 180 0 0 0 33.8-60.7 313.3 313.3 0 0 0 10.2-36.6 1041 1041 0 0 0 7.8-36l.6-3c3.2-16.1 6.6-33 11.5-49.1a179 179 0 0 1 14.8-34.8c6-10.8 13-20.6 20.6-28.9 7.7-8.3 16-15.2 25-20.5 8.8-5.3 18-9 27.6-11 10-2.1 20.2-2.4 30-1.7 10 .7 19.7 2.4 28.6 4l7 1.4c33.3 6.3 64.7 12.3 90.5-8.5a61.8 61.8 0 0 0 10.8-11.2c6.6-8.8 10.6-19 13.2-29.9 2.5-10.8 3.6-22.2 4.5-33.3l1.4-22v-.3c.6-9.3 1.2-18.8 2-28 .7-9.4 1.7-18.6 3-27.5a254.3 254.3 0 0 1 6.8-32.2c5-18.5 11.4-34.8 19.7-49a146.4 146.4 0 0 1 39.6-45c4.9-3.7 10.1-7.2 15.5-10.5 5.4-3.4 11-6.5 16.3-9.6l.6-.4c9.7-5.5 18.5-10.7 26.8-16.1 8.1-5.4 15.7-11 22.7-17.3a124.4 124.4 0 0 0 17-19c2.8-4 5.7-9.2 7.2-14.7 1.2-4.1 1.5-8.5.2-12.6-.9-3-2.5-5.5-4.5-7.7-2-2.3-4.3-4.2-6.5-5.8-5.8-4.5-12.3-8-19-11-6.8-3-13.9-5.6-20.8-8.2l-6-2.2c-5.9-2.2-12.3-4.7-18.5-7.7-6.4-3.1-12.6-6.8-18.2-11.5a127.5 127.5 0 0 1-39.9-58.5 147.6 147.6 0 0 1-6.8-39.4 163 163 0 0 1 3.7-41.4v-.3c3-13.5 6.8-27 10.4-40 5.2-18 10.5-36.7 13.3-55.4a620.7 620.7 0 0 0 2-14.7c1.9-14.2 3.3-31.6 1.4-48.8-1.8-17.1-7-34-18.3-47.4a83 83 0 0 0-29.8-21.4 275.3 275.3 0 0 0-35.8-12.4l-1.6-.5-12-3.6C1421.8 411.4 1348.7 310.6 1278 213a4929 4929 0 0 0-45.6-61.8 427.5 427.5 0 0 0-19.3-23.6c-6.1-6.8-12-12.8-17.8-18.2-12-10.7-24-18.7-36-24.1a94.5 94.5 0 0 0-36.7-8.6c-22-.6-44 7-65.3 14.3h-.1l-12.8 4.4-12.8 4c-29.3 8.3-57.4 6-84.4 3.9-11.6-1-22.7-1.9-33.8-2-11-.1-22 .5-33.1 2.7a513.5 513.5 0 0 0-35.2 8.3c-11.4 3.1-22.5 6.4-33.5 9.7l-1 .3c-5.1 1.5-10.8 3.1-16.6 4.6a168.6 168.6 0 0 1-54.2 6.2c-1.9 0-3.8-.2-5.8-.4a194.9 194.9 0 0 1-10-1.2l-8.8-1.2-4.6-.6c-12.5-1.5-26.2-2-40.2-2-13.9-.1-28 .3-41.1.8-21.4.9-40.4 2.9-57.5 6.2-17.2 3.4-32.6 8-46.8 14.2-10.1 4.3-20 9.6-29.6 15.8a248.6 248.6 0 0 0-28.7 21.7c-23.8 20.7-44 46-63.7 70.5v.1c-9 11-18 22.4-27.4 33.3a397 397 0 0 1-29.7 31.3c-10.3 9.6-21.6 18-33.3 25.7-11.6 7.8-23.7 14.9-35.6 21.9-32.3 19-62.9 37-84.7 65.8a134.3 134.3 0 0 0-23 47.6c-3.2 12-4.8 25-4.8 38.9-.1 17.4 2.2 35 5.8 52.6 3.5 17.6 8.2 35.2 12.8 52.5l3 11a624 624 0 0 1 13 62.5c3.9 27 4.9 52.2 3 76a258 258 0 0 1-22.2 87.4l-8.8 19.5c-6.8 14.7-13.9 30-19 45.5-3.8 12-6.3 24.4-7.3 36.6-1 12.3-.6 24.4 1.5 35.8a98.8 98.8 0 0 0 11.6 33 70.7 70.7 0 0 0 21.2 23c5.8 3.9 12.4 7 18.7 10 7.6 3.6 15.5 7.3 22.3 12.6a59.7 59.7 0 0 1 7.8 7.1 72.3 72.3 0 0 1 13 19.9c3.3 7.6 5.8 16.2 7.3 25.6 1.2 8 1.8 16.7 1.6 25.7-.1 9-1 18.4-2.6 27.8-1.1 6.8-2.5 13.6-4 20.5l-5 20.8-.4 1.4c-6 24.3-12.3 49.5-11.5 74.3.4 11.1 3 22.1 7.4 32a73.6 73.6 0 0 0 17.7 25.3 51.9 51.9 0 0 0 20.6 11.7c7.4 2 15.2 2.3 23 .6 10-2.1 19.4-7 28.5-11.6 10-5.2 20.4-10.5 31.6-12.1a53.6 53.6 0 0 1 12.2-.4zM656 1602a86 86 0 0 1-19.8-4.1c-6.7-2.2-13.4-5.2-20.2-9a167 167 0 0 1-27.2-19.6 199 199 0 0 1-24.6-25.7l-2.7-3.4-2.5-3.2c-4.1-5.5-8-11-11.6-16.5-3.6-5.5-7.1-11.2-10.8-17.2l-4.5-7.5-4.7-7.9-10.3-17a622.2 622.2 0 0 0-21.6-32.8 203.7 203.7 0 0 0-29-31.4 299 299 0 0 0-24.4-19c-8.4-6-17.2-11.7-26.1-17.5-9.4-6.1-19.2-12-29.3-16a60 60 0 0 0-31.5-4.6c-11 1.7-21.2 7-31.2 12a120 120 0 0 1-28.7 11.8c-8 1.7-16 1.4-23.5-.7a53 53 0 0 1-21.2-12 74.6 74.6 0 0 1-18-25.5c-4.3-10-7-21.2-7.3-32.4-.5-12.5.9-25 3.1-37.6 2.2-12.5 5.3-24.9 8.4-37l.3-1.4c1.8-7 3.4-14 5-20.8 1.5-7 3-13.7 4-20.5 2-12 4.6-34.8.2-57.4a81.9 81.9 0 0 0-22.9-44.3 68 68 0 0 0-3.9-3.3 119 119 0 0 0-22.1-12.5c-3.2-1.5-6.5-3-9.7-4.7a72 72 0 0 1-30.7-28.7c-5.6-9.6-9.6-20.8-11.8-33.4-2-11.5-2.5-23.7-1.5-36 1-12.4 3.5-24.9 7.4-37 2.6-7.8 5.6-15.5 8.9-23a779 779 0 0 1 10-22.6c3-6.3 6-12.8 8.9-19.4a257.5 257.5 0 0 0 22.2-87.1c1.8-23.7.8-48.8-3-75.7A482.3 482.3 0 0 0 185 638l-3-11c-4.6-17.3-9.3-35-12.8-52.6a265.2 265.2 0 0 1-5.8-52.8c0-14 1.7-27 4.8-39.2a134 134 0 0 1 23.3-47.9 182 182 0 0 1 39-37.1c14.7-10.7 30.4-20 46-29 11.8-7 23.9-14.1 35.5-21.9a255 255 0 0 0 33.2-25.6 596.7 596.7 0 0 0 57-64.5 1098 1098 0 0 1 30.3-36.8 358 358 0 0 1 33.5-34c9.6-8.3 19.1-15.5 28.8-21.7 9.7-6.3 19.6-11.6 29.8-16a227.8 227.8 0 0 1 47-14.1c17.2-3.4 36.2-5.4 57.6-6.2 13.2-.5 27.3-1 41.3-1a357 357 0 0 1 44.9 2.7l5.3.8a332.5 332.5 0 0 0 19.2 2A150.9 150.9 0 0 0 776 130c6-1 12-2.4 17.8-4 5.8-1.4 11.4-3 16.5-4.6l1.4-.4A734.3 734.3 0 0 1 880 103c22.2-4.3 44-2.6 67-.7h.2c27 2.2 54.8 4.4 84-3.9a361 361 0 0 0 25.5-8.3c10.7-3.7 21.6-7.4 32.6-10.2a123 123 0 0 1 33.2-4.2c12.6.3 24.9 3.2 37 8.7a144.9 144.9 0 0 1 36.4 24.3c5.9 5.4 11.8 11.4 17.9 18.3 6.1 7 12.5 14.7 19.4 23.7l23 30.7 22.6 31c70.6 97.4 143.6 198 256 233.8l12.6 3.8 1 .3c24.4 7.2 49.6 14.7 66 34a87.3 87.3 0 0 1 18.6 48c1.9 17.3.4 34.8-1.4 49.2l-1 7.3-1 7.4c-2.9 18.7-8.2 37.4-13.3 55.5l-5.5 19.8c-1.8 6.7-3.5 13.4-5 20v.4c-1.4 6-4.3 21.5-3.6 41.2.5 11.9 2.4 25.3 6.8 39a124.1 124.1 0 0 0 39.5 58 89.9 89.9 0 0 0 18 11.4c6.2 3 12.5 5.5 18.4 7.7l6 2.2c7 2.6 14 5.1 20.8 8.2a100 100 0 0 1 19.3 11c2.3 1.8 4.6 3.8 6.7 6 2 2.4 3.7 5 4.7 8.2 1.3 4.3 1 8.8-.2 13.1-1.5 5.6-4.6 11-7.5 15.2a101.5 101.5 0 0 1-17 19c-7.1 6.5-14.7 12-23 17.5a528.2 528.2 0 0 1-26.8 16.2l-.6.3a289.9 289.9 0 0 0-36.5 24l-4.9 4.1a145.5 145.5 0 0 0-29.6 36.6 200.5 200.5 0 0 0-19.6 48.8 347.4 347.4 0 0 0-6.7 32 414 414 0 0 0-3 27.4c-.8 9.3-1.4 18.8-2 28v.3l-1.4 22c-.9 11.3-2 22.7-4.6 33.7a80.3 80.3 0 0 1-13.3 30.1 61.3 61.3 0 0 1-11 11.4c-26.3 21.2-57.9 15.1-91.4 8.7l-7-1.3c-8.9-1.7-18.5-3.3-28.4-4-9.8-.7-20-.5-29.8 1.6-9.4 2-18.6 5.7-27.4 11-8.7 5.2-17 12-24.6 20.2-7.7 8.3-14.6 18-20.5 28.7a179 179 0 0 0-14.6 34.6c-2.5 8-4.6 16.3-6.4 24.5-1.9 8.3-3.6 16.5-5.2 24.6l-.5 2.8a1760.2 1760.2 0 0 1-7.8 36.2 460 460 0 0 1-10.2 36.7c-3.8 10.9-8.3 21.3-13.5 31a169.2 169.2 0 0 1-17.5 26.5 122.2 122.2 0 0 1-24 22.9 91.1 91.1 0 0 1-58.6 16.6c-9.7-.5-19.4-2.2-28.9-4.5-9.6-2.3-19-5.2-28.3-8.1l-3.8-1.2c-30.5-9.3-61-17-91.1-23.2-30.2-6-60.2-10.5-89.6-13.2l-4.3-.4c-49.4-4.2-85.8-.2-113.1 7.1a177.5 177.5 0 0 0-70.3 36c-8.3 6.4-16.8 13-26.2 17.4a69 69 0 0 1-35.8 6.3zm275.2 120.7c-6.7-.6-13.3-2-19.7-3.6-6.3-1.6-12.3-3.6-17.9-5.3-6.9-2.2-13.9-4.6-20.8-7l-21-7.1c-43.6-15.1-88.6-30.7-129.4-34.7-9.4-.9-18.6-1.1-27.4-.7a148.4 148.4 0 0 0-39.2 7.3c-4.6 1.4-9.1 3-13.6 4.5-9.4 3.2-19 6.5-28.9 8.5-10 2.1-20.3 3-31.3 1.6-10-1.3-20-4.6-30.5-9.9a184 184 0 0 1-33.1-22.5 344.2 344.2 0 0 1-27.7-25.5c-13-12.9-25-25.4-36.3-37.8a840.7 840.7 0 0 1-52.8-63.8l-19-25.3a291.2 291.2 0 0 0-21.4-26.7 122.8 122.8 0 0 0-18.7-16 109 109 0 0 0-20.3-10.3c-7.1-2.8-14.6-5.2-22.3-7.7-7.8-2.5-15.8-5-23.6-8.2a179.3 179.3 0 0 1-65.5-46.2 253.4 253.4 0 0 1-47.3-76.7 412.4 412.4 0 0 1-21-70.3c-5.6-26-9.6-54.6-12.3-87l-.8-9.6-.9-11.2-.7-10.4c-3.8-51.7-7.8-105.1-21-153.7a556.9 556.9 0 0 0-3.2-10.6c-3.6-12-7.9-23.6-12.3-34.5a800 800 0 0 0-13-30.6l-2.7-5.8-1.1-2.6c-3.8-8.7-6.8-15.5-8.6-21a26 26 0 0 1-1.7-13.1c.7-3.5 2.8-6.4 6.5-9.2 3.6-2.9 8.9-5.7 16-9.4-8.2-20.7-25.1-34.5-41.4-47.8-16.9-13.8-34.2-28-41.5-49.6a79 79 0 0 1-2.2-40.4c2.8-14.9 9-31.3 18.8-49.8a320 320 0 0 1 16-27l4.3-6.3 4.1-6.2c19.6-29.1 39.9-59.2 43.7-95.5 1-9.3.8-18.8 0-28.4-.6-9.5-1.9-19.1-3.2-28.6l-.2-1.6c-1.4-11-2.7-21.1-3.2-30.8a131 131 0 0 1 1.4-28 102.8 102.8 0 0 1 29.6-57.1 167 167 0 0 1 23.4-19.6c9.2-6.4 20-13 32.8-19.8a836.5 836.5 0 0 1 33.2-16.6l.4-.1a441 441 0 0 0 57.1-30.8 120 120 0 0 0 40.8-43.4c3.9-7.4 6.8-15.4 9.6-23.1a434 434 0 0 1 4.1-11.2 100 100 0 0 1 27.8-40.9c9.6-8.6 21.3-16 34.9-22.2 11-5 23-9 36.2-12a282 282 0 0 1 42.2-6.6 1314 1314 0 0 1 29.4-2.1l5-.4c21.8-1.4 44.1-3 65.1-7.2A143 143 0 0 0 612.4 54c4.9-3.6 9.4-7.6 14-11.5 4.2-3.8 8.5-7.6 13.1-11 4.7-3.6 9.6-6.7 15.1-9a79.3 79.3 0 0 1 21.5-5.3 233 233 0 0 1 21.7-1.3l21.8-.6c19.5-.6 39.6-1.1 59.2-1.9 44-1.7 85.5-5.4 129.4-9.4l26.5-2.4C947.8.4 961 0 974.4 0c13.3 0 26.7.4 39.7.8l21.8.5c7.4.2 14.7.2 22 .2 13.1 0 25.6 0 37.6 1s23.7 2.7 35.3 6.2c35.2 10.5 64.5 35.8 92.8 60.2l.6.5a868 868 0 0 0 36.2 29.9 323 323 0 0 0 36.8 24.8c6.9 3.9 14 7.5 21.2 10.9 7.1 3.4 14.3 6.6 21.4 9.7h.1a351 351 0 0 1 59 31c34 23.6 60.3 55.6 85.8 86.6l8.8 10.6a2919 2919 0 0 1 76.3 95.6c14.3 18.6 28 37.8 41.2 56.4l6.4 9 6.3 8.9 13 17.9 7.5 10.3 6.7 9.3a572.8 572.8 0 0 1 43 68.5c11.3 21.8 20 42.7 26.1 63.6a236.3 236.3 0 0 1 7.4 47.6c.5 7.4.8 15 1.2 23 .3 9 .7 18 1.4 27.3a265.1 265.1 0 0 0 12.7 65.5 467.4 467.4 0 0 0 22.8 56.6l5.7 12.3c7.1 15 14 29.7 19.4 44.5 5.5 14.7 9.5 29.4 11 44.7a97.5 97.5 0 0 1-3 35 77 77 0 0 1-4.5 11.4c-6 12.2-13.7 23-22.3 33.2-8.6 10.2-18.1 19.8-28 29.7l-.2.3c-5.8 5.8-11.8 11.9-17.5 18a295.9 295.9 0 0 0-36.7 47.6 170.6 170.6 0 0 0-23 61.1 169.9 169.9 0 0 0-2.2 27.6v11.6c-.2 21-.2 41-9 58.3a66.5 66.5 0 0 1-6.8 10.7c-15.5 19.2-38.2 26-62.2 33-8 2.4-16.1 4.8-24 7.8a125 125 0 0 0-27.2 13.7 112.8 112.8 0 0 0-22.1 22.1c-5.4 7.2-10.4 14.8-15.4 22.3a232 232 0 0 1-24.6 33c-5.7 5.9-12 11-18.8 15.6-6.6 4.6-13.6 8.8-20.4 12.9-10 6-19.6 11.7-28 18.5a72.6 72.6 0 0 0-24 34.3c-5.5 17.4-3.4 35.9-1.4 53.7 1.1 9.3 2.1 18.4 2 27a54 54 0 0 1-5 23.6 39.2 39.2 0 0 1-8.6 11.6 43.2 43.2 0 0 1-31.3 10.8c-12-.1-25.5-3.1-40-6.8l-7.2-1.9c-29.7-7.7-60.5-15.6-81.7-2.4-8 5-13 11.8-18.3 19a73.8 73.8 0 0 1-21 21.6c-4.5 3.2-9.6 6-15.2 8.7-8.7 4-18.2 7.3-28 10.2-9.8 2.9-20 5.4-30 7.8l-1.4.3c-20.2 5-38.6 10-55.7 15.4-17 5.4-32.8 11-47.9 17.2l-9.1 3.8c-12 5-24.4 10.2-37.5 11.5a72.7 72.7 0 0 1-13.2 0z"/>
</svg>