<svg width="165" height="32" viewBox="0 0 165 32" fill="none" xmlns="http://www.w3.org/2000/svg">
<g clip-path="url(#clip0)">
<path d="M9.41338 31.2372H18.714H21.8432L22.6263 26.4129L23.4094 21.5982L21.7884 22.0623V21.1664L22.984 20.2705V16.5097L18.2048 18.005V16.8094L22.984 13.822V11.0086C22.984 10.5316 23.3997 10.1127 23.8799 10.1127C24.3568 10.1127 24.7758 10.5316 24.7758 11.0086V13.822L29.555 16.8094V18.005L24.7758 16.5097V20.2705L25.9714 21.1664V22.0623L24.3504 21.5982L25.1335 26.4129L25.9166 31.2372H28.8718H38.2304L47.7598 0.138568H37.3184L33.1515 13.6415L28.3594 0.0225525C23.4545 0.0225525 24.3021 0.0225525 19.4004 0.0225525L14.6631 13.5287L10.6122 0.138568H0L9.41338 31.2372Z" fill="white"/>
<path d="M70.6213 10.7572H73.3573L70.183 20.7378H67.7273L65.8937 14.6889L64.0567 20.7378H61.6011L58.4268 10.7572H61.1628L62.8579 16.8835L64.6755 10.7572H67.1086L68.9262 16.9028L70.6213 10.7572ZM76.5316 16.8029C76.8765 18.0565 77.8143 18.6817 79.345 18.6817C80.3312 18.6817 81.0756 18.3466 81.5815 17.6827L83.6569 18.8815C82.6708 20.3027 81.2206 21.0149 79.3063 21.0149C77.6563 21.0149 76.3318 20.5154 75.3328 19.5196C74.3338 18.5206 73.8375 17.2638 73.8375 15.7459C73.8375 14.2441 74.3273 12.9873 75.3135 11.985C76.2964 10.9796 77.5629 10.4768 79.1065 10.4768C80.5696 10.4768 81.7781 10.9828 82.7288 11.9947C83.6795 13.0066 84.1564 14.257 84.1564 15.7459C84.1564 16.0778 84.121 16.4323 84.0565 16.8029H76.5316ZM76.4897 14.8081H81.5815C81.4333 14.1313 81.1304 13.6254 80.6728 13.2902C80.2119 12.9583 79.6898 12.7939 79.1065 12.7939C78.4137 12.7939 77.84 12.968 77.3889 13.3224C76.9377 13.6737 76.638 14.17 76.4897 14.8081ZM88.0462 16.8029C88.3942 18.0565 89.332 18.6817 90.8628 18.6817C91.8457 18.6817 92.5901 18.3466 93.0961 17.6827L95.1715 18.8815C94.1886 20.3027 92.7384 21.0149 90.8209 21.0149C89.1709 21.0149 87.8464 20.5154 86.8506 19.5196C85.8516 18.5206 85.3521 17.2638 85.3521 15.7459C85.3521 14.2441 85.8451 12.9873 86.8312 11.985C87.8142 10.9796 89.0774 10.4768 90.6211 10.4768C92.0842 10.4768 93.2927 10.9828 94.2466 11.9947C95.1973 13.0066 95.671 14.257 95.671 15.7459C95.671 16.0778 95.6388 16.4323 95.5711 16.8029H88.0462ZM88.0075 14.8081H93.0961C92.9511 14.1313 92.6481 13.6254 92.1905 13.2902C91.7297 12.9583 91.2076 12.7939 90.6211 12.7939C89.9314 12.7939 89.3578 12.968 88.9066 13.3224C88.4522 13.6737 88.1525 14.17 88.0075 14.8081ZM106.67 20.7378H103.676L100.044 16.2067V20.7378H97.4692V6.76434H100.044V15.1465L103.476 10.7572H106.551L102.538 15.6879L106.67 20.7378Z" fill="white"/>
<path d="M119.393 13.2322H117.137V17.383C117.137 17.7278 117.224 17.9824 117.395 18.1403C117.569 18.3015 117.824 18.3917 118.155 18.411C118.487 18.4304 118.9 18.4271 119.393 18.4014V20.7378C117.624 20.9376 116.377 20.77 115.651 20.2383C114.926 19.7065 114.562 18.7526 114.562 17.383V13.2322H112.825V10.7572H114.562V8.73984L117.137 7.96317V10.7572H119.393V13.2322ZM123.943 12.4717C124.182 11.8336 124.578 11.3566 125.133 11.0344C125.684 10.7153 126.299 10.5574 126.976 10.5574V13.432C126.193 13.3386 125.49 13.4965 124.871 13.909C124.253 14.3215 123.943 15.0079 123.943 15.965V20.7378H121.368V10.7572H123.943V12.4717ZM135.68 10.7572H138.255V20.7378H135.68V19.5583C134.907 20.5315 133.824 21.0149 132.425 21.0149C131.094 21.0149 129.954 20.5058 129.003 19.4874C128.052 18.4723 127.575 17.2251 127.575 15.7459C127.575 14.2699 128.052 13.0227 129.003 12.0044C129.954 10.986 131.094 10.4768 132.425 10.4768C133.824 10.4768 134.907 10.9635 135.68 11.9335V10.7572ZM130.93 17.7729C131.449 18.2982 132.106 18.5593 132.906 18.5593C133.705 18.5593 134.365 18.2982 134.891 17.7729C135.416 17.2476 135.68 16.5709 135.68 15.7459C135.68 14.9209 135.416 14.2474 134.891 13.7221C134.365 13.1935 133.705 12.9325 132.906 12.9325C132.106 12.9325 131.449 13.1935 130.93 13.7221C130.411 14.2474 130.15 14.9209 130.15 15.7459C130.15 16.5709 130.411 17.2476 130.93 17.7729ZM147.156 10.7572H149.992L146.199 20.7378H143.263L139.473 10.7572H142.306L144.72 17.7407L147.156 10.7572ZM153.005 16.8029C153.35 18.0565 154.288 18.6817 155.819 18.6817C156.805 18.6817 157.549 18.3466 158.055 17.6827L160.131 18.8815C159.144 20.3027 157.694 21.0149 155.78 21.0149C154.13 21.0149 152.805 20.5154 151.806 19.5196C150.807 18.5206 150.311 17.2638 150.311 15.7459C150.311 14.2441 150.801 12.9873 151.787 11.985C152.77 10.9796 154.037 10.4768 155.58 10.4768C157.043 10.4768 158.252 10.9828 159.202 11.9947C160.153 13.0066 160.63 14.257 160.63 15.7459C160.63 16.0778 160.595 16.4323 160.53 16.8029H153.005ZM152.963 14.8081H158.055C157.907 14.1313 157.604 13.6254 157.146 13.2902C156.686 12.9583 156.163 12.7939 155.58 12.7939C154.887 12.7939 154.317 12.968 153.862 13.3225C153.411 13.6737 153.112 14.17 152.963 14.8081ZM162.425 20.7378V6.16493H165V20.7378H162.425Z" fill="white"/>
<path d="M110.212 21.2405C111.224 21.2405 112.045 20.4195 112.045 19.4068C112.045 18.3941 111.224 17.5731 110.212 17.5731C109.199 17.5731 108.378 18.3941 108.378 19.4068C108.378 20.4195 109.199 21.2405 110.212 21.2405Z" fill="#FFCA03"/>
</g>
<defs>
<clipPath id="clip0">
<rect width="165" height="31.2598" fill="white"/>
</clipPath>
</defs>
</svg>
