<svg width="48" height="16" viewBox="0 0 48 16" fill="none" xmlns="http://www.w3.org/2000/svg">
<path fill-rule="evenodd" clip-rule="evenodd" d="M16.8015 15.6636L19.2166 0.759521H23.077L20.6622 15.6636H16.8015Z" fill="#7E7E7E"/>
<path fill-rule="evenodd" clip-rule="evenodd" d="M34.665 1.12532C33.9017 0.826199 32.7013 0.5 31.2058 0.5C27.3891 0.5 24.7024 2.52257 24.6801 5.41874C24.6558 7.56104 26.5973 8.75578 28.061 9.46783C29.5653 10.1977 30.0707 10.6648 30.0647 11.3174C30.0543 12.3156 28.864 12.773 27.7541 12.773C26.2085 12.773 25.3873 12.5478 24.1177 11.9914L23.6212 11.7541L23.0813 15.0903C23.9815 15.5054 25.6503 15.8657 27.3822 15.8846C31.4385 15.8846 34.0742 13.8865 34.1051 10.7938C34.119 9.09497 33.0903 7.80734 30.8624 6.74422C29.5134 6.05309 28.6854 5.59526 28.6949 4.89576C28.6958 4.27638 29.3944 3.6132 30.9064 3.6132C32.1691 3.59295 33.0832 3.88305 33.7955 4.18592L34.1422 4.35628L34.665 1.12532Z" fill="#7E7E7E"/>
<path fill-rule="evenodd" clip-rule="evenodd" d="M39.8056 10.3796C40.1255 9.52289 41.3435 6.21358 41.3435 6.21358C41.3209 6.25298 41.6616 5.35032 41.8566 4.79169L42.1171 6.07711C42.1171 6.07711 42.8579 9.63449 43.0105 10.3796C42.4095 10.3796 40.5594 10.3796 39.8056 10.3796ZM44.5677 0.77478H41.5843C40.6589 0.77478 39.9663 1.03847 39.5609 2.01024L33.8279 15.669H37.8826C37.8826 15.669 38.5441 13.8315 38.6943 13.4283C39.1365 13.4283 43.0765 13.436 43.6388 13.436C43.7545 13.9561 44.1089 15.669 44.1089 15.669H47.692L44.5677 0.77478Z" fill="#7E7E7E"/>
<path fill-rule="evenodd" clip-rule="evenodd" d="M13.563 0.772095L9.78444 10.9331L9.37971 8.86764C8.67559 6.48784 6.48373 3.9084 4.03198 2.61593L7.4888 15.6507L11.5744 15.6483L17.6539 0.772095H13.563Z" fill="#7E7E7E"/>
<path fill-rule="evenodd" clip-rule="evenodd" d="M6.27663 0.761841H0.0512252L0 1.07065C4.84409 2.30523 8.0492 5.28527 9.37951 8.86751L8.02668 2.01931C7.79329 1.07483 7.115 0.794857 6.27663 0.761841Z" fill="#7E7E7E"/>
</svg>
