<svg xmlns="http://www.w3.org/2000/svg" width="257" height="50" fill="none">
  <g fill="#7E7E7E" clip-path="url(#clip0)">
    <path d="M14.6 49.9H34l1.2-7.7 1.2-7.7-2.5.8v-1.5l1.9-1.4v-6l-7.5 2.4v-2l7.5-4.7v-4.5c0-.7.6-1.4 1.3-1.4.8 0 1.4.7 1.4 1.4v4.5l7.4 4.8v1.9l-7.4-2.4v6l1.9 1.4v1.5l-2.5-.8 1.2 7.7 1.2 7.7h19.1L74.1.3H57.9l-6.5 21.5L44 .1H30l-7.4 21.5L16.5.3H0l14.6 49.6zM110.2 13.7h4.2l-5 16h-3.7l-2.9-9.7-2.8 9.6h-3.8l-5-15.9h4.3l2.6 9.8 2.9-9.8h3.7l2.8 9.8 2.7-9.8zm9.1 9.7c.6 2 2 3 4.4 3 1.5 0 2.7-.6 3.5-1.6l3.2 1.9a7.6 7.6 0 0 1-6.8 3.4c-2.5 0-4.6-.8-6.1-2.4a8.3 8.3 0 0 1-2.3-6c0-2.4.7-4.4 2.3-6a7.8 7.8 0 0 1 5.8-2.4c2.3 0 4.2.8 5.7 2.4a8.5 8.5 0 0 1 2.2 6c0 .5 0 1-.2 1.7h-11.7zm0-3.2h7.9c-.3-1.1-.7-2-1.4-2.4a4 4 0 0 0-2.5-.8c-1 0-2 .2-2.6.8a4 4 0 0 0-1.4 2.4zm18 3.2c.4 2 1.9 3 4.3 3 1.5 0 2.7-.6 3.4-1.6l3.3 1.9a7.6 7.6 0 0 1-6.8 3.4c-2.6 0-4.6-.8-6.2-2.4a8.3 8.3 0 0 1-2.3-6c0-2.4.8-4.4 2.3-6a7.8 7.8 0 0 1 5.9-2.4c2.3 0 4.1.8 5.6 2.4a8.5 8.5 0 0 1 2.2 6l-.1 1.7h-11.7zm-.2-3.2h8c-.3-1.1-.8-2-1.5-2.4a4 4 0 0 0-2.4-.8c-1 0-2 .2-2.7.8a4 4 0 0 0-1.4 2.4zm29 9.4h-4.7l-5.6-7.2v7.2h-4V7.3h4v13.4l5.3-7h4.8l-6.2 7.9 6.4 8zM185.8 17.7h-3.5v6.6c0 .5.2 1 .4 1.2.3.2.7.4 1.2.4h2v3.7c-2.8.3-4.8 0-5.9-.8-1.1-.8-1.7-2.3-1.7-4.5v-6.6h-2.7v-4h2.7v-3.2l4-1.3v4.5h3.5v4zm7-1.3c.5-1 1-1.7 2-2.2.8-.6 1.7-.8 2.8-.8V18c-1.2-.2-2.3 0-3.3.7S193 20.5 193 22v7.6h-4V13.7h4v2.7zm18.3-2.7h4v16h-4v-2a6 6 0 0 1-5 2.4 7 7 0 0 1-5.4-2.5 8.6 8.6 0 0 1-2.2-6c0-2.3.8-4.3 2.2-5.9a7 7 0 0 1 5.3-2.4 6 6 0 0 1 5.1 2.3v-1.9zM203.7 25a4 4 0 0 0 3 1.3c1.3 0 2.4-.5 3.2-1.3.8-.8 1.2-2 1.2-3.2 0-1.3-.4-2.4-1.2-3.3a4.1 4.1 0 0 0-3.1-1.2 4 4 0 0 0-3 1.2c-.9.9-1.3 2-1.3 3.3 0 1.3.4 2.4 1.2 3.2zM229 13.7h4.4l-5.9 16H223l-6-16h4.5L225 25l3.8-11.2zm9 9.7c.6 2 2 3 4.4 3 1.6 0 2.7-.6 3.5-1.6l3.2 1.9a7.6 7.6 0 0 1-6.7 3.4c-2.6 0-4.6-.8-6.2-2.4a8.3 8.3 0 0 1-2.3-6c0-2.4.8-4.4 2.3-6a7.8 7.8 0 0 1 5.9-2.4c2.2 0 4.1.8 5.6 2.4a8.5 8.5 0 0 1 2.2 6c0 .5 0 1-.2 1.7H238zm0-3.2h8c-.3-1.1-.8-2-1.5-2.4a4 4 0 0 0-2.4-.8c-1.1 0-2 .2-2.7.8a4 4 0 0 0-1.4 2.4zm14.7 9.4V6.4h4v23.2h-4zM171.6 30.4c1.6 0 2.8-1.3 2.8-2.9 0-1.6-1.2-3-2.8-3a2.9 2.9 0 0 0-2.9 3c0 1.6 1.3 3 2.9 3zM134.4 35.8c.7 0 1.3.2 1.8.7.4.5.7 1 .7 1.8 0 .7-.3 1.3-.7 1.8-.5.5-1.1.8-1.8.8h-1.8v2.8h-1v-8h2.8zm0 4c.4 0 .8 0 1-.4.3-.3.5-.6.5-1 0-.5-.2-1-.5-1.2-.2-.3-.6-.5-1-.5h-1.8V40h1.8zm10.8 4l-.7-1.9h-3.4l-.7 1.8h-1l2.8-8h1.2l2.9 8h-1.1zm-3.8-2.9h2.8l-1.4-3.9-1.4 4zm13.1 2.8l-1.7-3H151v3h-1v-8h3c.7 0 1.3.3 1.7.8.5.5.8 1 .8 1.7 0 .5-.2 1-.5 1.4-.3.5-.7.8-1.1 1l1.8 3.1h-1.2zm-3.5-7v3h2c.4 0 .8-.1 1-.4.3-.3.4-.7.4-1 0-.5-.1-.8-.4-1.1-.2-.3-.6-.5-1-.5h-2zm13.3-1v1H162v7h-1v-7h-2.3v-1h5.6zm8.5 0h1v8h-.8l-4-6v6h-1v-8h.9l4 6v-6zm6.5 7h3.6v1h-4.6v-8h4.6v1h-3.6v2.5h3.3v1h-3.3v2.5zm12.2 1l-1.7-3h-1.9v3h-1v-8h3.1c.7 0 1.2.3 1.7.8s.7 1 .7 1.7c0 .5-.1 1-.4 1.4-.3.5-.7.8-1.2 1l1.8 3.1h-1.1zm-3.6-7v3h2.1c.4 0 .7-.1 1-.4.3-.3.4-.7.4-1 0-.5-.1-.8-.4-1.1-.3-.3-.6-.5-1-.5h-2zm11 7.2c-.8 0-1.4-.2-2-.6-.5-.3-.8-.8-1-1.4l.9-.5c.3 1 1 1.4 2 1.4.6 0 1 0 1.2-.3.3-.2.5-.5.5-.9s-.2-.7-.5-.9a6 6 0 0 0-1.4-.6 15.8 15.8 0 0 1-1.3-.5 2 2 0 0 1-.6-.4 2 2 0 0 1-.5-1.3c0-.7.2-1.3.7-1.7.5-.4 1-.6 1.7-.6s1.2.2 1.6.5c.5.3.8.7 1 1.2l-.8.6c-.3-.9-1-1.3-1.8-1.3-.4 0-.7.1-1 .3a1 1 0 0 0-.4 1c0 .3.2.5.4.7l1.3.6a35.5 35.5 0 0 1 1.6.7c.2 0 .3.1.3.2l.3.3.2.3a2.8 2.8 0 0 1 .2.9 2 2 0 0 1-.8 1.6 3 3 0 0 1-1.9.7zM100.6 36.8h-3.4v2.5h3.3v1h-3.3v3.4h-1v-8h4.4v1zm10.5 5.9c-.8.8-1.7 1.2-2.9 1.2a4 4 0 0 1-4-4.1 4 4 0 0 1 4-4.2 4 4 0 0 1 4 4.1 4 4 0 0 1-1.1 3zm-5-.8c.6.6 1.3 1 2.1 1 .9 0 1.6-.4 2.2-1a3 3 0 0 0 .8-2.2 3 3 0 0 0-.8-2.2c-.6-.6-1.3-.9-2.2-.9-.8 0-1.5.3-2 1a3 3 0 0 0-1 2.1c0 1 .3 1.6 1 2.2zm14.7 1.8l-1.7-3h-1.8v3h-1v-8h3c.7 0 1.3.3 1.8.8.4.5.7 1 .7 1.7 0 .5-.2 1-.5 1.4-.3.5-.7.8-1.1 1l1.8 3.1h-1.2zm-3.5-7v3h2c.4 0 .8-.1 1-.4.3-.3.4-.7.4-1 0-.5-.1-.8-.4-1.1-.2-.3-.6-.5-1-.5h-2z"/>
  </g>
  <defs>
    <clipPath id="clip0">
      <path fill="#fff" d="M0 0h256.6v50H0z"/>
    </clipPath>
  </defs>
</svg>