<svg width="51" height="48" viewBox="0 0 51 48" fill="none" xmlns="http://www.w3.org/2000/svg">
<g clip-path="url(#clip0)">
<path d="M41.5341 9.13991C41.1462 9.03774 40.7458 9.25784 40.6396 9.63247C40.5334 10.0067 40.7613 10.3935 41.1492 10.4964C46.0615 11.7964 48.9941 13.6414 48.9941 15.4311V15.4413C48.9941 16.158 48.5008 17.2746 46.1507 18.5226C44.2961 19.5074 41.6687 20.3511 38.523 20.9748C38.3133 21.0162 38.1014 21.0568 37.8871 21.0964C37.5443 21.1597 37.296 21.4498 37.296 21.7871V28.1756C36.075 27.9706 34.8006 27.7995 33.4894 27.6622L33.787 23.5518C33.8151 23.1644 33.5129 22.8286 33.1117 22.8015C32.7113 22.7747 32.3628 23.0662 32.3348 23.4537L31.9381 28.9304C31.882 29.6983 31.2143 30.3 30.4184 30.3H30.0312C29.6547 30.3 29.3404 30.5773 29.3062 30.9394L28.1239 43.4884H23.0763L21.8944 30.9394C21.8602 30.5773 21.5459 30.3 21.1694 30.3H20.7822C19.9859 30.3 19.3186 29.6983 19.2624 28.9315L18.4908 18.2795C18.4203 17.3043 18.7619 16.3733 19.452 15.6585C20.1421 14.944 21.0791 14.5507 22.0904 14.5507H29.1098C30.1211 14.5507 31.0581 14.944 31.7482 15.6585C32.4387 16.3733 32.7803 17.3043 32.7098 18.2791L32.5388 20.6386C32.5107 21.0261 32.8129 21.3619 33.2141 21.389C33.6141 21.415 33.963 21.1242 33.991 20.7368L34.162 18.3773C34.2595 17.0285 33.7677 15.6882 32.8129 14.6994C31.9328 13.7886 30.7168 13.2367 29.4363 13.1562C30.6516 12.1293 31.4236 10.6253 31.4338 8.94948C33.8784 9.13808 36.218 9.4435 38.3641 9.86172C38.7585 9.93826 39.1422 9.6918 39.2215 9.3113C39.3011 8.93081 39.0463 8.55983 38.6519 8.4833C36.3632 8.03725 33.8636 7.71571 31.2533 7.52528C30.6042 5.06983 28.2722 3.28125 25.6001 3.28125C22.928 3.28125 20.5964 5.06983 19.9476 7.52309C15.587 7.84023 11.5798 8.52321 8.32265 9.52334C3.36863 11.0446 0.75 13.0873 0.75 15.4311V35.3794C0.75 37.3654 2.70658 38.8211 4.34768 39.693C6.45821 40.8136 9.46361 41.7551 13.0393 42.4158C13.0848 42.4242 13.1307 42.4282 13.1762 42.4282C13.3442 42.4282 13.5084 42.3722 13.6399 42.2671C13.8071 42.1334 13.9042 41.935 13.9042 41.7251V36.7769C13.9042 36.3887 13.5781 36.0741 13.1762 36.0741C12.7743 36.0741 12.4482 36.3887 12.4482 36.7769V40.8671C9.4037 40.2486 6.85863 39.4216 5.04917 38.4607C2.699 37.2127 2.20606 36.0961 2.20606 35.3794V18.2824C2.20644 18.2831 2.2072 18.2835 2.20796 18.2842C2.2819 18.3527 2.35811 18.4194 2.43509 18.4849C2.44532 18.4937 2.45556 18.5029 2.46618 18.5113C2.5405 18.5739 2.61596 18.6351 2.69255 18.6951C2.70658 18.7061 2.72061 18.7171 2.73502 18.7281C2.81124 18.7874 2.88859 18.8453 2.9667 18.9017C2.97883 18.9105 2.99135 18.9192 3.00386 18.928C3.08538 18.9866 3.16767 19.0445 3.25071 19.1002C3.25147 19.1005 3.25222 19.1013 3.25298 19.102C3.3364 19.1577 3.4202 19.2119 3.504 19.265C3.51538 19.2726 3.52713 19.28 3.53889 19.2877C3.61965 19.3382 3.70004 19.3873 3.78081 19.4352C3.79521 19.444 3.81 19.4525 3.82441 19.4612C3.9048 19.5089 3.98518 19.555 4.06481 19.6C4.07657 19.6063 4.08794 19.6125 4.09932 19.6191C4.18274 19.6656 4.26578 19.711 4.34768 19.7546C5.46893 20.35 6.8427 20.895 8.4201 21.374C8.94603 21.5336 9.49433 21.6856 10.0639 21.8303C10.4434 21.9266 10.8321 22.0196 11.2298 22.1086C11.6272 22.1976 12.0337 22.2833 12.4482 22.3649V33.9647C12.4482 34.3533 12.7743 34.6678 13.1762 34.6678C13.5781 34.6678 13.9042 34.3533 13.9042 33.9647V29.6039C15.154 29.3878 16.4629 29.2076 17.8132 29.0652C17.933 30.4586 19.0842 31.5646 20.5031 31.6935L21.6866 44.2553C21.7207 44.6175 22.035 44.8947 22.4116 44.8947H28.7883C29.1648 44.8947 29.4791 44.6175 29.5133 44.2553L30.6967 31.6935C32.1156 31.5642 33.2664 30.459 33.3866 29.0652C34.7373 29.2076 36.0458 29.3878 37.296 29.6039V41.7255C37.296 41.935 37.3927 42.1334 37.5599 42.2671C37.6915 42.3722 37.856 42.4286 38.0236 42.4286C38.0691 42.4286 38.115 42.4242 38.1605 42.4158C41.7366 41.7551 44.742 40.8136 46.8521 39.693C48.4936 38.8214 50.4498 37.3654 50.4498 35.3794V15.4311C50.4502 12.8962 47.2836 10.6619 41.5341 9.13991ZM21.2695 8.29433C21.5823 6.23768 23.4441 4.68714 25.6001 4.68714C27.7561 4.68714 29.6179 6.23768 29.9315 8.29689C29.9626 8.49758 29.9785 8.70559 29.9785 8.91579C29.9785 11.2475 28.0144 13.1444 25.6001 13.1444C23.1858 13.1444 21.2217 11.2475 21.2217 8.91579C21.2217 8.70559 21.2376 8.49758 21.2695 8.29433ZM13.3131 21.0964C9.88526 20.4632 7.02774 19.5729 5.04955 18.5223C2.699 17.2742 2.20606 16.158 2.20606 15.4413V15.4311C2.20606 13.8318 4.65747 12.1242 8.76364 10.8633C11.8456 9.91665 15.6329 9.26333 19.7668 8.94655C19.7759 10.6234 20.5483 12.1286 21.7643 13.1558C20.4834 13.2367 19.2674 13.7882 18.3877 14.6994C17.4329 15.6878 16.9411 17.0285 17.0382 18.3773L17.7108 27.6622C16.4 27.7995 15.1252 27.9706 13.9042 28.1756V21.7871C13.9042 21.4498 13.6562 21.1597 13.3131 21.0964ZM48.9941 35.3794C48.9941 36.0961 48.5008 37.2127 46.1507 38.4607C44.3412 39.4216 41.7961 40.2486 38.752 40.8671V22.3649C42.0684 21.7116 44.8595 20.8129 46.8525 19.7546C46.934 19.7114 47.0163 19.6663 47.0994 19.6198C47.1115 19.6129 47.124 19.6063 47.1361 19.5993C47.2154 19.555 47.295 19.5089 47.375 19.462C47.3902 19.4528 47.405 19.444 47.4202 19.4349C47.5005 19.3873 47.5809 19.3382 47.6609 19.2877C47.6731 19.2803 47.6848 19.2726 47.697 19.265C47.7804 19.2122 47.8638 19.158 47.9468 19.1024C47.9476 19.1016 47.9487 19.1009 47.9499 19.1002C48.0325 19.0445 48.1144 18.987 48.1963 18.9288C48.2089 18.9196 48.2214 18.9108 48.2339 18.9017C48.3116 18.8453 48.3886 18.7874 48.4652 18.7285C48.4792 18.7175 48.4936 18.7061 48.508 18.6951C48.5842 18.6351 48.6597 18.5743 48.734 18.5117C48.7446 18.5029 48.7553 18.4937 48.7659 18.4846C48.8421 18.4194 48.9175 18.3535 48.9907 18.2857C48.9919 18.2846 48.9934 18.2835 48.9945 18.2828V35.3794H48.9941Z" fill="#303036"/>
</g>
<defs>
<clipPath id="clip0">
<rect width="49.7" height="48" fill="white" transform="translate(0.75)"/>
</clipPath>
</defs>
</svg>
