<svg xmlns="http://www.w3.org/2000/svg" width="60" height="60" fill="none">
  <path stroke="#fff" stroke-width="2" d="M1 30a29 29 0 1158 0 29 29 0 01-58 0z"/>
  <path fill="#fff" fill-rule="evenodd" d="M23.4 14.1c1.71-.08 2.26-.1 6.6-.1s4.89.02 6.6.1c1.7.07 2.86.34 3.88.74 1.05.4 1.94.96 2.83 1.84a7.85 7.85 0 011.85 2.84c.4 1.02.66 2.18.74 3.88.08 1.7.1 2.25.1 6.6s-.02 4.89-.1 6.6c-.08 1.7-.35 2.86-.74 3.88a7.85 7.85 0 01-1.85 2.83 7.83 7.83 0 01-2.83 1.85c-1.02.4-2.18.67-3.88.74-1.71.08-2.26.1-6.6.1-4.35 0-4.9-.02-6.6-.1-1.7-.07-2.86-.34-3.88-.74a7.83 7.83 0 01-2.83-1.85 7.84 7.84 0 01-1.85-2.83c-.4-1.02-.67-2.18-.74-3.88-.08-1.71-.1-2.25-.1-6.6s.02-4.9.1-6.6c.07-1.7.34-2.86.74-3.88a7.85 7.85 0 011.85-2.84 7.84 7.84 0 012.83-1.84c1.02-.4 2.18-.67 3.88-.74zm5.17 2.78H30c4.27 0 4.78.02 6.47.1 1.56.07 2.4.33 2.97.55.74.29 1.28.63 1.84 1.2.56.55.9 1.09 1.2 1.83.21.57.47 1.41.54 2.97.08 1.69.1 2.2.1 6.47s-.02 4.77-.1 6.46a8.85 8.85 0 01-.55 2.97 4.95 4.95 0 01-1.2 1.84c-.55.56-1.09.9-1.83 1.2-.57.21-1.41.47-2.97.55-1.69.07-2.2.09-6.47.09s-4.78-.02-6.46-.1a8.88 8.88 0 01-2.97-.55 4.96 4.96 0 01-1.84-1.2c-.56-.55-.91-1.08-1.2-1.83a8.84 8.84 0 01-.55-2.97c-.08-1.69-.1-2.2-.1-6.47s.02-4.77.1-6.46c.07-1.56.33-2.4.55-2.97.29-.75.64-1.28 1.2-1.84.56-.56 1.09-.9 1.84-1.2a8.84 8.84 0 012.97-.55c1.47-.07 2.04-.09 5.03-.1v.01zm9.97 2.66a1.92 1.92 0 100 3.84 1.92 1.92 0 000-3.84zM21.8 30a8.22 8.22 0 1116.43 0 8.22 8.22 0 01-16.43 0zM30 24.67a5.33 5.33 0 110 10.66 5.33 5.33 0 010-10.66z" clip-rule="evenodd"/>
</svg>