<svg width="46" height="46" viewBox="0 0 46 46" fill="none" xmlns="http://www.w3.org/2000/svg">
<path d="M25.0023 20.999L25.0023 3.20238C25.0027 2.09717 24.1065 1.20092 23.0013 1.20139C21.8956 1.20139 21.0003 2.0967 21.0003 3.20238L21.0003 20.999L3.20318 20.9995C2.09749 20.9995 1.20219 21.8948 1.20219 23.0005C1.20172 24.1057 2.09797 25.002 3.20318 25.0015L21.0003 25.001L20.9998 42.7981C20.9993 43.9033 21.8956 44.7996 23.0008 44.7991C23.5532 44.7986 24.0537 44.5746 24.4155 44.2128C24.7773 43.851 25.0013 43.3505 25.0013 42.7976L25.0018 25.0005L42.7984 25.0005C43.3513 25.0005 43.8518 24.7765 44.2136 24.4147C44.5754 24.0529 44.7994 23.5524 44.7994 22.9995C44.7999 21.8943 43.9037 20.9981 42.7984 20.9986L25.0023 20.999Z" fill="white"/>
</svg>
