<svg xmlns="http://www.w3.org/2000/svg" width="60" height="60" fill="none">
  <path stroke="#fff" stroke-width="2" d="M1 30a29 29 0 1158 0 29 29 0 01-58 0z"/>
  <path fill="#fff" fill-rule="evenodd" d="M31.57 38.85s.58-.07.87-.38c.27-.29.26-.82.26-.82s-.03-2.52 1.16-2.9c1.17-.36 2.68 2.44 4.28 3.52 1.2.81 2.12.63 2.12.63l4.28-.05s2.23-.14 1.17-1.87c-.08-.14-.61-1.27-3.17-3.6-2.68-2.45-2.32-2.05.9-6.27 1.97-2.58 2.76-4.15 2.5-4.82-.22-.64-1.67-.47-1.67-.47l-4.81.03s-.36-.05-.62.1c-.26.16-.43.51-.43.51s-.76 2-1.77 3.69c-2.15 3.57-3 3.76-3.35 3.54-.82-.52-.62-2.08-.62-3.19 0-3.46.54-4.9-1.04-5.28-.52-.12-.9-.2-2.24-.22-1.72-.01-3.17.01-4 .4-.54.27-.97.85-.7.89.31.04 1.03.19 1.41.7.5.66.48 2.14.48 2.14s.28 4.07-.66 4.58c-.65.34-1.54-.37-3.45-3.6-.98-1.66-1.72-3.5-1.72-3.5s-.14-.34-.4-.53c-.3-.22-.74-.29-.74-.29l-4.57.03s-.68.02-.94.31c-.22.26-.01.8-.01.8s3.58 8.22 7.63 12.37c3.72 3.8 7.94 3.55 7.94 3.55h1.9z" clip-rule="evenodd"/>
</svg>