<svg width="90" height="96" viewBox="0 0 90 96" fill="none" xmlns="http://www.w3.org/2000/svg">
<path d="M79.0228 71.551C77.3597 66.7726 73.4031 63.2644 68.6592 62.094L61.5106 37.4469C59.9308 31.9987 55.1779 28.0646 49.6552 27.4345V20.6337L74.0729 11.8633L46.5517 0V27.4345C45.6145 27.5419 44.6977 27.7385 43.8158 28.0288C41.1563 26.0004 37.6172 25.2727 34.4107 26.1528C32.1551 21.2014 27.2378 17.9729 21.7241 17.9729C14.0231 17.9729 7.75862 24.273 7.75862 32.0178C7.75862 32.5824 7.79726 33.144 7.86394 33.7033C3.41713 34.4051 0 38.2737 0 42.9416C0 48.1055 4.17556 52.3048 9.31034 52.3048H30.3874L29.4828 55.4259C23.316 55.4259 17.8032 59.5848 16.0772 65.5367L8.14655 92.8789H4.65517V96H90V92.8789H86.4465L79.0228 71.551ZM49.6552 4.73496L65.5823 11.5981L49.6552 17.3191V4.73496ZM52.1396 78.6466C53.0268 79.6158 54.2187 80.3946 55.853 80.3946C59.1375 80.3946 60.668 77.32 61.8955 74.8496C63.0744 72.4745 63.8859 71.0313 65.1618 71.0313C66.4385 71.0313 67.25 72.4745 68.4312 74.8496C69.6617 77.32 71.1899 80.3946 74.4782 80.3946C76.1186 80.3946 77.3119 79.6128 78.2022 78.6405L83.1567 92.8789H47.1882L52.1396 78.6466ZM76.0936 72.5804L76.9392 75.0119C76.0284 76.6411 75.3314 77.2735 74.4782 77.2735C73.2008 77.2735 72.3893 75.8295 71.2088 73.4544C69.9799 70.9841 68.4494 67.9102 65.1618 67.9102C61.875 67.9102 60.3452 70.9841 59.1178 73.4544C57.9381 75.8295 57.1282 77.2735 55.853 77.2735C55.0021 77.2735 54.3088 76.6441 53.4011 75.0203L54.2497 72.5804C55.8727 67.9209 60.2627 64.7892 65.1724 64.7892C70.0822 64.7892 74.4722 67.9209 76.0936 72.5804ZM65.1724 61.6681C58.9451 61.6681 53.3792 65.6395 51.3205 71.551L47.6738 82.0313L42.8899 65.5367C41.4624 60.6143 37.4429 56.927 32.6082 55.7939L35.0411 47.406C35.9442 48.4065 37.1421 49.1837 38.784 49.1837C42.0685 49.1837 43.5991 46.1091 44.8265 43.6388C46.0054 41.2637 46.8169 39.8205 48.0928 39.8205C49.3695 39.8205 50.181 41.2637 51.3622 43.6388C52.5927 46.1091 54.1209 49.1837 57.4092 49.1837C59.0557 49.1837 60.2566 48.4004 61.1628 47.3984L65.3027 61.6742C65.2596 61.6726 65.2156 61.6681 65.1724 61.6681ZM58.5314 38.3224L60.0331 43.5001C59.0276 45.37 58.3109 46.0627 57.4092 46.0627C56.1318 46.0627 55.3203 44.6187 54.1399 42.2436C52.9109 39.7732 51.3804 36.6994 48.0928 36.6994C44.806 36.6994 43.2763 39.7732 42.0488 42.2436C40.8691 44.6187 40.0592 46.0627 38.784 46.0627C37.8854 46.0627 37.1717 45.3731 36.1708 43.5108L37.6755 38.3224C39.0196 33.6903 43.3074 30.4572 48.1035 30.4572C52.8996 30.4572 57.1872 33.6903 58.5314 38.3224ZM9.31034 49.1837C5.88716 49.1837 3.10345 46.3842 3.10345 42.9416C3.10345 39.4989 5.88716 36.6994 9.31034 36.6994C12.7335 36.6994 15.5172 39.4989 15.5172 42.9416H18.6207C18.6207 38.3643 15.3354 34.5506 11.0128 33.7421C10.9227 33.1737 10.8621 32.5984 10.8621 32.0178C10.8621 25.9958 15.7362 21.094 21.7241 21.094C26.424 21.094 30.5708 24.1152 32.0384 28.6094L32.5726 30.2401L34.1364 29.552C36.1708 28.6559 38.509 28.7298 40.4911 29.6351C37.7581 31.4295 35.6495 34.1635 34.6979 37.4469L31.2921 49.1837H9.31034ZM29.4828 58.547C34.2789 58.547 38.5666 61.7801 39.9107 66.4122L40.8085 69.5097C39.9463 70.8271 39.3288 71.0313 38.7886 71.0313C37.5111 71.0313 36.6996 69.5874 35.5192 67.2123C34.2902 64.7419 32.7597 61.6681 29.4722 61.6681C26.1853 61.6681 24.6556 64.7419 23.4282 67.2123C22.2485 69.5874 21.4385 71.0313 20.1633 71.0313C19.6261 71.0313 19.0117 70.8248 18.154 69.5188L19.0548 66.4122C20.399 61.7801 24.6867 58.547 29.4828 58.547ZM17.1326 73.0414C17.9335 73.6983 18.9139 74.1524 20.1633 74.1524C23.4479 74.1524 24.9784 71.0778 26.2058 68.6075C27.3848 66.2324 28.1962 64.7892 29.4722 64.7892C30.7488 64.7892 31.5603 66.2324 32.7415 68.6075C33.972 71.0778 35.5002 74.1524 38.7886 74.1524C40.0592 74.1524 41.0495 73.6579 41.8284 73.0239L45.9107 87.0985L43.8983 92.8789H11.3788L17.1326 73.0414Z" fill="#FFCA03"/>
</svg>
