<svg width="105" height="96" viewBox="0 0 105 96" fill="none" xmlns="http://www.w3.org/2000/svg">
<path d="M32.3094 33.6578C31.6511 33.1239 30.6849 33.2246 30.1508 33.883C29.5308 34.6475 28.7088 35.0684 27.8359 35.0684C26.963 35.0684 26.141 34.6473 25.521 33.883C24.9872 33.2248 24.0205 33.1241 23.3625 33.6578C22.7042 34.1916 22.6033 35.158 23.1372 35.8163C24.3336 37.2916 26.0463 38.1378 27.8359 38.1378C29.6255 38.1378 31.338 37.2916 32.5347 35.8163C33.0685 35.158 32.9676 34.1916 32.3094 33.6578Z" fill="#FFCA03"/>
<path d="M20.8221 24.5479C19.9746 24.5479 19.2875 25.235 19.2875 26.0825V27.8359C19.2875 28.6835 19.9746 29.3706 20.8221 29.3706C21.6697 29.3706 22.3568 28.6835 22.3568 27.8359V26.0825C22.3568 25.235 21.6697 24.5479 20.8221 24.5479Z" fill="#FFCA03"/>
<path d="M34.8495 24.5479C34.0019 24.5479 33.3148 25.235 33.3148 26.0825V27.8359C33.3148 28.6835 34.0017 29.3706 34.8495 29.3706C35.697 29.3706 36.3842 28.6835 36.3842 27.8359V26.0825C36.3842 25.235 35.697 24.5479 34.8495 24.5479Z" fill="#FFCA03"/>
<path d="M83.1579 42.4244C82.4996 41.8905 81.5332 41.9912 80.9993 42.6496C80.3793 43.4139 79.5571 43.835 78.6844 43.835C77.8115 43.835 76.9895 43.4139 76.3695 42.6496C75.8359 41.9914 74.8692 41.8905 74.211 42.4244C73.5527 42.9582 73.452 43.9246 73.9859 44.5829C75.1821 46.0584 76.8948 46.9044 78.6844 46.9044C80.4741 46.9044 82.1865 46.0582 83.383 44.5829C83.9168 43.9246 83.8162 42.9582 83.1579 42.4244Z" fill="#FFCA03"/>
<path d="M71.6709 33.3149C70.8234 33.3149 70.1362 34.0021 70.1362 34.8496V36.603C70.1362 37.4506 70.8234 38.1377 71.6709 38.1377C72.5184 38.1377 73.2056 37.4506 73.2056 36.603V34.8496C73.2056 34.0021 72.5184 33.3149 71.6709 33.3149Z" fill="#FFCA03"/>
<path d="M85.698 33.3149C84.8505 33.3149 84.1633 34.0021 84.1633 34.8496V36.603C84.1633 37.4506 84.8502 38.1377 85.698 38.1377C86.5455 38.1377 87.2327 37.4506 87.2327 36.603V34.8496C87.2327 34.0021 86.5455 33.3149 85.698 33.3149Z" fill="#FFCA03"/>
<path d="M100.495 63.6631L88.4723 58.8539C88.4073 58.8279 88.3471 58.7947 88.2861 58.7628C96.5903 56.8733 100.523 53.7136 100.698 53.5705C101.113 53.2302 101.32 52.6978 101.244 52.1664C101.227 52.0449 99.5062 39.8615 99.5062 27.836C99.5062 16.3546 90.1654 7.01384 78.684 7.01384C67.2027 7.01384 57.8621 16.3544 57.8621 27.836C57.8621 30.9819 57.7193 34.8296 57.4868 38.4721L54.1365 40.1473L44.3024 35.2304C44.2741 35.2163 44.2445 35.2061 44.2156 35.1938C44.6834 33.8304 44.9893 32.3927 45.1016 30.9008C47.1587 30.2653 48.6576 28.3457 48.6576 26.0826C48.6576 24.5584 47.9766 23.1911 46.9041 22.2658V12.0551C46.9041 9.2344 45.4789 6.59518 43.1417 5.00936C42.3499 2.06689 39.7061 0 36.6024 0H22.5752C14.9612 0 8.76663 6.19453 8.76663 13.8085V22.2656C7.69421 23.1907 7.01322 24.5582 7.01322 26.0824C7.01322 28.3455 8.51208 30.2651 10.5692 30.9006C10.9567 36.0528 13.6119 40.5797 17.5337 43.4931V47.7349L4.84218 51.5423C1.94596 52.4114 0 55.0266 0 58.0505V75.1776C0 76.0252 0.687122 76.7123 1.53467 76.7123H1.75341V94.4651C1.75341 95.3127 2.44053 95.9998 3.28808 95.9998C4.13562 95.9998 4.82274 95.3127 4.82274 94.4651V76.7123H10.5205V94.4651C10.5205 95.3127 11.2076 95.9998 12.0551 95.9998C12.9027 95.9998 13.5898 95.3127 13.5898 94.4651V68.0034C13.5898 66.6574 13.1951 65.3539 12.4486 64.2342L9.82535 60.2993C9.35513 59.594 8.4022 59.4037 7.69728 59.8735C6.99194 60.3435 6.80144 61.2965 7.27166 62.0018L9.89492 65.9369C10.3042 66.5508 10.5207 67.2653 10.5207 68.0034V73.643H3.28808H3.06933V58.0505C3.06933 56.3925 4.13624 54.9587 5.72451 54.4821L10.9929 52.9016C12.8276 60.5836 19.7952 66.1918 27.8358 66.1918C30.7245 66.1918 33.5298 65.4796 36.042 64.1241C36.9601 65.3766 38.441 66.1918 40.1095 66.1918H40.3282V66.4106C40.3282 71.5554 43.1585 76.0489 47.3418 78.4244V80.9275C47.3418 81.0216 47.2817 81.1051 47.1922 81.135L41.4675 83.0433C38.6886 83.9696 36.8214 86.5602 36.8214 89.4895V94.4651C36.8214 95.3127 37.5085 95.9998 38.356 95.9998C39.2036 95.9998 39.8907 95.3127 39.8907 94.4651V89.4895C39.8907 87.8835 40.9144 86.463 42.4381 85.9553L44.1215 85.394C46.3486 88.7154 50.0942 90.7398 54.1365 90.7398C58.1831 90.7398 61.9253 88.7167 64.152 85.3942L65.835 85.9553C67.3586 86.4632 68.3823 87.8835 68.3823 89.4895V94.4651C68.3823 95.3127 69.0694 95.9998 69.917 95.9998C70.7645 95.9998 71.4517 95.3127 71.4517 94.4651V89.4895C71.4517 86.5602 69.5845 83.9696 66.8055 83.0435L61.0808 81.1352C60.9914 81.1053 60.9312 81.0221 60.9312 80.9277V78.4246C64.0634 76.646 66.4341 73.6798 67.4286 70.1413C70.3287 73.1758 74.3792 74.9593 78.6838 74.9593C85.4797 74.9593 91.4426 70.5663 93.4966 64.17L99.3548 66.5131C100.778 67.0822 101.697 68.44 101.697 69.972V77.15H101.478H95.999V75.1778C95.999 74.3303 95.3118 73.6432 94.4643 73.6432C93.6168 73.6432 92.9296 74.3303 92.9296 75.1778V94.4653C92.9296 95.3129 93.6168 96 94.4643 96C95.3118 96 95.999 95.3129 95.999 94.4653V80.2193H99.9433V94.4653C99.9433 95.3129 100.63 96 101.478 96C102.325 96 103.013 95.3129 103.013 94.4653V80.2193H103.231C103.638 80.2193 104.029 80.0577 104.316 79.77C104.604 79.4821 104.766 79.0919 104.766 78.6847V69.972C104.767 67.1773 103.09 64.701 100.495 63.6631ZM60.9316 27.8358C60.9316 18.0469 68.8955 10.083 78.6844 10.083C88.4734 10.083 96.4371 18.0469 96.4371 27.8358C96.4371 38.1412 97.6781 48.5587 98.0814 51.67C96.7061 52.5697 93.185 54.5513 87.2327 55.8535V53.4113C88.048 52.9493 88.8284 52.422 89.5622 51.829C92.582 49.3881 94.716 45.9694 95.5705 42.2032C95.8553 40.9482 95.9998 39.654 95.9998 38.3565C95.9998 29.6823 89.7267 28.437 83.66 27.2326C79.7998 26.4663 75.8083 25.6738 72.6297 23.1309C72.1691 22.7624 71.538 22.6906 71.0062 22.9461C70.4744 23.2017 70.1363 23.7393 70.1363 24.3294C70.1363 24.3701 70.0694 28.4081 64.2852 29.8542C63.4628 30.0598 62.9629 30.8931 63.1685 31.7154C63.374 32.5378 64.2074 33.0373 65.0296 32.8321C69.871 31.6217 71.846 28.9058 72.6514 26.8653C75.9793 28.8374 79.7073 29.5773 83.0623 30.2434C89.5466 31.5307 92.9305 32.4762 92.9305 38.3567C92.9305 39.426 92.8116 40.4917 92.5773 41.5242C91.8744 44.621 90.1185 47.4329 87.6326 49.4423C85.0748 51.5098 81.9805 52.6025 78.6844 52.6025C75.6798 52.6025 72.8202 51.6809 70.3933 49.9393C69.5043 47.5127 68.0762 45.2925 66.1918 43.4632V36.6033C66.1918 36.0712 65.9164 35.5773 65.464 35.2978C65.0116 35.0182 64.4468 34.9927 63.9709 35.2306L60.6574 36.8873C60.8391 33.6913 60.9316 30.6526 60.9316 27.8358ZM63.1225 39.0859V44.64L57.5682 41.8631L63.1225 39.0859ZM45.1509 39.0859L50.705 41.8631L45.1509 44.64V39.0859ZM36.8214 55.8901V57.3477C35.7226 58.2965 35.068 59.6851 35.068 61.1502C32.8822 62.4415 30.3991 63.1225 27.8356 63.1225C21.16 63.1225 15.3845 58.4248 13.9397 52.0177L17.7311 50.8802C18.6665 55.6045 22.841 59.1782 27.8358 59.1782C31.802 59.1782 35.2495 56.9239 36.9703 53.6305C36.8719 54.3757 36.8214 55.1304 36.8214 55.8901ZM20.6034 48.874V45.3191C22.8056 46.3361 25.2553 46.9044 27.8358 46.9044C30.4161 46.9044 32.866 46.3359 35.0682 45.3193V48.8763C35.0682 52.8642 31.8239 56.1087 27.8358 56.1087C23.8545 56.1087 20.6147 52.8748 20.6038 48.8959C20.6038 48.8886 20.6034 48.8812 20.6034 48.874ZM27.8358 43.835C19.9803 43.835 13.5898 37.4445 13.5898 29.5892C13.5898 28.7417 12.9027 28.0545 12.0551 28.0545C10.9678 28.0545 10.083 27.1698 10.083 26.0824C10.083 24.995 10.9676 24.1102 12.0551 24.1102H15.5619C16.2225 24.1102 16.8089 23.6877 17.0178 23.0609L18.4264 18.8351C21.9531 18.7555 32.8859 18.2597 39.0423 15.1813C39.8005 14.8022 40.1078 13.8806 39.7287 13.1224C39.3497 12.3643 38.4281 12.057 37.6697 12.4361C31.0643 15.7387 17.4516 15.7809 17.3149 15.7809C16.6544 15.7811 16.068 16.2036 15.8593 16.8304L14.4557 21.0411H12.0551C11.9819 21.0411 11.909 21.0436 11.8364 21.0466V13.8085C11.8364 7.88696 16.654 3.06933 22.5756 3.06933H36.6028C38.4354 3.06933 39.975 4.39017 40.2641 6.20967C40.3376 6.67212 40.6181 7.07564 41.026 7.30563C42.7587 8.28291 43.8352 10.1026 43.8352 12.0549V21.0462C43.7626 21.043 43.6899 21.0407 43.6165 21.0407H41.8631C41.0155 21.0407 40.3284 21.7278 40.3284 22.5754C40.3284 23.4229 41.0155 24.11 41.8631 24.11H43.6165C44.7038 24.11 45.5886 24.9946 45.5886 26.0822C45.5886 27.1698 44.704 28.0543 43.6165 28.0543C42.7689 28.0543 42.0818 28.7415 42.0818 29.589C42.0818 37.4443 35.6912 43.835 27.8358 43.835ZM38.1373 48.8767V43.4931C39.664 42.3589 40.9983 40.9811 42.0816 39.4154V43.463C40.363 45.1315 39.0233 47.1247 38.1265 49.3035C38.1324 49.1617 38.1373 49.0197 38.1373 48.8767ZM61.0896 84.3732C59.4 86.4372 56.8619 87.6702 54.1367 87.6702C51.4148 87.6702 48.8751 86.4364 47.1849 84.373L48.163 84.047C49.5078 83.5989 50.4114 82.3451 50.4114 80.9277V79.7045C51.5974 80.0374 52.846 80.2193 54.1369 80.2193C55.4279 80.2193 56.6765 80.0374 57.8625 79.7045V80.9277C57.8623 82.3449 58.7657 83.5987 60.1107 84.0468L61.0896 84.3732ZM66.4108 63.1225C65.5632 63.1225 64.8761 63.8096 64.8761 64.6572V66.183C64.8761 66.1963 64.8759 66.2096 64.8761 66.2229V66.4106C64.8759 72.3322 60.0583 77.1498 54.1367 77.1498C48.2152 77.1498 43.3977 72.3322 43.3977 66.4106V64.6572C43.3977 63.8096 42.7106 63.1225 41.8631 63.1225H40.1097C39.0223 63.1225 38.1375 62.2379 38.1375 61.1504C38.1375 60.4506 38.5079 59.8172 39.1281 59.4563C39.2666 59.3757 39.3871 59.2736 39.4915 59.1582C43.2852 59.0483 55.5828 58.3343 63.6652 53.7158C64.401 53.2953 64.6568 52.3579 64.2363 51.6219C63.8158 50.8859 62.878 50.6303 62.1424 51.0508C55.062 55.0966 43.9363 55.9067 39.8909 56.0686V55.8901C39.8909 53.0359 40.7552 50.2716 42.3214 47.9412C42.444 48.1354 42.6079 48.304 42.8096 48.4286C43.0562 48.5808 43.3359 48.6578 43.6165 48.6578C43.851 48.6578 44.0861 48.6039 44.3028 48.4957L54.1369 43.5786L63.9711 48.4957C64.1878 48.6039 64.4229 48.6578 64.6574 48.6578C64.9381 48.6578 65.2178 48.5808 65.4642 48.4286C65.6658 48.304 65.8297 48.1352 65.9522 47.9412C67.5184 50.2716 68.3827 53.0359 68.3827 55.8901V58.1299C68.3827 58.6763 68.6731 59.1815 69.1456 59.4563C69.766 59.8174 70.1363 60.4506 70.1363 61.1504C70.1363 62.2377 69.2516 63.1225 68.1642 63.1225H66.4108V63.1225ZM78.6844 71.8896C74.4357 71.8896 70.4938 69.7265 68.1992 66.191C70.9628 66.172 73.2055 63.9185 73.2055 61.1506C73.2055 59.6855 72.5509 58.2967 71.4521 57.3479V55.8903C71.4521 55.2726 71.4187 54.6583 71.3534 54.0498C73.629 55.1167 76.1136 55.6714 78.6844 55.6714C80.5557 55.6714 82.4063 55.3614 84.1634 54.7753V57.0227C84.1634 59.0962 85.4073 60.9337 87.3324 61.7037L90.6418 63.0274C89.0557 68.2714 84.2123 71.8896 78.6844 71.8896Z" fill="#FFCA03"/>
<path d="M58.6104 68.7256C57.9521 68.1918 56.9857 68.2924 56.4518 68.9509C55.8316 69.7154 55.0097 70.1363 54.1369 70.1363C53.2642 70.1363 52.4421 69.7154 51.8221 68.9509C51.2882 68.2926 50.3216 68.1918 49.6635 68.7256C49.0052 69.2595 48.9043 70.2259 49.4382 70.8842C50.6348 72.3593 52.3473 73.2056 54.1369 73.2056C55.9266 73.2056 57.6391 72.3595 58.8357 70.8844C59.3693 70.2261 59.2685 69.2595 58.6104 68.7256Z" fill="#FFCA03"/>
<path d="M48.9047 64.4453C49.7522 64.4453 50.4393 63.7582 50.4393 62.9106C50.4393 62.0631 49.7522 61.376 48.9047 61.376C48.0571 61.376 47.37 62.0631 47.37 62.9106C47.37 63.7582 48.0571 64.4453 48.9047 64.4453Z" fill="#FFCA03"/>
<path d="M59.3406 64.4453C60.1881 64.4453 60.8752 63.7582 60.8752 62.9106C60.8752 62.0631 60.1881 61.376 59.3406 61.376C58.493 61.376 57.8059 62.0631 57.8059 62.9106C57.8059 63.7582 58.493 64.4453 59.3406 64.4453Z" fill="#FFCA03"/>
</svg>
