<svg width="255" height="48" viewBox="0 0 255 48" fill="none" xmlns="http://www.w3.org/2000/svg">
<g clip-path="url(#clip0)">
<path d="M14.5305 47.9668H28.8869H33.7171L34.9259 40.559L36.1347 33.166L33.6325 33.8786V32.5029L35.4781 31.1273V25.3524L28.1009 27.6485V25.8126L35.4781 21.2254V16.9054C35.4781 16.173 36.1198 15.5297 36.861 15.5297C37.5972 15.5297 38.2439 16.173 38.2439 16.9054V21.2254L45.621 25.8126V27.6485L38.2439 25.3524V31.1273L40.0894 32.5029V33.8786L37.5872 33.166L38.796 40.559L40.0048 47.9668H44.5664H59.0124L73.7219 0.214277H57.6046L51.1726 20.9483L43.7755 0.0361328C36.2043 0.0361328 37.5126 0.0361328 29.9464 0.0361328L22.6339 20.7751L16.381 0.214277H0L14.5305 47.9668Z" fill="#7E7E7E"/>
<path d="M109.011 16.5179H113.234L108.334 31.8432H104.544L101.713 22.555L98.8779 31.8432H95.0874L90.1875 16.5179H94.4108L97.0274 25.9249L99.833 16.5179H103.589L106.394 25.9546L109.011 16.5179ZM118.134 25.8012C118.666 27.7261 120.114 28.6861 122.477 28.6861C123.999 28.6861 125.148 28.1715 125.929 27.1521L129.133 28.9929C127.611 31.1752 125.372 32.2688 122.417 32.2688C119.87 32.2688 117.826 31.5018 116.284 29.9727C114.742 28.4387 113.976 26.5088 113.976 24.1781C113.976 21.8721 114.732 19.9422 116.254 18.4032C117.771 16.8593 119.726 16.0873 122.109 16.0873C124.367 16.0873 126.233 16.8642 127.7 18.4181C129.168 19.9719 129.904 21.8919 129.904 24.1781C129.904 24.6878 129.849 25.2321 129.75 25.8012H118.134ZM118.07 22.7381H125.929C125.7 21.6989 125.233 20.922 124.526 20.4073C123.815 19.8976 123.009 19.6453 122.109 19.6453C121.039 19.6453 120.154 19.9125 119.457 20.4568C118.761 20.9962 118.298 21.7583 118.07 22.7381ZM135.908 25.8012C136.445 27.7261 137.893 28.6861 140.256 28.6861C141.773 28.6861 142.922 28.1715 143.703 27.1521L146.907 28.9929C145.389 31.1752 143.151 32.2688 140.191 32.2688C137.644 32.2688 135.6 31.5018 134.062 29.9727C132.52 28.4387 131.749 26.5088 131.749 24.1781C131.749 21.8721 132.51 19.9422 134.033 18.4032C135.55 16.8593 137.5 16.0873 139.883 16.0873C142.141 16.0873 144.007 16.8642 145.479 18.4181C146.946 19.9719 147.678 21.8919 147.678 24.1781C147.678 24.6878 147.628 25.2321 147.523 25.8012H135.908ZM135.848 22.7381H143.703C143.479 21.6989 143.012 20.922 142.305 20.4073C141.594 19.8976 140.788 19.6453 139.883 19.6453C138.818 19.6453 137.933 19.9125 137.236 20.4568C136.535 20.9962 136.072 21.7583 135.848 22.7381ZM164.656 31.8432H160.034L154.428 24.8857V31.8432H150.453V10.3867H154.428V23.2576L159.726 16.5179H164.472L158.278 24.089L164.656 31.8432Z" fill="#7E7E7E"/>
<path d="M184.295 20.3183H180.813V26.6919C180.813 27.2214 180.947 27.6123 181.211 27.8548C181.479 28.1022 181.872 28.2407 182.385 28.2704C182.897 28.3001 183.534 28.2952 184.295 28.2556V31.8432C181.564 32.15 179.639 31.8927 178.519 31.0762C177.4 30.2597 176.838 28.795 176.838 26.6919V20.3183H174.157V16.5179H176.838V13.4201L180.813 12.2275V16.5179H184.295V20.3183ZM191.319 19.1504C191.687 18.1706 192.299 17.4383 193.154 16.9434C194.005 16.4535 194.955 16.2111 196 16.2111V20.6251C194.791 20.4816 193.707 20.724 192.752 21.3574C191.796 21.9908 191.319 23.0449 191.319 24.5146V31.8432H187.344V16.5179H191.319V19.1504ZM209.436 16.5179H213.411V31.8432H209.436V30.0321C208.242 31.5265 206.571 32.2688 204.412 32.2688C202.357 32.2688 200.596 31.4869 199.129 29.9232C197.661 28.3645 196.925 26.4494 196.925 24.1781C196.925 21.9117 197.661 19.9966 199.129 18.4329C200.596 16.8692 202.357 16.0873 204.412 16.0873C206.571 16.0873 208.242 16.8346 209.436 18.324V16.5179ZM202.104 27.2906C202.904 28.0972 203.919 28.4981 205.153 28.4981C206.387 28.4981 207.406 28.0972 208.217 27.2906C209.028 26.484 209.436 25.4449 209.436 24.1781C209.436 22.9113 209.028 21.877 208.217 21.0704C207.406 20.2589 206.387 19.8581 205.153 19.8581C203.919 19.8581 202.904 20.2589 202.104 21.0704C201.303 21.877 200.9 22.9113 200.9 24.1781C200.9 25.4449 201.303 26.484 202.104 27.2906ZM227.15 16.5179H231.528L225.673 31.8432H221.141L215.291 16.5179H219.663L223.389 27.2412L227.15 16.5179ZM236.179 25.8012C236.711 27.7261 238.159 28.6861 240.522 28.6861C242.044 28.6861 243.193 28.1715 243.974 27.1521L247.177 28.9929C245.655 31.1752 243.417 32.2688 240.462 32.2688C237.915 32.2688 235.87 31.5018 234.328 29.9727C232.786 28.4387 232.02 26.5088 232.02 24.1781C232.02 21.8721 232.776 19.9422 234.298 18.4032C235.816 16.8593 237.771 16.0873 240.153 16.0873C242.412 16.0873 244.277 16.8642 245.745 18.4181C247.212 19.9719 247.948 21.8919 247.948 24.1781C247.948 24.6878 247.894 25.2321 247.794 25.8012H236.179ZM236.114 22.7381H243.974C243.745 21.6989 243.277 20.922 242.571 20.4073C241.86 19.8976 241.054 19.6453 240.153 19.6453C239.084 19.6453 238.203 19.9125 237.502 20.4568C236.806 20.9962 236.343 21.7583 236.114 22.7381ZM250.719 31.8432V9.46631H254.694V31.8432H250.719Z" fill="#7E7E7E"/>
<path d="M170.123 32.6152C171.686 32.6152 172.953 31.3546 172.953 29.7996C172.953 28.2445 171.686 26.9839 170.123 26.9839C168.559 26.9839 167.292 28.2445 167.292 29.7996C167.292 31.3546 168.559 32.6152 170.123 32.6152Z" fill="#7E7E7E"/>
</g>
<defs>
<clipPath id="clip0">
<rect width="254.694" height="48" fill="white"/>
</clipPath>
</defs>
</svg>
