<svg width="27" height="20" viewBox="0 0 27 20" fill="none" xmlns="http://www.w3.org/2000/svg">
<path d="M8.11283 19.8897V18.5653C8.12055 18.4542 8.1045 18.3427 8.06576 18.2383C8.02701 18.1339 7.96646 18.039 7.88814 17.9598C7.80982 17.8807 7.71552 17.8191 7.61154 17.7793C7.50755 17.7394 7.39627 17.7222 7.2851 17.7287C7.13921 17.7192 6.99342 17.749 6.86297 17.815C6.73251 17.881 6.62217 17.9808 6.54346 18.104C6.4717 17.9845 6.36903 17.8865 6.24627 17.8205C6.12352 17.7545 5.98522 17.7228 5.84595 17.7287C5.72456 17.7226 5.60366 17.7483 5.49525 17.8033C5.38684 17.8583 5.29469 17.9406 5.22791 18.0422V17.7817H4.7688V19.8897H5.23233V18.722C5.22206 18.6498 5.22797 18.5762 5.24964 18.5065C5.27131 18.4368 5.3082 18.3729 5.35763 18.3192C5.40707 18.2656 5.46781 18.2236 5.53547 18.1963C5.60312 18.169 5.676 18.157 5.74883 18.1614C6.05344 18.1614 6.20794 18.36 6.20794 18.7176V19.8897H6.67148V18.722C6.66202 18.6499 6.66851 18.5766 6.69048 18.5073C6.71245 18.438 6.74937 18.3744 6.79863 18.3209C6.84789 18.2674 6.9083 18.2254 6.97558 18.1979C7.04285 18.1703 7.11536 18.1578 7.18798 18.1614C7.50141 18.1614 7.65151 18.36 7.65151 18.7176V19.8897H8.11283ZM10.6954 18.8368V17.7839H10.2318V18.04C10.154 17.9395 10.0533 17.8591 9.93812 17.8053C9.82296 17.7516 9.69663 17.7261 9.56964 17.7309C9.27693 17.7309 8.99621 17.8472 8.78924 18.0542C8.58227 18.2612 8.466 18.5419 8.466 18.8346C8.466 19.1273 8.58227 19.408 8.78924 19.615C8.99621 19.822 9.27693 19.9382 9.56964 19.9382C9.69663 19.9431 9.82296 19.9176 9.93812 19.8639C10.0533 19.8101 10.154 19.7297 10.2318 19.6292V19.8853H10.6909L10.6954 18.8368ZM8.98912 18.8368C8.99644 18.7126 9.03993 18.5932 9.11422 18.4934C9.18852 18.3936 9.29039 18.3177 9.40728 18.2751C9.52417 18.2324 9.65098 18.2249 9.77209 18.2534C9.89321 18.2819 10.0033 18.3452 10.0889 18.4355C10.1745 18.5258 10.2318 18.6392 10.2538 18.7617C10.2758 18.8841 10.2614 19.0104 10.2126 19.1248C10.1637 19.2392 10.0825 19.3369 9.97883 19.4057C9.87518 19.4746 9.75366 19.5116 9.62923 19.5122C9.54137 19.5143 9.45406 19.498 9.37286 19.4643C9.29167 19.4307 9.21839 19.3805 9.15772 19.3169C9.09705 19.2533 9.05032 19.1778 9.02053 19.0951C8.99074 19.0124 8.97854 18.9245 8.98471 18.8368H8.98912ZM20.5045 17.7332C20.6557 17.7328 20.8055 17.7612 20.946 17.817C21.0801 17.8707 21.2023 17.9502 21.3058 18.051C21.4079 18.1509 21.4889 18.2702 21.5441 18.402C21.6595 18.685 21.6595 19.0019 21.5441 19.2849C21.489 19.4166 21.4079 19.536 21.3058 19.6358C21.2023 19.7366 21.0801 19.8161 20.946 19.8698C20.6549 19.9829 20.332 19.9829 20.041 19.8698C19.9075 19.8162 19.786 19.7366 19.6834 19.6358C19.5823 19.5356 19.502 19.4163 19.4472 19.2849C19.3321 19.0018 19.3321 18.685 19.4472 18.402C19.502 18.2705 19.5823 18.1512 19.6834 18.051C19.786 17.9502 19.9075 17.8707 20.041 17.817C20.1865 17.7567 20.3426 17.7259 20.5001 17.7265L20.5045 17.7332ZM20.5045 18.1746C20.4146 18.1734 20.3254 18.1899 20.2418 18.2232C20.1632 18.2547 20.0918 18.302 20.0322 18.3622C19.9713 18.4256 19.924 18.5007 19.8931 18.583C19.8257 18.7592 19.8257 18.9541 19.8931 19.1304C19.9239 19.2127 19.9712 19.2878 20.0322 19.3511C20.0918 19.4113 20.1632 19.4587 20.2418 19.4901C20.41 19.556 20.5968 19.556 20.765 19.4901C20.8474 19.4597 20.9226 19.4123 20.9857 19.3511C21.0467 19.2878 21.0941 19.2127 21.1248 19.1304C21.1922 18.9541 21.1922 18.7592 21.1248 18.583C21.0941 18.5006 21.0467 18.4255 20.9857 18.3622C20.9226 18.301 20.8474 18.2536 20.765 18.2232C20.6817 18.1851 20.5916 18.164 20.5001 18.1614L20.5045 18.1746ZM13.1896 18.8368C13.1896 18.1746 12.779 17.7332 12.1897 17.7332C11.897 17.7372 11.6179 17.8575 11.4138 18.0673C11.2097 18.2772 11.0974 18.5595 11.1015 18.8522C11.1056 19.1449 11.2258 19.424 11.4357 19.6281C11.6455 19.8322 11.9279 19.9445 12.2206 19.9404C12.5348 19.9512 12.842 19.8459 13.0836 19.6447L12.8629 19.3047C12.6886 19.4445 12.4727 19.5222 12.2493 19.5255C12.0975 19.5385 11.9467 19.4919 11.8288 19.3954C11.7109 19.2989 11.6353 19.1603 11.618 19.009H13.183C13.1896 18.9538 13.1896 18.8986 13.1896 18.8368ZM11.6202 18.6514C11.6287 18.5113 11.6912 18.3799 11.7945 18.2848C11.8978 18.1898 12.0339 18.1384 12.1742 18.1415C12.2429 18.14 12.3113 18.1521 12.3753 18.1771C12.4393 18.202 12.4978 18.2393 12.5474 18.2869C12.597 18.3344 12.6368 18.3913 12.6644 18.4542C12.692 18.5171 12.707 18.5849 12.7084 18.6536L11.6202 18.6514ZM15.121 18.3203C14.9194 18.2042 14.6914 18.1419 14.4588 18.1393C14.2071 18.1393 14.057 18.232 14.057 18.3865C14.057 18.541 14.216 18.5675 14.4146 18.594L14.6353 18.6249C15.0945 18.6911 15.3726 18.8854 15.3726 19.2562C15.3726 19.627 15.0194 19.9449 14.4124 19.9449C14.0871 19.9535 13.7676 19.8576 13.5008 19.6711L13.7215 19.3136C13.9241 19.4638 14.1713 19.5416 14.4234 19.5343C14.7369 19.5343 14.9046 19.4416 14.9046 19.2782C14.9046 19.1591 14.7854 19.0928 14.5338 19.0575L14.3131 19.0266C13.8407 18.9604 13.5847 18.7485 13.5847 18.4042C13.5847 17.9848 13.929 17.7287 14.4676 17.7287C14.769 17.7186 15.067 17.7952 15.3262 17.9495L15.121 18.3203ZM17.3282 18.2011H16.58V19.1524C16.58 19.3732 16.655 19.5056 16.8846 19.5056C17.0278 19.5009 17.1676 19.4598 17.2907 19.3864L17.4231 19.7793C17.251 19.8867 17.0521 19.9433 16.8492 19.9426C16.3063 19.9426 16.1164 19.6513 16.1164 19.1613V18.2011H15.6882V17.7817H16.1164V17.1416H16.58V17.7817H17.3282V18.2011ZM18.9153 17.7287C19.0266 17.7292 19.1371 17.7486 19.242 17.7861L19.1007 18.2276C19.0095 18.1912 18.9119 18.1732 18.8137 18.1746C18.5135 18.1746 18.3723 18.3688 18.3723 18.7176V19.8985H17.9132V17.7905H18.3679V18.0466C18.4242 17.9498 18.5056 17.87 18.6035 17.8156C18.7014 17.7612 18.8122 17.7343 18.9241 17.7376L18.9153 17.7287ZM22.0893 19.5829C22.118 19.5825 22.1465 19.5878 22.1732 19.5983C22.1986 19.6087 22.2218 19.6236 22.2416 19.6424C22.261 19.6615 22.2768 19.6839 22.288 19.7087C22.2992 19.7344 22.3049 19.7622 22.3049 19.7903C22.3049 19.8184 22.2992 19.8462 22.288 19.872C22.2768 19.8967 22.261 19.9192 22.2416 19.9382C22.2218 19.9571 22.1986 19.972 22.1732 19.9824C22.1468 19.994 22.1182 20.0001 22.0893 20C22.0475 19.9997 22.0066 19.9875 21.9714 19.9648C21.9363 19.9422 21.9083 19.91 21.8907 19.872C21.8796 19.8462 21.8739 19.8184 21.8739 19.7903C21.8739 19.7623 21.8796 19.7345 21.8907 19.7087C21.9019 19.6839 21.9176 19.6615 21.937 19.6424C21.9569 19.6236 21.9801 19.6087 22.0055 19.5983C22.0287 19.5891 22.0533 19.5838 22.0783 19.5829H22.0893ZM22.0893 19.9559C22.1114 19.956 22.1332 19.9515 22.1533 19.9426C22.1723 19.9342 22.1896 19.9222 22.2041 19.9073C22.2228 19.8885 22.2367 19.8653 22.2444 19.8399C22.2522 19.8145 22.2536 19.7876 22.2486 19.7615C22.2436 19.7354 22.2323 19.7109 22.2157 19.6902C22.1991 19.6694 22.1777 19.653 22.1533 19.6424C22.1332 19.6336 22.1114 19.6291 22.0893 19.6292C22.0673 19.6293 22.0456 19.6338 22.0253 19.6424C22.0055 19.6506 21.9875 19.6626 21.9724 19.6778C21.9447 19.7079 21.9294 19.7473 21.9294 19.7881C21.9294 19.829 21.9447 19.8684 21.9724 19.8985C21.9876 19.914 22.0059 19.9262 22.0259 19.9346C22.046 19.9429 22.0676 19.9472 22.0893 19.9471V19.9559ZM22.1026 19.6932C22.1232 19.6922 22.1435 19.6985 22.16 19.7109C22.1667 19.7165 22.1721 19.7236 22.1755 19.7317C22.179 19.7397 22.1805 19.7485 22.1798 19.7572C22.1802 19.7646 22.1789 19.7719 22.1763 19.7787C22.1736 19.7856 22.1696 19.7918 22.1644 19.797C22.1516 19.8086 22.1353 19.8156 22.118 19.8168L22.182 19.8897H22.1313L22.0717 19.8168H22.0518V19.8897H22.0099V19.6866L22.1026 19.6932ZM22.054 19.7307V19.7837H22.1026C22.1112 19.7863 22.1204 19.7863 22.1291 19.7837C22.1306 19.7806 22.1314 19.7772 22.1314 19.7738C22.1314 19.7703 22.1306 19.7669 22.1291 19.7639C22.1306 19.7608 22.1314 19.7574 22.1314 19.7539C22.1314 19.7505 22.1306 19.7471 22.1291 19.744C22.1204 19.7414 22.1112 19.7414 22.1026 19.744L22.054 19.7307Z" fill="white"/>
<path d="M16.6663 1.69946H9.71338V14.1949H16.6663V1.69946Z" fill="#8F8F8F"/>
<path d="M10.155 7.94867C10.1537 6.7451 10.4263 5.55701 10.9521 4.47438C11.4779 3.39175 12.2432 2.44296 13.19 1.69985C12.0177 0.77858 10.6099 0.205695 9.12748 0.0466741C7.64504 -0.112347 6.14776 0.148907 4.80677 0.800584C3.46578 1.45226 2.33518 2.46807 1.5442 3.7319C0.753209 4.99574 0.33374 6.45661 0.33374 7.94756C0.33374 9.43851 0.753209 10.8994 1.5442 12.1632C2.33518 13.4271 3.46578 14.4429 4.80677 15.0945C6.14776 15.7462 7.64504 16.0075 9.12748 15.8485C10.6099 15.6894 12.0177 15.1165 13.19 14.1953C12.2435 13.4524 11.4784 12.504 10.9526 11.4217C10.4268 10.3395 10.154 9.15187 10.155 7.94867Z" fill="#7E7E7E"/>
<path d="M25.2878 12.8705V12.6233H25.3916V12.5704H25.1289V12.6233H25.2326V12.8794L25.2878 12.8705ZM25.7977 12.8705V12.5615H25.7183L25.6255 12.7823L25.5328 12.5615H25.4512V12.8705H25.5086V12.6388L25.5946 12.8396H25.6542L25.7403 12.6388V12.8728L25.7977 12.8705Z" fill="#00A1DF"/>
<path d="M26.0452 7.94825C26.0448 9.43892 25.6251 10.8994 24.8341 12.1629C24.0431 13.4264 22.9126 14.4419 21.5719 15.0934C20.2311 15.7449 18.7341 16.0062 17.2519 15.8473C15.7697 15.6884 14.3621 15.1158 13.1899 14.1949C14.136 13.4513 14.9009 12.5026 15.4269 11.4203C15.9528 10.3381 16.2261 9.15045 16.2261 7.94714C16.2261 6.74383 15.9528 5.55623 15.4269 4.47394C14.9009 3.39166 14.136 2.44297 13.1899 1.69943C14.3621 0.777869 15.7699 0.204704 17.2525 0.0454548C18.735 -0.113795 20.2324 0.147296 21.5736 0.79888C22.9147 1.45046 24.0455 2.46625 24.8366 3.73012C25.6278 4.994 26.0473 6.45497 26.0474 7.94604L26.0452 7.94825Z" fill="#7E7E7E"/>
</svg>
