<svg width="16" height="16" viewBox="0 0 16 16" fill="none" xmlns="http://www.w3.org/2000/svg">
<path d="M12.8011 10.8415C12.8422 11.1398 12.7497 11.2691 12.6469 11.2691C12.5441 11.2691 12.4002 11.1498 12.246 10.9111C12.0918 10.6725 12.0301 10.404 12.1123 10.2648C12.1637 10.1753 12.2665 10.1355 12.4104 10.1852C12.6674 10.2747 12.7702 10.6625 12.8011 10.8415ZM11.3413 11.4978C11.66 11.7564 11.7525 12.0646 11.5881 12.2734C11.4955 12.3928 11.3413 12.4524 11.1666 12.4524C10.9918 12.4524 10.8068 12.3928 10.6834 12.2834C10.3956 12.0447 10.3134 11.647 10.4984 11.4282C10.5704 11.3387 10.6937 11.289 10.8274 11.289C11.0021 11.2989 11.1871 11.3685 11.3413 11.4978ZM10.8171 13.9838C12.174 13.9838 13.644 14.4312 15.2682 15.8333C15.4327 15.9725 15.6486 15.8035 15.5047 15.6245C13.901 13.6656 12.4207 13.2976 10.9507 12.9794C9.15175 12.5916 8.2163 11.6171 7.56867 10.5333C7.43503 10.3145 7.38363 10.3543 7.37335 10.6327C7.36307 10.9708 7.38363 11.4183 7.46587 11.8558C7.39391 11.8558 7.32196 11.8558 7.25 11.8558C4.66978 11.8558 2.5727 9.82726 2.5727 7.33138C2.5727 4.83549 4.66978 2.80696 7.25 2.80696C9.83022 2.80696 11.9273 4.83549 11.9273 7.33138C11.9273 7.51036 11.917 7.68935 11.8965 7.8584C11.5572 7.79873 10.8788 7.78879 10.4059 7.82856C10.2311 7.83851 10.2517 7.928 10.3853 7.94789C11.9273 8.21637 12.9964 9.14114 13.2328 10.8316C13.2431 10.8714 13.2945 10.8813 13.3151 10.8515C13.9524 9.82726 14.3122 8.62407 14.3122 7.34132C14.3122 3.56268 11.146 0.5 7.23972 0.5C3.33341 0.5 0.167236 3.55274 0.167236 7.33138C0.167236 11.11 3.33341 14.1727 7.23972 14.1727C8.27798 14.1826 9.30595 13.9838 10.8171 13.9838Z" fill="#7E7E7E"/>
</svg>
