<svg width="26" height="20" viewBox="0 0 26 20" fill="none" xmlns="http://www.w3.org/2000/svg">
<path d="M4.67827 19.8895V18.5652C4.68599 18.4538 4.66989 18.342 4.63103 18.2374C4.59217 18.1327 4.53146 18.0375 4.45293 17.9581C4.3744 17.8788 4.27986 17.8171 4.17561 17.7771C4.07136 17.7371 3.95979 17.7198 3.84833 17.7264C3.70244 17.7168 3.55666 17.7466 3.4262 17.8126C3.29575 17.8786 3.1854 17.9784 3.10669 18.1016C3.03493 17.9821 2.93227 17.8842 2.80951 17.8181C2.68675 17.7521 2.54845 17.7204 2.40918 17.7264C2.28779 17.7202 2.1669 17.7459 2.05849 17.8009C1.95008 17.8559 1.85792 17.9383 1.79115 18.0398V17.7794H1.33203V19.8895H1.79556V18.7285C1.7857 18.6563 1.7919 18.5829 1.81373 18.5134C1.83555 18.4439 1.87245 18.3801 1.9218 18.3265C1.97115 18.273 2.03172 18.231 2.09918 18.2035C2.16665 18.1761 2.23934 18.1639 2.31206 18.1678C2.61667 18.1678 2.77118 18.3665 2.77118 18.7241V19.8984H3.23471V18.7285C3.22525 18.6564 3.23174 18.5831 3.25371 18.5138C3.27568 18.4445 3.3126 18.3809 3.36187 18.3274C3.41113 18.2739 3.47153 18.2319 3.53881 18.2043C3.60608 18.1768 3.67859 18.1643 3.75121 18.1678C4.06465 18.1678 4.21474 18.3665 4.21474 18.7241V19.8984L4.67827 19.8895ZM11.5363 17.7794H10.7814V17.1392H10.3179V17.7794H9.89849V18.1987H10.3267V19.1699C10.3267 19.66 10.5165 19.9513 11.0595 19.9513C11.2624 19.952 11.4613 19.8954 11.6334 19.788L11.501 19.3951C11.3779 19.4685 11.2381 19.5095 11.0948 19.5143C10.8741 19.5143 10.7902 19.373 10.7902 19.1611V18.1987H11.5407L11.5363 17.7794ZM15.452 17.7264C15.3401 17.7231 15.2293 17.7501 15.1314 17.8044C15.0335 17.8588 14.9521 17.9386 14.8958 18.0354V17.7794H14.4411V19.8895H14.9002V18.7064C14.9002 18.3577 15.0503 18.1634 15.3417 18.1634C15.4399 18.1621 15.5374 18.1801 15.6286 18.2164L15.7699 17.7749C15.665 17.7374 15.5545 17.718 15.4432 17.7176L15.452 17.7264ZM9.53209 17.9471C9.27221 17.7926 8.97341 17.716 8.67125 17.7264C8.13708 17.7264 7.78833 17.9824 7.78833 18.4018C7.78833 18.7461 8.04438 18.958 8.51674 19.0243L8.73747 19.0552C8.9891 19.0905 9.10829 19.1567 9.10829 19.2759C9.10829 19.4392 8.94054 19.5319 8.6271 19.5319C8.37499 19.5392 8.12775 19.4615 7.92518 19.3112L7.70446 19.6688C7.97189 19.8555 8.29222 19.9515 8.61827 19.9425C9.22748 19.9425 9.58065 19.6555 9.58065 19.2538C9.58065 18.8521 9.30253 18.6888 8.84341 18.6225L8.62269 18.5916C8.42403 18.5652 8.26511 18.5254 8.26511 18.3842C8.26511 18.2429 8.4152 18.1369 8.66683 18.1369C8.89941 18.1396 9.1274 18.202 9.32902 18.3179L9.53209 17.9471ZM21.8289 17.7264C21.7169 17.7231 21.6062 17.7501 21.5083 17.8044C21.4104 17.8588 21.329 17.9386 21.2726 18.0354V17.7794H20.8179V19.8895H21.277V18.7064C21.277 18.3577 21.4271 18.1634 21.7185 18.1634C21.8167 18.1621 21.9142 18.1801 22.0054 18.2164L22.1467 17.7749C22.0419 17.7374 21.9314 17.718 21.82 17.7176L21.8289 17.7264ZM15.9133 18.83C15.9079 18.9783 15.9334 19.1261 15.9884 19.264C16.0433 19.4018 16.1264 19.5267 16.2324 19.6305C16.3383 19.7344 16.4648 19.815 16.6037 19.8672C16.7426 19.9194 16.8909 19.9421 17.0391 19.9337C17.3147 19.9477 17.5856 19.8579 17.7984 19.682L17.5776 19.3112C17.4189 19.4322 17.2254 19.4988 17.0258 19.501C16.8561 19.4873 16.6978 19.4102 16.5824 19.285C16.4669 19.1599 16.4028 18.9959 16.4028 18.8256C16.4028 18.6554 16.4669 18.4913 16.5824 18.3662C16.6978 18.241 16.8561 18.1639 17.0258 18.1502C17.2254 18.1524 17.4189 18.219 17.5776 18.34L17.7984 17.9692C17.5856 17.7933 17.3147 17.7035 17.0391 17.7176C16.8909 17.7092 16.7426 17.7318 16.6037 17.784C16.4648 17.8362 16.3383 17.9168 16.2324 18.0207C16.1264 18.1246 16.0433 18.2494 15.9884 18.3873C15.9334 18.5251 15.9079 18.6729 15.9133 18.8212V18.83ZM20.2131 18.83V17.7794H19.754V18.0354C19.676 17.9351 19.5753 17.8547 19.4602 17.801C19.3451 17.7473 19.2188 17.7217 19.0918 17.7264C18.7991 17.7264 18.5184 17.8427 18.3114 18.0496C18.1045 18.2566 17.9882 18.5373 17.9882 18.83C17.9882 19.1227 18.1045 19.4034 18.3114 19.6104C18.5184 19.8174 18.7991 19.9337 19.0918 19.9337C19.2188 19.9384 19.3451 19.9128 19.4602 19.859C19.5753 19.8053 19.676 19.725 19.754 19.6246V19.8807H20.2131V18.83ZM18.5047 18.83C18.512 18.7058 18.5555 18.5865 18.6298 18.4866C18.7041 18.3868 18.806 18.3109 18.9228 18.2683C19.0397 18.2256 19.1665 18.2181 19.2877 18.2466C19.4088 18.2751 19.5189 18.3384 19.6045 18.4288C19.6901 18.5191 19.7474 18.6324 19.7694 18.7549C19.7913 18.8774 19.777 19.0036 19.7282 19.118C19.6793 19.2325 19.598 19.3301 19.4944 19.399C19.3907 19.4678 19.2692 19.5048 19.1448 19.5055C19.0574 19.5066 18.9707 19.4896 18.8902 19.4555C18.8097 19.4215 18.7371 19.3712 18.677 19.3078C18.6169 19.2443 18.5705 19.1691 18.5409 19.0869C18.5112 19.0047 18.4989 18.9172 18.5047 18.83ZM12.9644 17.7264C12.6717 17.7305 12.3926 17.8507 12.1885 18.0606C11.9845 18.2704 11.8721 18.5528 11.8762 18.8455C11.8803 19.1382 12.0005 19.4173 12.2104 19.6213C12.4203 19.8254 12.7026 19.9378 12.9953 19.9337C13.3129 19.95 13.6252 19.8477 13.8716 19.6467L13.6509 19.3068C13.4766 19.4466 13.2607 19.5243 13.0373 19.5275C12.8855 19.5406 12.7346 19.4939 12.6167 19.3975C12.4988 19.301 12.4232 19.1624 12.406 19.011H13.9731C13.9731 18.9536 13.9731 18.8962 13.9731 18.8344C13.9731 18.1723 13.5626 17.7308 12.971 17.7308L12.9644 17.7264ZM12.9644 18.1369C13.0331 18.1355 13.1014 18.1476 13.1655 18.1725C13.2295 18.1974 13.288 18.2348 13.3376 18.2823C13.3872 18.3299 13.4269 18.3867 13.4546 18.4497C13.4822 18.5126 13.4971 18.5803 13.4986 18.649H12.3949C12.4029 18.5073 12.4661 18.3744 12.5709 18.2787C12.6757 18.183 12.8137 18.1321 12.9556 18.1369H12.9644ZM24.4666 18.8344V16.9318H24.0251V18.0354C23.9471 17.9351 23.8464 17.8547 23.7313 17.801C23.6162 17.7473 23.4899 17.7217 23.3629 17.7264C23.0702 17.7264 22.7895 17.8427 22.5825 18.0496C22.3756 18.2566 22.2593 18.5373 22.2593 18.83C22.2593 19.1227 22.3756 19.4034 22.5825 19.6104C22.7895 19.8174 23.0702 19.9337 23.3629 19.9337C23.4899 19.9384 23.6162 19.9128 23.7313 19.859C23.8464 19.8053 23.9471 19.725 24.0251 19.6246V19.8807H24.4666V18.8344ZM25.2325 19.5827C25.2612 19.5824 25.2897 19.5876 25.3164 19.5982C25.3417 19.6085 25.3649 19.6235 25.3848 19.6423C25.4042 19.6613 25.4199 19.6838 25.4311 19.7085C25.4423 19.7343 25.4481 19.7621 25.4481 19.7902C25.4481 19.8183 25.4423 19.8461 25.4311 19.8719C25.4199 19.8966 25.4042 19.9191 25.3848 19.9381C25.3649 19.9569 25.3417 19.9719 25.3164 19.9822C25.2899 19.9939 25.2614 19.9999 25.2325 19.9999C25.1906 19.9996 25.1498 19.9874 25.1146 19.9647C25.0794 19.942 25.0514 19.9098 25.0338 19.8719C25.0228 19.8461 25.0171 19.8183 25.0171 19.7902C25.0171 19.7621 25.0228 19.7343 25.0338 19.7085C25.0451 19.6838 25.0608 19.6613 25.0802 19.6423C25.1001 19.6235 25.1233 19.6085 25.1486 19.5982C25.1774 19.5867 25.2082 19.5815 25.2391 19.5827H25.2325ZM25.2325 19.9557C25.2545 19.9559 25.2763 19.9514 25.2965 19.9425C25.3155 19.934 25.3327 19.922 25.3473 19.9072C25.3749 19.8771 25.3902 19.8377 25.3902 19.7968C25.3902 19.756 25.3749 19.7166 25.3473 19.6865C25.3327 19.6716 25.3155 19.6596 25.2965 19.6511C25.2763 19.6423 25.2545 19.6378 25.2325 19.6379C25.2105 19.638 25.1887 19.6425 25.1685 19.6511C25.1486 19.6593 25.1306 19.6713 25.1155 19.6865C25.0879 19.7166 25.0726 19.756 25.0726 19.7968C25.0726 19.8377 25.0879 19.8771 25.1155 19.9072C25.1307 19.9223 25.1487 19.9343 25.1685 19.9425C25.1907 19.9521 25.2149 19.9566 25.2391 19.9557H25.2325ZM25.2457 19.6931C25.2663 19.6921 25.2866 19.6983 25.3031 19.7107C25.3099 19.7163 25.3152 19.7234 25.3187 19.7315C25.3221 19.7396 25.3236 19.7483 25.323 19.7571C25.3233 19.7644 25.3221 19.7717 25.3194 19.7786C25.3168 19.7854 25.3127 19.7916 25.3075 19.7968C25.2947 19.8084 25.2784 19.8154 25.2612 19.8167L25.3252 19.8895H25.2744L25.2148 19.8167H25.195V19.8895H25.153V19.6953L25.2457 19.6931ZM25.1972 19.7306V19.7836H25.2457C25.2544 19.7861 25.2636 19.7861 25.2722 19.7836C25.2738 19.7805 25.2746 19.7771 25.2746 19.7736C25.2746 19.7702 25.2738 19.7668 25.2722 19.7637C25.2738 19.7606 25.2746 19.7572 25.2746 19.7538C25.2746 19.7503 25.2738 19.7469 25.2722 19.7438C25.2636 19.7413 25.2544 19.7413 25.2457 19.7438L25.1972 19.7306ZM22.7692 18.8344C22.7765 18.7102 22.82 18.5909 22.8943 18.4911C22.9686 18.3913 23.0704 18.3154 23.1873 18.2727C23.3042 18.2301 23.431 18.2225 23.5521 18.251C23.6732 18.2796 23.7834 18.3429 23.869 18.4332C23.9546 18.5235 24.0119 18.6369 24.0338 18.7593C24.0558 18.8818 24.0415 19.008 23.9926 19.1225C23.9438 19.2369 23.8625 19.3345 23.7589 19.4034C23.6552 19.4722 23.5337 19.5092 23.4093 19.5099C23.3219 19.511 23.2352 19.494 23.1547 19.46C23.0742 19.4259 23.0016 19.3756 22.9415 19.3122C22.8813 19.2488 22.835 19.1736 22.8053 19.0913C22.7757 19.0091 22.7634 18.9217 22.7692 18.8344ZM7.26741 18.8344V17.7794H6.8083V18.0354C6.73033 17.9351 6.62962 17.8547 6.51449 17.801C6.39935 17.7473 6.27309 17.7217 6.14611 17.7264C5.85341 17.7264 5.5727 17.8427 5.36572 18.0496C5.15875 18.2566 5.04247 18.5373 5.04247 18.83C5.04247 19.1227 5.15875 19.4034 5.36572 19.6104C5.5727 19.8174 5.85341 19.9337 6.14611 19.9337C6.27309 19.9384 6.39935 19.9128 6.51449 19.859C6.62962 19.8053 6.73033 19.725 6.8083 19.6246V19.8807H7.26741V18.8344ZM5.55898 18.8344C5.5663 18.7102 5.60979 18.5909 5.68408 18.4911C5.75838 18.3913 5.86025 18.3154 5.97713 18.2727C6.09402 18.2301 6.22083 18.2225 6.34195 18.251C6.46306 18.2796 6.5732 18.3429 6.65879 18.4332C6.74438 18.5235 6.80168 18.6369 6.82366 18.7593C6.84563 18.8818 6.8313 19.008 6.78245 19.1225C6.73359 19.2369 6.65233 19.3345 6.54868 19.4034C6.44503 19.4722 6.32351 19.5092 6.19909 19.5099C6.11133 19.5116 6.02416 19.4951 5.94312 19.4613C5.86209 19.4276 5.78895 19.3773 5.72835 19.3138C5.66775 19.2503 5.62101 19.1749 5.59109 19.0924C5.56117 19.0099 5.54873 18.922 5.55456 18.8344H5.55898Z" fill="white"/>
<path d="M16.3328 1.69946H9.37988V14.1949H16.3328V1.69946Z" fill="#8F8F8F"/>
<path d="M9.82124 7.94867C9.81996 6.7451 10.0925 5.55701 10.6184 4.47438C11.1442 3.39175 11.9095 2.44296 12.8563 1.69985C11.684 0.778579 10.2762 0.205695 8.79374 0.0466738C7.31129 -0.112347 5.81401 0.14891 4.47302 0.800587C3.13203 1.45226 2.00144 2.46807 1.21045 3.7319C0.419464 4.99574 0 6.45661 0 7.94756C0 9.43852 0.419464 10.8994 1.21045 12.1632C2.00144 13.4271 3.13203 14.4429 4.47302 15.0945C5.81401 15.7462 7.31129 16.0075 8.79374 15.8485C10.2762 15.6894 11.684 15.1165 12.8563 14.1953C11.9098 13.4524 11.1447 12.504 10.6189 11.4217C10.093 10.3395 9.82029 9.15187 9.82124 7.94867Z" fill="#7E7E7E"/>
<path d="M25.7139 7.94824C25.7138 9.43931 25.2943 10.9003 24.5031 12.1642C23.712 13.428 22.5812 14.4438 21.2401 15.0954C19.8989 15.747 18.4015 16.0081 16.919 15.8488C15.4364 15.6896 14.0286 15.1164 12.8564 14.1949C13.8026 13.4513 14.5674 12.5026 15.0934 11.4203C15.6193 10.3381 15.8926 9.15045 15.8926 7.94714C15.8926 6.74383 15.6193 5.55623 15.0934 4.47395C14.5674 3.39166 13.8026 2.44296 12.8564 1.69943C14.0286 0.777867 15.4364 0.204705 16.919 0.0454549C18.4015 -0.113795 19.8989 0.147294 21.2401 0.798879C22.5812 1.45046 23.712 2.46625 24.5031 3.73013C25.2943 4.994 25.7138 6.45498 25.7139 7.94604V7.94824Z" fill="#7E7E7E"/>
<path d="M24.9541 12.8705V12.6145H25.0578V12.5615H24.7952V12.6145H24.9077V12.8705H24.9541ZM25.464 12.8705V12.5615H25.3845L25.2918 12.7823L25.1991 12.5615H25.1285V12.8705H25.1859V12.6388L25.2719 12.8396H25.3315L25.4176 12.6388V12.8728L25.464 12.8705Z" fill="white"/>
</svg>
