<svg width="55" height="16" viewBox="0 0 55 16" fill="none" xmlns="http://www.w3.org/2000/svg">
<path d="M39.3374 7.48682V15.8845H44.1296V10.9803H49.3212C51.5842 10.9803 53.5011 9.52242 54.2133 7.48682H39.3374Z" fill="#7E7E7E"/>
<path d="M44.3218 6.06405L44.3212 6.06389C41.8833 5.40074 39.9552 3.46263 39.2903 1H49.3216C51.9098 1 54.0132 3.11638 54.0132 5.74018C54.0132 5.93727 54.0029 6.12837 53.9814 6.31508H46.1933C45.5466 6.31508 44.9186 6.22722 44.3218 6.06405Z" stroke="#7E7E7E"/>
<path d="M32.6817 0.5C32.6817 0.5 31.2773 0.627645 30.6183 2.11236L27.2238 9.63672H26.8245V0.5H22.0322V15.8846H26.5582C26.5582 15.8846 28.0292 15.7503 28.6881 14.2723L32.0161 6.7479H32.4154V15.8846H37.2077V0.5H32.6817Z" fill="#7E7E7E"/>
<path d="M15.1767 0.5V0.506718C15.1701 0.506718 13.0735 0.5 12.5144 2.52217C12.0019 4.37639 10.5575 9.49564 10.5176 9.63672H10.1182C10.1182 9.63672 8.64063 4.40326 8.12147 2.51545C7.56238 0.493282 5.45911 0.5 5.45911 0.5H0.66687V15.8846H5.45911V6.7479H5.65879H5.85847L8.65394 15.8846H11.9819L14.7774 6.75462H15.1767V15.8846H19.969V0.5H15.1767Z" fill="#7E7E7E"/>
</svg>
