<svg width="13" height="16" viewBox="0 0 13 16" fill="none" xmlns="http://www.w3.org/2000/svg">
<path fill-rule="evenodd" clip-rule="evenodd" d="M2.67139 5.3848C0.904629 6.72355 0.83374 7.27122 0.83374 8.13422V14.7561C0.83374 15.3757 1.33541 15.8846 1.94614 15.8846H12.3722V6.80653H8.81142V0.5C8.81142 0.5 4.12733 4.27839 2.67139 5.3848ZM7.06624 6.25324C6.76087 5.99323 6.19921 6.15366 5.81751 6.61835C5.4358 7.08304 5.37582 7.66944 5.68118 7.92945C5.98655 8.18945 6.5482 8.02902 6.92991 7.56433C7.31162 7.09964 7.3716 6.51324 7.06624 6.25324Z" fill="#7E7E7E"/>
<path d="M8.81113 6.8064V10.4631L2.26758 14.9828L10.5397 12.2555V6.8064H8.81113Z" fill="#303036"/>
</svg>
