<svg width="24" height="24" viewBox="0 0 24 24" fill="none" xmlns="http://www.w3.org/2000/svg">
<path d="M0.5 12C0.5 5.64873 5.64873 0.5 12 0.5C18.3513 0.5 23.5 5.64873 23.5 12C23.5 18.3513 18.3513 23.5 12 23.5C5.64873 23.5 0.5 18.3513 0.5 12Z" stroke="#7E7E7E"/>
<path fill-rule="evenodd" clip-rule="evenodd" d="M9.36174 5.63876C10.0444 5.6077 10.2625 5.6001 12.0007 5.6001H11.9987C13.7374 5.6001 13.9547 5.6077 14.6374 5.63876C15.3187 5.66997 15.7841 5.77783 16.1921 5.9361C16.6134 6.09944 16.9694 6.31811 17.3254 6.67411C17.6814 7.02985 17.9001 7.38692 18.0641 7.80785C18.2214 8.21479 18.3294 8.67986 18.3614 9.3612C18.3921 10.0439 18.4001 10.262 18.4001 12.0002C18.4001 13.7383 18.3921 13.9559 18.3614 14.6386C18.3294 15.3197 18.2214 15.7849 18.0641 16.1919C17.9001 16.6127 17.6814 16.9698 17.3254 17.3256C16.9698 17.6816 16.6133 17.9008 16.1925 18.0642C15.7853 18.2225 15.3197 18.3304 14.6383 18.3616C13.9557 18.3926 13.7382 18.4002 11.9999 18.4002C10.2619 18.4002 10.0439 18.3926 9.3612 18.3616C8.68 18.3304 8.21479 18.2225 7.80759 18.0642C7.38692 17.9008 7.02985 17.6816 6.67424 17.3256C6.31837 16.9698 6.0997 16.6127 5.9361 16.1918C5.77797 15.7849 5.6701 15.3198 5.63876 14.6385C5.60783 13.9558 5.6001 13.7383 5.6001 12.0002C5.6001 10.262 5.6081 10.0437 5.63863 9.36107C5.6693 8.68 5.7773 8.21479 5.93597 7.80772C6.09997 7.38692 6.31864 7.02985 6.67464 6.67411C7.03038 6.31824 7.38745 6.09957 7.80839 5.9361C8.21532 5.77783 8.6804 5.66997 9.36174 5.63876ZM11.7873 6.75331H11.7874L12.0007 6.75337C13.7096 6.75337 13.9121 6.7595 14.5869 6.79017C15.2109 6.8187 15.5496 6.92297 15.7752 7.01057C16.0739 7.12657 16.2868 7.26524 16.5107 7.48924C16.7347 7.71325 16.8733 7.92658 16.9896 8.22525C17.0772 8.45059 17.1816 8.78926 17.21 9.41326C17.2407 10.0879 17.2473 10.2906 17.2473 11.9986C17.2473 13.7066 17.2407 13.9093 17.21 14.584C17.1815 15.208 17.0772 15.5467 16.9896 15.772C16.8736 16.0707 16.7347 16.2833 16.5107 16.5072C16.2867 16.7312 16.074 16.8699 15.7752 16.9859C15.5499 17.0739 15.2109 17.1779 14.5869 17.2064C13.9122 17.2371 13.7096 17.2437 12.0007 17.2437C10.2918 17.2437 10.0893 17.2371 9.41459 17.2064C8.79058 17.1776 8.45191 17.0733 8.22618 16.9857C7.92751 16.8697 7.71417 16.7311 7.49017 16.5071C7.26617 16.2831 7.1275 16.0703 7.01123 15.7715C6.92363 15.5461 6.81923 15.2075 6.79083 14.5835C6.76016 13.9088 6.75403 13.7061 6.75403 11.997C6.75403 10.2879 6.76016 10.0863 6.79083 9.41166C6.81936 8.78766 6.92363 8.44899 7.01123 8.22339C7.12723 7.92472 7.26617 7.71138 7.49017 7.48738C7.71417 7.26338 7.92751 7.12471 8.22618 7.00844C8.45178 6.92044 8.79058 6.81644 9.41459 6.78777C10.005 6.7611 10.2338 6.7531 11.4266 6.75177V6.75337C11.538 6.7532 11.6579 6.75325 11.7873 6.75331ZM15.4171 7.81588C14.9931 7.81588 14.649 8.15948 14.649 8.58362C14.649 9.00763 14.9931 9.35163 15.4171 9.35163C15.8411 9.35163 16.1851 9.00763 16.1851 8.58362C16.1851 8.15962 15.8411 7.81561 15.4171 7.81561V7.81588ZM8.71399 12.0001C8.71399 10.185 10.1855 8.71345 12.0006 8.71338C13.8156 8.71338 15.2869 10.185 15.2869 12.0001C15.2869 13.8152 13.8158 15.2861 12.0007 15.2861C10.1856 15.2861 8.71399 13.8152 8.71399 12.0001ZM12.0007 9.86682C13.1788 9.86682 14.134 10.8219 14.134 12.0002C14.134 13.1783 13.1788 14.1335 12.0007 14.1335C10.8224 14.1335 9.86731 13.1783 9.86731 12.0002C9.86731 10.8219 10.8224 9.86682 12.0007 9.86682Z" fill="#7E7E7E"/>
</svg>
