<svg width="24" height="24" viewBox="0 0 24 24" fill="none" xmlns="http://www.w3.org/2000/svg">
<path d="M0.5 12C0.5 5.64873 5.64873 0.5 12 0.5C18.3513 0.5 23.5 5.64873 23.5 12C23.5 18.3513 18.3513 23.5 12 23.5C5.64873 23.5 0.5 18.3513 0.5 12Z" stroke="#7E7E7E"/>
<path fill-rule="evenodd" clip-rule="evenodd" d="M13.3198 9.09684C13.3198 8.38981 12.724 7.81488 11.9916 7.81488C11.2597 7.81488 10.6633 8.38981 10.6633 9.09684C10.6633 9.80332 11.2597 10.3786 11.9916 10.3786C12.724 10.3786 13.3198 9.80332 13.3198 9.09684ZM15.1997 9.09679C15.1997 10.804 13.7613 12.1927 11.9918 12.1927C10.2226 12.1927 8.78381 10.804 8.78381 9.09679C8.78381 7.38905 10.2226 6 11.9918 6C13.7613 6 15.1997 7.38905 15.1997 9.09679ZM15.1607 13.9756C14.5806 14.3272 13.9509 14.5766 13.2979 14.7202L15.0912 16.4515C15.4586 16.8054 15.4586 17.3801 15.0912 17.7344C14.7242 18.0886 14.1294 18.0886 13.7628 17.7344L11.9996 16.0331L10.2379 17.7344C10.0542 17.9113 9.81352 17.9999 9.57282 17.9999C9.33251 17.9999 9.0922 17.9113 8.90851 17.7344C8.54151 17.3801 8.54151 16.8057 8.90812 16.4515L10.7016 14.7202C10.0487 14.5766 9.41889 14.3269 8.83883 13.9756C8.39985 13.7084 8.26799 13.1487 8.54458 12.7245C8.8204 12.2999 9.40046 12.172 9.8402 12.4392C11.1535 13.2367 12.8453 13.2368 14.1593 12.4392C14.5991 12.172 15.1789 12.2999 15.4553 12.7245C15.7319 13.1483 15.5997 13.7084 15.1607 13.9756Z" fill="#7E7E7E"/>
</svg>
