<svg width="24" height="24" viewBox="0 0 24 24" fill="none" xmlns="http://www.w3.org/2000/svg">
<mask id="path-1-inside-1" fill="white">
<path fill-rule="evenodd" clip-rule="evenodd" d="M0 12C0 5.37258 5.37258 0 12 0C18.6274 0 24 5.37258 24 12C24 18.6274 18.6274 24 12 24C5.37258 24 0 18.6274 0 12Z"/>
</mask>
<path d="M1 12C1 5.92487 5.92487 1 12 1V-1C4.8203 -1 -1 4.8203 -1 12H1ZM12 1C18.0751 1 23 5.92487 23 12H25C25 4.8203 19.1797 -1 12 -1V1ZM23 12C23 18.0751 18.0751 23 12 23V25C19.1797 25 25 19.1797 25 12H23ZM12 23C5.92487 23 1 18.0751 1 12H-1C-1 19.1797 4.8203 25 12 25V23Z" fill="#7E7E7E" mask="url(#path-1-inside-1)"/>
<path fill-rule="evenodd" clip-rule="evenodd" d="M17.7379 8.28629C18.121 8.68319 18.246 9.58451 18.246 9.58451C18.246 9.58451 18.3738 10.6432 18.3738 11.7015V12.694C18.3738 13.7527 18.246 14.8109 18.246 14.8109C18.246 14.8109 18.121 15.7123 17.7379 16.1092C17.3 16.5787 16.8144 16.6272 16.5399 16.6546C16.5098 16.6577 16.4821 16.6604 16.4574 16.6634C14.6688 16.7959 11.9831 16.8 11.9831 16.8C11.9831 16.8 8.65985 16.7689 7.63733 16.6684C7.58888 16.6591 7.53016 16.6519 7.46365 16.6437C7.13976 16.604 6.63139 16.5416 6.22777 16.1092C5.84472 15.7123 5.7201 14.8109 5.7201 14.8109C5.7201 14.8109 5.59229 13.7527 5.59229 12.694V11.7015C5.59229 10.6432 5.7201 9.58451 5.7201 9.58451C5.7201 9.58451 5.84472 8.68319 6.22777 8.28629C6.66668 7.81609 7.15273 7.76811 7.42722 7.741C7.45698 7.73807 7.48426 7.73537 7.50872 7.73241C9.29733 7.59998 11.9803 7.59998 11.9803 7.59998H11.9858C11.9858 7.59998 14.6688 7.59998 16.4574 7.73241C16.4818 7.73538 16.5091 7.73807 16.5389 7.74102C16.8132 7.76812 17.2995 7.81617 17.7379 8.28629ZM10.6626 10.2214L10.663 13.8966L14.116 12.0653L10.6626 10.2214Z" fill="#7E7E7E"/>
</svg>
