<svg width="24" height="24" viewBox="0 0 24 24" fill="none" xmlns="http://www.w3.org/2000/svg">
<path d="M0.5 12C0.5 5.64873 5.64873 0.5 12 0.5C18.3513 0.5 23.5 5.64873 23.5 12C23.5 18.3513 18.3513 23.5 12 23.5C5.64873 23.5 0.5 18.3513 0.5 12Z" stroke="#7E7E7E"/>
<path fill-rule="evenodd" clip-rule="evenodd" d="M12.4407 9.7537L12.4658 10.1689L12.0461 10.1181C10.5185 9.92318 9.18387 9.26221 8.05072 8.15211L7.49673 7.6013L7.35404 8.00805C7.05186 8.91477 7.24492 9.87234 7.87445 10.5164C8.2102 10.8723 8.13466 10.9231 7.55549 10.7113C7.35404 10.6435 7.17777 10.5926 7.16098 10.6181C7.10222 10.6774 7.30367 11.4485 7.46316 11.7536C7.68139 12.1773 8.12626 12.5925 8.6131 12.8382L9.02439 13.0331L8.53756 13.0416C8.06751 13.0416 8.05072 13.0501 8.10108 13.2281C8.26896 13.7789 8.93206 14.3636 9.67071 14.6178L10.1911 14.7957L9.73786 15.0669C9.06636 15.4567 8.27735 15.677 7.48834 15.694C7.11062 15.7025 6.80005 15.7364 6.80005 15.7618C6.80005 15.8465 7.82409 16.3211 8.42004 16.5075C10.2079 17.0583 12.3315 16.821 13.9263 15.8804C15.0595 15.211 16.1927 13.8806 16.7215 12.5925C17.0069 11.9061 17.2922 10.6519 17.2922 10.0503C17.2922 9.66049 17.3174 9.60964 17.7875 9.14357C18.0645 8.8724 18.3247 8.57581 18.375 8.49107C18.459 8.33007 18.4506 8.33007 18.0225 8.47412C17.309 8.72834 17.2083 8.69445 17.5608 8.31312C17.821 8.04195 18.1316 7.55046 18.1316 7.4064C18.1316 7.38098 18.0057 7.42335 17.863 7.49961C17.7119 7.58435 17.3762 7.71146 17.1244 7.78773L16.6711 7.93179L16.2598 7.65214C16.0332 7.49961 15.7142 7.33013 15.5463 7.27929C15.1183 7.16065 14.4635 7.1776 14.0774 7.31318C13.0282 7.69451 12.3651 8.6775 12.4407 9.7537Z" fill="#7E7E7E"/>
</svg>
